SplineFontDB: 3.0
FontName: Bagnard
FullName: Bagnard Regular
FamilyName: Bagnard
Weight: Book
Copyright: SIL Open Font License (OFL)
Version: 1.000
ItalicAngle: 0
UnderlinePosition: -714
UnderlineWidth: 102
Ascent: 1536
Descent: 512
InvalidEm: 0
sfntRevision: 0x00010000
LayerCount: 2
Layer: 0 1 "Arri+AOgA-re" 1
Layer: 1 1 "Avant" 0
XUID: [1021 572 -1226626027 2116208]
StyleMap: 0x0000
FSType: 4
OS2Version: 3
OS2_WeightWidthSlopeOnly: 0
OS2_UseTypoMetrics: 0
CreationTime: 1425746432
ModificationTime: 1598114892
PfmFamily: 17
TTFWeight: 400
TTFWidth: 5
LineGap: 0
VLineGap: 0
Panose: 2 0 0 0 0 0 0 0 0 0
OS2TypoAscent: 1536
OS2TypoAOffset: 0
OS2TypoDescent: -512
OS2TypoDOffset: 0
OS2TypoLinegap: 0
OS2WinAscent: 1985
OS2WinAOffset: 0
OS2WinDescent: 595
OS2WinDOffset: 0
HheadAscent: 1985
HheadAOffset: 0
HheadDescent: -595
HheadDOffset: 0
OS2SubXSize: 1434
OS2SubYSize: 1331
OS2SubXOff: 0
OS2SubYOff: 287
OS2SupXSize: 1434
OS2SupYSize: 1331
OS2SupXOff: 0
OS2SupYOff: 977
OS2StrikeYSize: 102
OS2StrikeYPos: 512
OS2CapHeight: 718
OS2XHeight: 479
OS2Vendor: 'pyrs'
OS2CodePages: 00000001.00000000
OS2UnicodeRanges: 80000027.00000002.00000000.00000000
Lookup: 258 0 0 "'kern' Horizontal Kerning in Latin lookup 0" { "'kern' Horizontal Kerning in Latin lookup 0 subtable"  } ['kern' ('latn' <'dflt' > ) ]
DEI: 91125
TtTable: prep
PUSHW_1
 511
SCANCTRL
PUSHB_1
 1
SCANTYPE
SVTCA[y-axis]
MPPEM
PUSHB_1
 8
LT
IF
PUSHB_2
 1
 1
INSTCTRL
EIF
PUSHB_2
 70
 6
CALL
IF
POP
PUSHB_1
 16
EIF
MPPEM
PUSHB_1
 20
GT
IF
POP
PUSHB_1
 128
EIF
SCVTCI
PUSHB_1
 6
CALL
NOT
IF
SVTCA[y-axis]
PUSHB_1
 3
DUP
RCVT
PUSHB_1
 3
CALL
WCVTP
PUSHB_1
 4
DUP
RCVT
PUSHB_3
 3
 191
 2
CALL
PUSHB_1
 3
CALL
WCVTP
PUSHB_1
 5
DUP
RCVT
PUSHB_3
 3
 109
 2
CALL
PUSHB_1
 3
CALL
WCVTP
PUSHB_1
 6
DUP
RCVT
PUSHB_3
 5
 70
 2
CALL
PUSHB_1
 3
CALL
WCVTP
PUSHB_1
 7
DUP
RCVT
PUSHB_3
 6
 49
 2
CALL
PUSHB_1
 3
CALL
WCVTP
PUSHB_1
 8
DUP
RCVT
PUSHB_3
 7
 47
 2
CALL
PUSHB_1
 3
CALL
WCVTP
PUSHB_1
 9
DUP
RCVT
PUSHB_3
 8
 46
 2
CALL
PUSHB_1
 3
CALL

StartChar: .notdef
Encoding: 65536 -1 0
Width: 691
Flags: W
LayerCount: 2
Fore
SplineSet
62 0 m 1,0,-1
 377 1365 l 1,1,-1
 883 1365 l 1,2,-1
 568 0 l 1,3,-1
 62 0 l 1,0,-1
141 68 m 1,4,-1
 520 68 l 1,5,-1
 804 1297 l 1,6,-1
 425 1297 l 1,7,-1
 141 68 l 1,4,-1
EndSplineSet
Validated: 1
EndChar

StartChar: exclam
Encoding: 33 33 4
Width: 552
GlyphClass: 2
Flags: W
LayerCount: 2
Fore
SplineSet
432 1348 m 0,0,1
 448 1417 448 1417 504.5 1466.5 c 128,-1,2
 561 1516 561 1516 625.5 1516 c 128,-1,3
 690 1516 690 1516 724.5 1466.5 c 128,-1,4
 759 1417 759 1417 743 1348 c 0,5,6
 740 1333 740 1333 730 1309 c 2,7,-1
 408 449 l 1,8,-1
 352 449 l 1,9,-1
 427 1309 l 2,10,11
 426 1321 426 1321 432 1348 c 0,0,1
160 137 m 128,-1,13
 175 203 175 203 229 250 c 128,-1,14
 283 297 283 297 344 297 c 128,-1,15
 405 297 405 297 438 250 c 128,-1,16
 471 203 471 203 456 137 c 128,-1,17
 441 71 441 71 386.5 25.5 c 128,-1,18
 332 -20 332 -20 270.5 -20 c 128,-1,19
 209 -20 209 -20 177 25.5 c 128,-1,12
 145 71 145 71 160 137 c 128,-1,13
EndSplineSet
Validated: 33
EndChar

StartChar: dollar
Encoding: 36 36 5
Width: 1211
GlyphClass: 2
Flags: W
LayerCount: 2
Fore
SplineSet
399 1081 m 0,0,1
 421 1177 421 1177 468.5 1252.5 c 128,-1,2
 516 1328 516 1328 581.5 1377.5 c 128,-1,3
 647 1427 647 1427 723.5 1456 c 128,-1,4
 800 1485 800 1485 887 1495 c 1,5,-1
 912 1604 l 1,6,-1
 1014 1604 l 1,7,-1
 990 1499 l 1,8,9
 1114 1490 1114 1490 1220 1403 c 1,10,-1
 1396 1518 l 1,11,-1
 1231 819 l 1,12,13
 1216 901 1216 901 1208 949 c 128,-1,14
 1200 997 1200 997 1187 1058 c 128,-1,15
 1174 1119 1174 1119 1163 1153 c 128,-1,16
 1152 1187 1152 1187 1137 1228 c 128,-1,17
 1122 1269 1122 1269 1105.5 1291 c 128,-1,18
 1089 1313 1089 1313 1067.5 1334.5 c 128,-1,19
 1046 1356 1046 1356 1021 1367.5 c 128,-1,20
 996 1379 996 1379 964 1384 c 1,21,-1
 850 893 l 1,22,-1
 943 848 l 1,23,24
 990 820 990 820 1022 795.5 c 128,-1,25
 1054 771 1054 771 1090.5 730 c 128,-1,26
 1127 689 1127 689 1145 644.5 c 128,-1,27
 1163 600 1163 600 1167.5 535.5 c 128,-1,28
 1172 471 1172 471 1155 395 c 0,29,30
 1116 225 1116 225 976.5 110 c 128,-1,31
 837 -5 837 -5 641 -12 c 1,32,-1
 614 -131 l 1,33,-1
 511 -131 l 1,34,-1
 540 -6 l 1,35,36
 410 10 410 10 324 90 c 1,37,-1
 148 -23 l 1,38,-1
 314 672 l 1,39,40
 349 419 349 419 407 279.5 c 128,-1,41
 465 140 465 140 567 111 c 1,42,-1
 685 621 l 1,43,44
 640 642 640 642 612 657 c 0,45,46
 338 817 338 817 399 1081 c 0,0,1
640 1171 m 0,47,48
 621 1088 621 1088 650.5 1038 c 128,-1,49
 680 988 680 988 759 942 c 1,50,-1
 862 1386 l 1,51,52
 787 1371 787 1371 722.5 1309 c 128,-1,53
 658 1247 658 1247 640 1171 c 0,47,48
668 104 m 1,54,55
 756 115 756 115 820.5 171.5 c 128,-1,56
 885 228 885 228 909 328 c 0,57,58
 927 408 927 408 889.5 465 c 128,-1,59
 852 522 852 522 776 571 c 1,60,-1
 668 104 l 1,54,55
EndSplineSet
Validated: 33
EndChar

StartChar: ampersand
Encoding: 38 38 6
Width: 1529
GlyphClass: 2
Flags: W
LayerCount: 2
Fore
SplineSet
165 352 m 0,0,1
 198 497 198 497 316 606.5 c 128,-1,2
 434 716 434 716 591 772 c 1,3,-1
 571 799 l 2,4,5
 544 834 544 834 525 864.5 c 128,-1,6
 506 895 506 895 487.5 939.5 c 128,-1,7
 469 984 469 984 466 1038 c 128,-1,8
 463 1092 463 1092 477 1151 c 0,9,10
 510 1294 510 1294 648.5 1405 c 128,-1,11
 787 1516 787 1516 948 1516 c 0,12,13
 1108 1516 1108 1516 1183.5 1427 c 128,-1,14
 1259 1338 1259 1338 1225 1190 c 0,15,16
 1202 1089 1202 1089 1110.5 996 c 128,-1,17
 1019 903 1019 903 882 836 c 1,18,-1
 1143 510 l 1,19,-1
 1377 817 l 1,20,-1
 1280 981 l 1,21,-1
 1501 981 l 1,22,-1
 1497 975 l 1,23,-1
 1502 981 l 1,24,-1
 1718 981 l 1,25,-1
 1512 848 l 1,26,-1
 1189 451 l 1,27,28
 1342 260 1342 260 1428 145 c 1,29,-1
 1560 0 l 1,30,-1
 1027 0 l 1,31,-1
 1153 98 l 1,32,-1
 1024 246 l 1,33,34
 973 190 973 190 925.5 148 c 128,-1,35
 878 106 878 106 814 64 c 128,-1,36
 750 22 750 22 673.5 -0.5 c 128,-1,37
 597 -23 597 -23 515 -23 c 0,38,39
 309 -23 309 -23 217.5 80 c 128,-1,40
 126 183 126 183 165 352 c 0,0,1
434 393 m 0,41,42
 406 271 406 271 458.5 187.5 c 128,-1,43
 511 104 511 104 635 104 c 0,44,45
 722 104 722 104 810 163.5 c 128,-1,46
 898 223 898 223 972 307 c 1,47,48
 918 371 918 371 635 719 c 1,49,50
 552 652 552 652 505 573.5 c 128,-1,51
 458 495 458 495 434 393 c 0,41,42
716 1229 m 0,52,53
 684 1092 684 1092 767 985 c 0,54,55
 791 949 791 949 834 897 c 1,56,57
 915 963 915 963 968.5 1038 c 128,-1,58
 1022 1113 1022 1113 1037 1176 c 0,59,60
 1064 1291 1064 1291 1032 1356 c 128,-1,61
 1000 1421 1000 1421 927.5 1421 c 128,-1,62
 855 1421 855 1421 795 1366.5 c 128,-1,63
 735 1312 735 1312 716 1229 c 0,52,53
EndSplineSet
Validated: 33
EndChar

StartChar: parenleft
Encoding: 40 40 7
Width: 732
GlyphClass: 2
Flags: W
LayerCount: 2
Fore
SplineSet
300 653 m 0,0,1
 365 933 365 933 565.5 1219 c 128,-1,2
 766 1505 766 1505 1005 1683 c 1,3,-1
 1048 1610 l 1,4,5
 856 1429 856 1429 723.5 1171 c 128,-1,6
 591 913 591 913 531 653 c 128,-1,7
 471 393 471 393 484.5 135.5 c 128,-1,8
 498 -122 498 -122 607 -303 c 1,9,-1
 529 -377 l 1,10,11
 366 -181 366 -181 301 96.5 c 128,-1,12
 236 374 236 374 300 653 c 0,0,1
EndSplineSet
Validated: 33
EndChar

StartChar: parenright
Encoding: 41 41 8
Width: 732
GlyphClass: 2
Flags: W
LayerCount: 2
Fore
SplineSet
-14 -303 m 1,0,1
 117 -180 117 -180 225 -11 c 128,-1,2
 333 158 333 158 399.5 322.5 c 128,-1,3
 466 487 466 487 504 653 c 128,-1,4
 542 819 542 819 551.5 983.5 c 128,-1,5
 561 1148 561 1148 531 1317.5 c 128,-1,6
 501 1487 501 1487 427 1610 c 1,7,-1
 505 1683 l 1,8,9
 661 1505 661 1505 730 1219 c 128,-1,10
 799 933 799 933 735 653 c 0,11,12
 671 374 671 374 477 96.5 c 128,-1,13
 283 -181 283 -181 30 -377 c 1,14,-1
 -14 -303 l 1,0,1
EndSplineSet
Validated: 33
EndChar

StartChar: comma
Encoding: 44 44 9
Width: 567
GlyphClass: 2
Flags: W
LayerCount: 2
Fore
SplineSet
169 168 m 0,0,1
 185 236 185 236 241.5 284 c 128,-1,2
 298 332 298 332 369 332 c 0,3,4
 436 332 436 332 473 269.5 c 128,-1,5
 510 207 510 207 487 106 c 0,6,7
 471 38 471 38 434.5 -28.5 c 128,-1,8
 398 -95 398 -95 358.5 -141 c 128,-1,9
 319 -187 319 -187 272.5 -229 c 128,-1,10
 226 -271 226 -271 197.5 -291.5 c 128,-1,11
 169 -312 169 -312 145 -326 c 0,12,13
 123 -335 123 -335 110 -334.5 c 128,-1,14
 97 -334 97 -334 94 -328 c 0,15,16
 90 -310 90 -310 109 -291 c 0,17,18
 112 -288 112 -288 127.5 -272 c 128,-1,19
 143 -256 143 -256 149 -249 c 128,-1,20
 155 -242 155 -242 170 -224.5 c 128,-1,21
 185 -207 185 -207 193 -195.5 c 128,-1,22
 201 -184 201 -184 213.5 -165.5 c 128,-1,23
 226 -147 226 -147 234 -131.5 c 128,-1,24
 242 -116 242 -116 249.5 -97 c 128,-1,25
 257 -78 257 -78 262 -59 c 0,26,27
 270 -25 270 -25 256.5 -6.5 c 128,-1,28
 243 12 243 12 227 14 c 0,29,30
 226 15 226 15 218 20.5 c 128,-1,31
 210 26 210 26 204.5 30.5 c 128,-1,32
 199 35 199 35 190 44.5 c 128,-1,33
 181 54 181 54 176 65 c 128,-1,34
 171 76 171 76 166.5 91 c 128,-1,35
 162 106 162 106 163 125.5 c 128,-1,36
 164 145 164 145 169 168 c 0,0,1
EndSplineSet
Validated: 33
EndChar

StartChar: hyphen
Encoding: 45 45 10
Width: 727
GlyphClass: 2
Flags: W
LayerCount: 2
Fore
SplineSet
216 451 m 1,0,-1
 248 590 l 1,1,-1
 753 590 l 1,2,-1
 721 451 l 1,3,-1
 216 451 l 1,0,-1
EndSplineSet
Validated: 1
EndChar

StartChar: period
Encoding: 46 46 11
Width: 567
GlyphClass: 2
Flags: W
LayerCount: 2
Fore
SplineSet
157 154 m 0,0,1
 174 227 174 227 233 278.5 c 128,-1,2
 292 330 292 330 359 330 c 0,3,4
 427 330 427 330 463 279 c 128,-1,5
 499 228 499 228 482 154 c 0,6,7
 465 82 465 82 405.5 31 c 128,-1,8
 346 -20 346 -20 278 -20 c 0,9,10
 211 -20 211 -20 175.5 31 c 128,-1,11
 140 82 140 82 157 154 c 0,0,1
EndSplineSet
Validated: 33
EndChar

StartChar: slash
Encoding: 47 47 12
Width: 693
GlyphClass: 2
Flags: W
LayerCount: 2
Fore
SplineSet
-19 25 m 1,0,-1
 935 1540 l 1,1,-1
 1053 1491 l 1,2,-1
 100 -25 l 1,3,-1
 -19 25 l 1,0,-1
EndSplineSet
Validated: 1
EndChar

StartChar: zero
Encoding: 48 48 13
Width: 1224
GlyphClass: 2
Flags: W
LayerCount: 2
Fore
SplineSet
236 737 m 0,0,1
 259 836 259 836 293.5 927.5 c 128,-1,2
 328 1019 328 1019 374.5 1104.5 c 128,-1,3
 421 1190 421 1190 482.5 1260 c 128,-1,4
 544 1330 544 1330 614.5 1382.5 c 128,-1,5
 685 1435 685 1435 772.5 1464 c 128,-1,6
 860 1493 860 1493 956 1493 c 0,7,8
 1070 1493 1070 1493 1154 1451.5 c 128,-1,9
 1238 1410 1238 1410 1284 1339 c 128,-1,10
 1330 1268 1330 1268 1350.5 1170.5 c 128,-1,11
 1371 1073 1371 1073 1364.5 964.5 c 128,-1,12
 1358 856 1358 856 1330.5 737 c 128,-1,13
 1303 618 1303 618 1259.5 510 c 128,-1,14
 1216 402 1216 402 1150.5 304.5 c 128,-1,15
 1085 207 1085 207 1006.5 136 c 128,-1,16
 928 65 928 65 825 23.5 c 128,-1,17
 722 -18 722 -18 607.5 -18 c 128,-1,18
 493 -18 493 -18 410 23.5 c 128,-1,19
 327 65 327 65 281 136 c 128,-1,20
 235 207 235 207 215.5 304.5 c 128,-1,21
 196 402 196 402 202.5 510 c 128,-1,22
 209 618 209 618 236 737 c 0,0,1
501.5 737 m 128,-1,24
 481 648 481 648 468.5 575 c 128,-1,25
 456 502 456 502 449.5 427 c 128,-1,26
 443 352 443 352 451 296 c 128,-1,27
 459 240 459 240 478 195.5 c 128,-1,28
 497 151 497 151 537.5 127.5 c 128,-1,29
 578 104 578 104 635 104 c 0,30,31
 706 104 706 104 766 139 c 128,-1,32
 826 174 826 174 869 230.5 c 128,-1,33
 912 287 912 287 950 372.5 c 128,-1,34
 988 458 988 458 1013.5 543 c 128,-1,35
 1039 628 1039 628 1064 737 c 0,36,37
 1085 826 1085 826 1097 899 c 128,-1,38
 1109 972 1109 972 1115.5 1047 c 128,-1,39
 1122 1122 1122 1122 1114.5 1178 c 128,-1,40
 1107 1234 1107 1234 1087 1278.5 c 128,-1,41
 1067 1323 1067 1323 1026.5 1346.5 c 128,-1,42
 986 1370 986 1370 928 1370 c 256,43,44
 870 1370 870 1370 819 1346.5 c 128,-1,45
 768 1323 768 1323 728 1278.5 c 128,-1,46
 688 1234 688 1234 654.5 1178 c 128,-1,47
 621 1122 621 1122 592.5 1047 c 128,-1,48
 564 972 564 972 543 899 c 128,-1,23
 522 826 522 826 501.5 737 c 128,-1,24
EndSplineSet
Validated: 33
EndChar

StartChar: one
Encoding: 49 49 14
Width: 862
GlyphClass: 2
Flags: W
LayerCount: 2
Fore
SplineSet
303 1151 m 1,0,-1
 848 1481 l 1,1,-1
 929 1536 l 1,2,-1
 609 162 l 1,3,-1
 817 0 l 1,4,-1
 54 0 l 1,5,-1
 386 172 l 1,6,-1
 618 1178 l 1,7,-1
 303 1151 l 1,0,-1
EndSplineSet
Validated: 1
EndChar

StartChar: two
Encoding: 50 50 15
Width: 991
GlyphClass: 2
Flags: W
LayerCount: 2
Fore
SplineSet
-41 0 m 1,0,-1
 181 205 l 2,1,2
 434 435 434 435 503 503 c 0,3,4
 688 685 688 685 767 831 c 0,5,6
 809 909 809 909 832 993 c 0,7,8
 850 1070 850 1070 842 1131 c 128,-1,9
 834 1192 834 1192 806 1227.5 c 128,-1,10
 778 1263 778 1263 740.5 1281.5 c 128,-1,11
 703 1300 703 1300 659 1300 c 0,12,13
 544 1300 544 1300 440.5 1223 c 128,-1,14
 337 1146 337 1146 283 1010 c 1,15,16
 316 1239 316 1239 458.5 1370 c 128,-1,17
 601 1501 601 1501 800 1501 c 0,18,19
 973 1501 973 1501 1061 1380.5 c 128,-1,20
 1149 1260 1149 1260 1108 1083 c 0,21,22
 1090 1003 1090 1003 1046.5 924 c 128,-1,23
 1003 845 1003 845 952.5 782.5 c 128,-1,24
 902 720 902 720 818 641 c 128,-1,25
 734 562 734 562 667 506 c 128,-1,26
 600 450 600 450 490 359 c 128,-1,27
 380 268 380 268 308 205 c 1,28,-1
 757 205 l 1,29,-1
 1035 455 l 1,30,-1
 919 205 l 1,31,-1
 921 205 l 1,32,-1
 885 133 l 1,33,-1
 861 80 l 1,34,-1
 859 80 l 1,35,-1
 830 18 l 1,36,-1
 832 18 l 1,37,-1
 789 -74 l 1,38,-1
 744 0 l 1,39,-1
 -41 0 l 1,0,-1
EndSplineSet
Validated: 33
EndChar

StartChar: three
Encoding: 51 51 16
Width: 1071
GlyphClass: 2
Flags: W
LayerCount: 2
Fore
SplineSet
120 344 m 0,0,1
 133 402 133 402 182 443.5 c 128,-1,2
 231 485 231 485 284 485 c 128,-1,3
 337 485 337 485 367 443.5 c 128,-1,4
 397 402 397 402 384 344 c 0,5,6
 371 289 371 289 326.5 248.5 c 128,-1,7
 282 208 282 208 231 203 c 1,8,9
 248 156 248 156 298 127 c 128,-1,10
 348 98 348 98 422 98 c 0,11,12
 508 98 508 98 590.5 134 c 128,-1,13
 673 170 673 170 738.5 245.5 c 128,-1,14
 804 321 804 321 828 422 c 0,15,16
 842 484 842 484 845.5 536 c 128,-1,17
 849 588 849 588 837 638.5 c 128,-1,18
 825 689 825 689 794.5 723.5 c 128,-1,19
 764 758 764 758 705 779.5 c 128,-1,20
 646 801 646 801 562 801 c 2,21,-1
 502 801 l 1,22,-1
 523 891 l 1,23,-1
 624 891 l 1,24,-1
 696 891 l 1,25,26
 778 927 778 927 843 992.5 c 128,-1,27
 908 1058 908 1058 928 1143 c 0,28,29
 953 1251 953 1251 903.5 1311.5 c 128,-1,30
 854 1372 854 1372 767 1372 c 0,31,32
 660 1372 660 1372 561 1305 c 128,-1,33
 462 1238 462 1238 381 1126 c 1,34,35
 412 1299 412 1299 547 1405 c 128,-1,36
 682 1511 682 1511 872 1511 c 0,37,38
 1037 1511 1037 1511 1125 1424.5 c 128,-1,39
 1213 1338 1213 1338 1179 1190 c 0,40,41
 1154 1083 1154 1083 1068.5 1004.5 c 128,-1,42
 983 926 983 926 874 885 c 1,43,44
 966 866 966 866 1027.5 803 c 128,-1,45
 1089 740 1089 740 1108.5 654 c 128,-1,46
 1128 568 1128 568 1107 475 c 0,47,48
 1073 329 1073 329 976 215.5 c 128,-1,49
 879 102 879 102 742.5 41 c 128,-1,50
 606 -20 606 -20 454 -20 c 0,51,52
 222 -20 222 -20 143 162 c 0,53,54
 106 247 106 247 116 309 c 0,55,56
 115 321 115 321 120 344 c 0,0,1
EndSplineSet
Validated: 33
EndChar

StartChar: four
Encoding: 52 52 17
Width: 1121
GlyphClass: 2
Flags: W
LayerCount: 2
Fore
SplineSet
121 387 m 1,0,-1
 137 455 l 1,1,-1
 175 494 l 1,2,-1
 214 535 l 1,3,-1
 1016 1366 l 1,4,-1
 1248 1612 l 1,5,-1
 997 535 l 1,6,-1
 1188 535 l 1,7,-1
 1153 387 l 1,8,-1
 963 387 l 1,9,-1
 909 152 l 1,10,-1
 1075 0 l 1,11,-1
 352 0 l 1,12,-1
 687 176 l 1,13,-1
 736 387 l 1,14,-1
 121 387 l 1,0,-1
334 535 m 1,15,-1
 770 535 l 1,16,-1
 905 1118 l 1,17,-1
 334 535 l 1,15,-1
EndSplineSet
Validated: 1
EndChar

StartChar: five
Encoding: 53 53 18
Width: 1017
GlyphClass: 2
Flags: W
LayerCount: 2
Fore
SplineSet
120 311 m 0,0,1
 131 369 131 369 178 411 c 128,-1,2
 225 453 225 453 278 453 c 0,3,4
 330 453 330 453 359 411.5 c 128,-1,5
 388 370 388 370 378 311 c 0,6,7
 369 260 369 260 330 220.5 c 128,-1,8
 291 181 291 181 244 172 c 1,9,10
 271 136 271 136 319.5 117 c 128,-1,11
 368 98 368 98 420 98 c 0,12,13
 572 98 572 98 685 197.5 c 128,-1,14
 798 297 798 297 829 455 c 0,15,16
 843 522 843 522 833.5 577 c 128,-1,17
 824 632 824 632 797 669 c 128,-1,18
 770 706 770 706 729.5 731 c 128,-1,19
 689 756 689 756 642 767.5 c 128,-1,20
 595 779 595 779 543 780 c 0,21,22
 487 780 487 780 411.5 766.5 c 128,-1,23
 336 753 336 753 294 725 c 1,24,-1
 383 979 l 1,25,-1
 553 1470 l 1,26,-1
 573 1470 l 1,27,-1
 573 1473 l 1,28,-1
 1130 1473 l 1,29,-1
 1322 1640 l 1,30,-1
 1259 1473 l 1,31,-1
 1174 1247 l 1,32,-1
 570 1247 l 1,33,-1
 486 1006 l 1,34,35
 557 1016 557 1016 646 1016 c 0,36,37
 732 1013 732 1013 804 994 c 128,-1,38
 876 975 876 975 933.5 936.5 c 128,-1,39
 991 898 991 898 1026.5 843 c 128,-1,40
 1062 788 1062 788 1072.5 709.5 c 128,-1,41
 1083 631 1083 631 1064 535 c 0,42,43
 1013 284 1013 284 834.5 132 c 128,-1,44
 656 -20 656 -20 432 -20 c 0,45,46
 357 -20 357 -20 298.5 3 c 128,-1,47
 240 26 240 26 205 65 c 128,-1,48
 170 104 170 104 150 147 c 128,-1,49
 130 190 130 190 125 238 c 1,50,51
 112 276 112 276 120 311 c 0,0,1
EndSplineSet
Validated: 33
EndChar

StartChar: six
Encoding: 54 54 19
Width: 1064
GlyphClass: 2
Flags: W
LayerCount: 2
Fore
SplineSet
198 573 m 0,0,1
 219 663 219 663 269 762.5 c 128,-1,2
 319 862 319 862 382.5 946.5 c 128,-1,3
 446 1031 446 1031 503.5 1096 c 128,-1,4
 561 1161 561 1161 615 1210 c 0,5,6
 749 1332 749 1332 926 1425.5 c 128,-1,7
 1103 1519 1103 1519 1220 1503 c 1,8,9
 1106 1451 1106 1451 955.5 1326 c 128,-1,10
 805 1201 805 1201 715 1090 c 0,11,12
 613 965 613 965 547 825 c 1,13,14
 606 867 606 867 674.5 891 c 128,-1,15
 743 915 743 915 802 915 c 0,16,17
 999 915 999 915 1084 804 c 128,-1,18
 1169 693 1169 693 1124 498 c 0,19,20
 1088 344 1088 344 996 225 c 128,-1,21
 904 106 904 106 782.5 44 c 128,-1,22
 661 -18 661 -18 532 -18 c 0,23,24
 424 -18 424 -18 348.5 15 c 128,-1,25
 273 48 273 48 233.5 102.5 c 128,-1,26
 194 157 194 157 179 235 c 128,-1,27
 164 313 164 313 170 395 c 128,-1,28
 176 477 176 477 198 573 c 0,0,1
451 541 m 0,29,30
 440 495 440 495 433.5 462 c 128,-1,31
 427 429 427 429 419 383.5 c 128,-1,32
 411 338 411 338 410.5 305.5 c 128,-1,33
 410 273 410 273 412.5 236 c 128,-1,34
 415 199 415 199 426.5 174 c 128,-1,35
 438 149 438 149 456 127 c 128,-1,36
 474 105 474 105 504 94.5 c 128,-1,37
 534 84 534 84 574 84 c 0,38,39
 668 84 668 84 738.5 172 c 128,-1,40
 809 260 809 260 847 424 c 0,41,42
 886 592 886 592 851.5 694.5 c 128,-1,43
 817 797 817 797 710 797 c 0,44,45
 640 797 640 797 578.5 757 c 128,-1,46
 517 717 517 717 473 631 c 1,47,48
 465 602 465 602 451 541 c 0,29,30
EndSplineSet
Validated: 33
EndChar

StartChar: seven
Encoding: 55 55 20
Width: 868
GlyphClass: 2
Flags: W
LayerCount: 2
Fore
SplineSet
241 1044 m 1,0,1
 289 1212 289 1212 324 1323 c 1,2,-1
 363 1501 l 1,3,-1
 1274 1501 l 1,4,-1
 1100 1276 l 1,5,-1
 1096 1276 l 1,6,-1
 1097 1272 l 1,7,-1
 362 0 l 1,8,-1
 69 0 l 1,9,-1
 984 1276 l 1,10,-1
 424 1276 l 1,11,-1
 241 1044 l 1,0,1
EndSplineSet
Validated: 1
EndChar

StartChar: eight
Encoding: 56 56 21
Width: 1056
GlyphClass: 2
Flags: W
LayerCount: 2
Fore
SplineSet
160 352 m 0,0,1
 190 480 190 480 280.5 581 c 128,-1,2
 371 682 371 682 499 743 c 1,3,4
 412 813 412 813 376 902.5 c 128,-1,5
 340 992 340 992 372 1130 c 0,6,7
 388 1199 388 1199 436 1268.5 c 128,-1,8
 484 1338 484 1338 550 1393 c 128,-1,9
 616 1448 616 1448 701 1482 c 128,-1,10
 786 1516 786 1516 870 1516 c 0,11,12
 1052 1516 1052 1516 1141 1417.5 c 128,-1,13
 1230 1319 1230 1319 1195 1169 c 0,14,15
 1173 1072 1173 1072 1090 989 c 128,-1,16
 1007 906 1007 906 879 844 c 1,17,18
 924 810 924 810 956.5 780.5 c 128,-1,19
 989 751 989 751 1021.5 708.5 c 128,-1,20
 1054 666 1054 666 1070.5 622 c 128,-1,21
 1087 578 1087 578 1091 518.5 c 128,-1,22
 1095 459 1095 459 1079 393 c 0,23,24
 1051 272 1051 272 963.5 175.5 c 128,-1,25
 876 79 876 79 760.5 28 c 128,-1,26
 645 -23 645 -23 528 -23 c 0,27,28
 320 -23 320 -23 220.5 81 c 128,-1,29
 121 185 121 185 160 352 c 0,0,1
366 373 m 0,30,31
 337 248 337 248 382 166 c 128,-1,32
 427 84 427 84 549 84 c 0,33,34
 639 84 639 84 718 154 c 128,-1,35
 797 224 797 224 824 340 c 0,36,37
 832 375 832 375 830.5 406.5 c 128,-1,38
 829 438 829 438 823 462 c 128,-1,39
 817 486 817 486 799 511.5 c 128,-1,40
 781 537 781 537 767 552.5 c 128,-1,41
 753 568 753 568 722.5 591 c 128,-1,42
 692 614 692 614 675.5 625.5 c 128,-1,43
 659 637 659 637 621.5 660.5 c 128,-1,44
 584 684 584 684 568 694 c 1,45,46
 411 568 411 568 366 373 c 0,30,31
615 1229 m 0,47,48
 604 1183 604 1183 610 1141.5 c 128,-1,49
 616 1100 616 1100 631 1069 c 128,-1,50
 646 1038 646 1038 678 1004 c 128,-1,51
 710 970 710 970 737.5 947.5 c 128,-1,52
 765 925 765 925 810 893 c 1,53,54
 890 956 890 956 942 1024.5 c 128,-1,55
 994 1093 994 1093 1008 1155 c 0,56,57
 1019 1202 1019 1202 1016 1247.5 c 128,-1,58
 1013 1293 1013 1293 996.5 1332.5 c 128,-1,59
 980 1372 980 1372 942.5 1396.5 c 128,-1,60
 905 1421 905 1421 850 1421 c 0,61,62
 768 1421 768 1421 701 1366.5 c 128,-1,63
 634 1312 634 1312 615 1229 c 0,47,48
EndSplineSet
Validated: 33
EndChar

StartChar: nine
Encoding: 57 57 22
Width: 1064
GlyphClass: 2
Flags: W
LayerCount: 2
Fore
SplineSet
281 977 m 0,0,1
 317 1131 317 1131 409.5 1250 c 128,-1,2
 502 1369 502 1369 623.5 1431 c 128,-1,3
 745 1493 745 1493 874 1493 c 0,4,5
 982 1493 982 1493 1058 1460 c 128,-1,6
 1134 1427 1134 1427 1173 1372 c 128,-1,7
 1212 1317 1212 1317 1227 1239 c 128,-1,8
 1242 1161 1242 1161 1236.5 1079 c 128,-1,9
 1231 997 1231 997 1208 901 c 0,10,11
 1187 811 1187 811 1137 711.5 c 128,-1,12
 1087 612 1087 612 1023 527.5 c 128,-1,13
 959 443 959 443 901.5 378 c 128,-1,14
 844 313 844 313 791 264 c 0,15,16
 695 176 695 176 552.5 92 c 128,-1,17
 410 8 410 8 297 -20 c 0,18,19
 274 -25 274 -25 256 -24.5 c 128,-1,20
 238 -24 238 -24 230.5 -17 c 128,-1,21
 223 -10 223 -10 224 0 c 128,-1,22
 225 10 225 10 241.5 24.5 c 128,-1,23
 258 39 258 39 285 53 c 0,24,25
 354 88 354 88 405 118 c 128,-1,26
 456 148 456 148 526.5 201 c 128,-1,27
 597 254 597 254 651.5 313 c 128,-1,28
 706 372 706 372 764 460.5 c 128,-1,29
 822 549 822 549 866 653 c 1,30,31
 806 608 806 608 735.5 583.5 c 128,-1,32
 665 559 665 559 604 559 c 0,33,34
 407 559 407 559 321.5 670.5 c 128,-1,35
 236 782 236 782 281 977 c 0,0,1
559 1051 m 0,36,37
 520 883 520 883 555 780.5 c 128,-1,38
 590 678 590 678 697 678 c 0,39,40
 767 678 767 678 828.5 718.5 c 128,-1,41
 890 759 890 759 933 846 c 0,42,43
 936 860 936 860 944 889 c 128,-1,44
 952 918 952 918 956 934 c 0,45,46
 967 980 967 980 973.5 1013 c 128,-1,47
 980 1046 980 1046 987.5 1091.5 c 128,-1,48
 995 1137 995 1137 995.5 1169.5 c 128,-1,49
 996 1202 996 1202 994 1239 c 128,-1,50
 992 1276 992 1276 980.5 1301 c 128,-1,51
 969 1326 969 1326 951 1348 c 128,-1,52
 933 1370 933 1370 902.5 1380.5 c 128,-1,53
 872 1391 872 1391 832 1391 c 0,54,55
 738 1391 738 1391 667.5 1303 c 128,-1,56
 597 1215 597 1215 559 1051 c 0,36,37
EndSplineSet
Validated: 33
EndChar

StartChar: colon
Encoding: 58 58 23
Width: 585
GlyphClass: 2
Flags: W
LayerCount: 2
Fore
SplineSet
166 156 m 0,0,1
 183 228 183 228 242.5 280 c 128,-1,2
 302 332 302 332 369 332 c 0,3,4
 437 332 437 332 473 280 c 128,-1,5
 509 228 509 228 493 156 c 0,6,7
 476 83 476 83 416 31.5 c 128,-1,8
 356 -20 356 -20 287 -20 c 0,9,10
 220 -20 220 -20 184.5 31.5 c 128,-1,11
 149 83 149 83 166 156 c 0,0,1
320 823 m 0,12,13
 337 897 337 897 396.5 949 c 128,-1,14
 456 1001 456 1001 523 1001 c 0,15,16
 591 1001 591 1001 627.5 949 c 128,-1,17
 664 897 664 897 647 823 c 0,18,19
 630 751 630 751 570 700 c 128,-1,20
 510 649 510 649 442 649 c 0,21,22
 375 649 375 649 339 700 c 128,-1,23
 303 751 303 751 320 823 c 0,12,13
EndSplineSet
Validated: 33
EndChar

StartChar: semicolon
Encoding: 59 59 24
Width: 585
GlyphClass: 2
Flags: W
LayerCount: 2
Fore
SplineSet
169 168 m 0,0,1
 185 236 185 236 241.5 284 c 128,-1,2
 298 332 298 332 369 332 c 0,3,4
 436 332 436 332 473 269.5 c 128,-1,5
 510 207 510 207 487 106 c 0,6,7
 471 38 471 38 434.5 -28.5 c 128,-1,8
 398 -95 398 -95 358.5 -141 c 128,-1,9
 319 -187 319 -187 272.5 -229 c 128,-1,10
 226 -271 226 -271 197.5 -291.5 c 128,-1,11
 169 -312 169 -312 145 -326 c 0,12,13
 123 -335 123 -335 110 -334.5 c 128,-1,14
 97 -334 97 -334 94 -328 c 0,15,16
 90 -310 90 -310 109 -291 c 0,17,18
 112 -288 112 -288 127.5 -272 c 128,-1,19
 143 -256 143 -256 149 -249 c 128,-1,20
 155 -242 155 -242 170 -224.5 c 128,-1,21
 185 -207 185 -207 193 -195.5 c 128,-1,22
 201 -184 201 -184 213.5 -165.5 c 128,-1,23
 226 -147 226 -147 234 -131.5 c 128,-1,24
 242 -116 242 -116 249.5 -97 c 128,-1,25
 257 -78 257 -78 262 -59 c 0,26,27
 270 -25 270 -25 256.5 -6.5 c 128,-1,28
 243 12 243 12 227 14 c 0,29,30
 226 15 226 15 218 20.5 c 128,-1,31
 210 26 210 26 204.5 30.5 c 128,-1,32
 199 35 199 35 190 44.5 c 128,-1,33
 181 54 181 54 176 65 c 128,-1,34
 171 76 171 76 166.5 91 c 128,-1,35
 162 106 162 106 163 125.5 c 128,-1,36
 164 145 164 145 169 168 c 0,0,1
321 825 m 0,37,38
 338 898 338 898 397 949.5 c 128,-1,39
 456 1001 456 1001 523 1001 c 0,40,41
 592 1001 592 1001 628 949.5 c 128,-1,42
 664 898 664 898 647 825 c 0,43,44
 630 753 630 753 570 702 c 128,-1,45
 510 651 510 651 442 651 c 0,46,47
 375 651 375 651 339.5 702 c 128,-1,48
 304 753 304 753 321 825 c 0,37,38
EndSplineSet
Validated: 33
EndChar

StartChar: question
Encoding: 63 63 25
Width: 967
GlyphClass: 2
Flags: W
LayerCount: 2
Fore
SplineSet
360 1229 m 0,0,1
 370 1274 370 1274 412.5 1325 c 128,-1,2
 455 1376 455 1376 515 1419 c 128,-1,3
 575 1462 575 1462 652 1490 c 128,-1,4
 729 1518 729 1518 802 1518 c 2,5,-1
 834 1518 l 2,6,7
 888 1518 888 1518 939.5 1505.5 c 128,-1,8
 991 1493 991 1493 1038.5 1464 c 128,-1,9
 1086 1435 1086 1435 1117.5 1392.5 c 128,-1,10
 1149 1350 1149 1350 1160 1285 c 128,-1,11
 1171 1220 1171 1220 1153 1141 c 0,12,13
 1137 1072 1137 1072 1096 1005.5 c 128,-1,14
 1055 939 1055 939 993 882 c 128,-1,15
 931 825 931 825 842 785.5 c 128,-1,16
 753 746 753 746 650 735 c 1,17,-1
 523 449 l 1,18,-1
 477 449 l 1,19,-1
 534 887 l 1,20,21
 605 888 605 888 665.5 905.5 c 128,-1,22
 726 923 726 923 767 950.5 c 128,-1,23
 808 978 808 978 839.5 1015.5 c 128,-1,24
 871 1053 871 1053 888.5 1090.5 c 128,-1,25
 906 1128 906 1128 915 1169 c 0,26,27
 942 1291 942 1291 883.5 1359 c 128,-1,28
 825 1427 825 1427 715 1427 c 0,29,30
 609 1427 609 1427 557 1372 c 1,31,32
 606 1372 606 1372 636.5 1327.5 c 128,-1,33
 667 1283 667 1283 653 1219 c 0,34,35
 638 1153 638 1153 584 1107 c 128,-1,36
 530 1061 530 1061 468 1061 c 0,37,38
 404 1061 404 1061 373 1105.5 c 128,-1,39
 342 1150 342 1150 360 1229 c 0,0,1
281 137 m 128,-1,41
 296 203 296 203 350 250 c 128,-1,42
 404 297 404 297 465 297 c 128,-1,43
 526 297 526 297 559 250 c 128,-1,44
 592 203 592 203 577 137 c 128,-1,45
 562 71 562 71 507.5 25.5 c 128,-1,46
 453 -20 453 -20 391.5 -20 c 128,-1,47
 330 -20 330 -20 298 25.5 c 128,-1,40
 266 71 266 71 281 137 c 128,-1,41
EndSplineSet
Validated: 33
EndChar

StartChar: at
Encoding: 64 64 26
Width: 1556
GlyphClass: 2
Flags: W
LayerCount: 2
Fore
SplineSet
194 555 m 0,0,1
 231 717 231 717 313 859.5 c 128,-1,2
 395 1002 395 1002 503 1105.5 c 128,-1,3
 611 1209 611 1209 737.5 1284 c 128,-1,4
 864 1359 864 1359 995 1396.5 c 128,-1,5
 1126 1434 1126 1434 1249 1434 c 0,6,7
 1330 1434 1330 1434 1403.5 1415 c 128,-1,8
 1477 1396 1477 1396 1543 1351.5 c 128,-1,9
 1609 1307 1609 1307 1651 1241.5 c 128,-1,10
 1693 1176 1693 1176 1705 1075 c 128,-1,11
 1717 974 1717 974 1688 850 c 0,12,13
 1657 714 1657 714 1598.5 608 c 128,-1,14
 1540 502 1540 502 1476 441.5 c 128,-1,15
 1412 381 1412 381 1337.5 341.5 c 128,-1,16
 1263 302 1263 302 1206 289 c 128,-1,17
 1149 276 1149 276 1098 276 c 0,18,19
 1039 276 1039 276 1004 307 c 128,-1,20
 969 338 969 338 968 389 c 1,21,22
 921 334 921 334 862 307.5 c 128,-1,23
 803 281 803 281 747 281 c 0,24,25
 692 281 692 281 649.5 304.5 c 128,-1,26
 607 328 607 328 582 378.5 c 128,-1,27
 557 429 557 429 564 508 c 128,-1,28
 571 587 571 587 614 698 c 0,29,30
 686 878 686 878 841.5 1005.5 c 128,-1,31
 997 1133 997 1133 1159 1133 c 0,32,33
 1248 1133 1248 1133 1279 1059 c 1,34,-1
 1419 1104 l 1,35,-1
 1192 571 l 1,36,-1
 1193 571 l 2,37,38
 1191 569 1191 569 1190 565 c 2,39,-1
 1170 520 l 1,40,-1
 1168 520 l 1,41,42
 1167 516 1167 516 1164 508 c 128,-1,43
 1161 500 1161 500 1160 496 c 0,44,45
 1112 369 1112 369 1187 369 c 0,46,47
 1214 369 1214 369 1244.5 383 c 128,-1,48
 1275 397 1275 397 1311.5 431.5 c 128,-1,49
 1348 466 1348 466 1382 516.5 c 128,-1,50
 1416 567 1416 567 1448.5 647.5 c 128,-1,51
 1481 728 1481 728 1504 827 c 0,52,53
 1531 944 1531 944 1520 1044 c 128,-1,54
 1509 1144 1509 1144 1467.5 1210 c 128,-1,55
 1426 1276 1426 1276 1361 1313.5 c 128,-1,56
 1296 1351 1296 1351 1217 1352 c 0,57,58
 1169 1352 1169 1352 1113.5 1343 c 128,-1,59
 1058 1334 1058 1334 989 1310 c 128,-1,60
 920 1286 920 1286 853 1249.5 c 128,-1,61
 786 1213 786 1213 716.5 1152 c 128,-1,62
 647 1091 647 1091 588 1014.5 c 128,-1,63
 529 938 529 938 479.5 828.5 c 128,-1,64
 430 719 430 719 400 590 c 0,65,66
 382 514 382 514 384.5 438.5 c 128,-1,67
 387 363 387 363 412.5 292.5 c 128,-1,68
 438 222 438 222 483.5 168 c 128,-1,69
 529 114 529 114 604 81.5 c 128,-1,70
 679 49 679 49 775 49 c 0,71,72
 856 49 856 49 978 78.5 c 128,-1,73
 1100 108 1100 108 1169 143 c 1,74,-1
 1178 86 l 1,75,76
 945 -35 945 -35 643 -35 c 0,77,78
 504 -35 504 -35 402 15.5 c 128,-1,79
 300 66 300 66 248.5 150 c 128,-1,80
 197 234 197 234 182.5 338.5 c 128,-1,81
 168 443 168 443 194 555 c 0,0,1
811 709 m 1,82,83
 755 553 755 553 783.5 479.5 c 128,-1,84
 812 406 812 406 881 406 c 0,85,86
 936 406 936 406 972 432 c 1,87,-1
 973 436 l 2,88,89
 979 461 979 461 999 518 c 128,-1,90
 1019 575 1019 575 1032 604 c 2,91,-1
 1173 930 l 1,92,93
 1176 984 1176 984 1161.5 1013 c 128,-1,94
 1147 1042 1147 1042 1123 1042 c 0,95,96
 1039 1042 1039 1042 952.5 942 c 128,-1,97
 866 842 866 842 811 709 c 1,82,83
EndSplineSet
Validated: 33
EndChar

StartChar: A
Encoding: 65 65 27
Width: 1423
GlyphClass: 2
Flags: W
LayerCount: 2
Fore
SplineSet
-30 0 m 1,0,-1
 168 166 l 1,1,-1
 990 1489 l 1,2,-1
 1091 1489 l 1,3,-1
 1276 131 l 1,4,-1
 1387 0 l 1,5,-1
 753 0 l 1,6,-1
 974 154 l 1,7,-1
 941 428 l 1,8,-1
 469 428 l 1,9,-1
 291 135 l 1,10,-1
 424 0 l 1,11,-1
 -30 0 l 1,0,-1
539 545 m 1,12,-1
 928 545 l 1,13,-1
 865 1079 l 1,14,-1
 539 545 l 1,12,-1
EndSplineSet
Validated: 1
EndChar

StartChar: B
Encoding: 66 66 28
Width: 1378
GlyphClass: 2
Flags: W
LayerCount: 2
Fore
SplineSet
46 0 m 1,0,-1
 282 164 l 1,1,-1
 546 1305 l 1,2,-1
 386 1470 l 1,3,-1
 733 1470 l 2,4,5
 955 1473 955 1473 1157 1473 c 0,6,7
 1338 1473 1338 1473 1422 1375 c 128,-1,8
 1506 1277 1506 1277 1471 1128 c 0,9,10
 1441 1000 1441 1000 1351.5 910 c 128,-1,11
 1262 820 1262 820 1076 762 c 1,12,13
 1158 755 1158 755 1220.5 729 c 128,-1,14
 1283 703 1283 703 1326 657.5 c 128,-1,15
 1369 612 1369 612 1382 541.5 c 128,-1,16
 1395 471 1395 471 1374 381 c 0,17,18
 1356 305 1356 305 1313 238 c 128,-1,19
 1270 171 1270 171 1203.5 117 c 128,-1,20
 1137 63 1137 63 1041 31.5 c 128,-1,21
 945 0 945 0 833 0 c 2,22,-1
 46 0 l 1,0,-1
535 104 m 1,23,-1
 714 104 l 2,24,25
 777 106 777 106 836 123.5 c 128,-1,26
 895 141 895 141 947 174.5 c 128,-1,27
 999 208 999 208 1037.5 264 c 128,-1,28
 1076 320 1076 320 1093 391 c 0,29,30
 1127 540 1127 540 1043 620 c 128,-1,31
 959 700 959 700 772 700 c 2,32,-1
 673 700 l 1,33,-1
 535 104 l 1,23,-1
697 805 m 1,34,35
 750 805 750 805 786 806.5 c 128,-1,36
 822 808 822 808 870.5 813.5 c 128,-1,37
 919 819 919 819 953 830 c 128,-1,38
 987 841 987 841 1025.5 861 c 128,-1,39
 1064 881 1064 881 1090.5 909.5 c 128,-1,40
 1117 938 1117 938 1139.5 980.5 c 128,-1,41
 1162 1023 1162 1023 1175 1077 c 0,42,43
 1195 1164 1195 1164 1180.5 1231 c 128,-1,44
 1166 1298 1166 1298 1118 1327 c 0,45,46
 1089 1346 1089 1346 1042 1355 c 128,-1,47
 995 1364 995 1364 963 1365 c 128,-1,48
 931 1366 931 1366 849 1366 c 2,49,-1
 827 1366 l 1,50,-1
 697 805 l 1,34,35
EndSplineSet
Validated: 33
EndChar

StartChar: C
Encoding: 67 67 29
Width: 1420
GlyphClass: 2
Flags: W
LayerCount: 2
Fore
SplineSet
252 690 m 0,0,1
 340 1072 340 1072 579 1287.5 c 128,-1,2
 818 1503 818 1503 1135 1503 c 0,3,4
 1209 1503 1209 1503 1285.5 1466.5 c 128,-1,5
 1362 1430 1362 1430 1415 1362 c 1,6,-1
 1643 1522 l 1,7,-1
 1489 856 l 1,8,9
 1478 888 1478 888 1460 937.5 c 128,-1,10
 1442 987 1442 987 1431.5 1016.5 c 128,-1,11
 1421 1046 1421 1046 1405 1088 c 128,-1,12
 1389 1130 1389 1130 1376 1155 c 128,-1,13
 1363 1180 1363 1180 1344.5 1213 c 128,-1,14
 1326 1246 1326 1246 1308.5 1265 c 128,-1,15
 1291 1284 1291 1284 1267.5 1305 c 128,-1,16
 1244 1326 1244 1326 1219 1337 c 128,-1,17
 1194 1348 1194 1348 1162 1355 c 128,-1,18
 1130 1362 1130 1362 1094 1362 c 0,19,20
 981 1362 981 1362 874.5 1283.5 c 128,-1,21
 768 1205 768 1205 687.5 1066.5 c 128,-1,22
 607 928 607 928 566 754 c 0,23,24
 535 619 535 619 531.5 502.5 c 128,-1,25
 528 386 528 386 553 294.5 c 128,-1,26
 578 203 578 203 642.5 150.5 c 128,-1,27
 707 98 707 98 806 98 c 0,28,29
 870 98 870 98 937 126 c 128,-1,30
 1004 154 1004 154 1056.5 194 c 128,-1,31
 1109 234 1109 234 1169 294.5 c 128,-1,32
 1229 355 1229 355 1268 403 c 128,-1,33
 1307 451 1307 451 1357.5 514 c 128,-1,34
 1408 577 1408 577 1431 604 c 1,35,-1
 1278 -61 l 1,36,-1
 1116 106 l 1,37,38
 942 -37 942 -37 732 -37 c 0,39,40
 539 -37 539 -37 412.5 58.5 c 128,-1,41
 286 154 286 154 245 318.5 c 128,-1,42
 204 483 204 483 252 690 c 0,0,1
EndSplineSet
Validated: 33
EndChar

StartChar: D
Encoding: 68 68 30
Width: 1531
GlyphClass: 2
Flags: W
LayerCount: 2
Fore
SplineSet
46 0 m 1,0,-1
 282 164 l 1,1,-1
 546 1305 l 1,2,-1
 386 1470 l 1,3,-1
 1036 1470 l 2,4,5
 1152 1470 1152 1470 1252.5 1444 c 128,-1,6
 1353 1418 1353 1418 1435.5 1360 c 128,-1,7
 1518 1302 1518 1302 1568 1217.5 c 128,-1,8
 1618 1133 1618 1133 1630 1008 c 128,-1,9
 1642 883 1642 883 1607 731 c 0,10,11
 1578 607 1578 607 1524 497.5 c 128,-1,12
 1470 388 1470 388 1387 296 c 128,-1,13
 1304 204 1304 204 1200 137.5 c 128,-1,14
 1096 71 1096 71 962.5 33.5 c 128,-1,15
 829 -4 829 -4 680 -4 c 2,16,-1
 350 0 l 1,17,-1
 46 0 l 1,0,-1
537 113 m 1,18,-1
 705 113 l 2,19,20
 933 113 933 113 1083.5 271.5 c 128,-1,21
 1234 430 1234 430 1299 711 c 0,22,23
 1331 851 1331 851 1328 966.5 c 128,-1,24
 1325 1082 1325 1082 1286 1170 c 128,-1,25
 1247 1258 1247 1258 1162.5 1307 c 128,-1,26
 1078 1356 1078 1356 954 1356 c 2,27,-1
 824 1356 l 1,28,-1
 537 113 l 1,18,-1
EndSplineSet
Validated: 33
EndChar

StartChar: E
Encoding: 69 69 31
Width: 1350
GlyphClass: 2
Flags: W
LayerCount: 2
Fore
SplineSet
46 0 m 1,0,-1
 282 164 l 1,1,-1
 546 1305 l 1,2,-1
 386 1470 l 1,3,-1
 1550 1470 l 1,4,-1
 1460 920 l 1,5,-1
 1241 1354 l 1,6,-1
 824 1354 l 1,7,-1
 699 813 l 1,8,-1
 945 813 l 1,9,-1
 1190 1100 l 1,10,-1
 1029 401 l 1,11,-1
 916 688 l 1,12,-1
 670 688 l 1,13,-1
 541 127 l 1,14,-1
 1037 127 l 1,15,-1
 1450 592 l 1,16,-1
 1237 0 l 1,17,-1
 46 0 l 1,0,-1
EndSplineSet
Validated: 1
EndChar

StartChar: F
Encoding: 70 70 32
Width: 1210
GlyphClass: 2
Flags: W
LayerCount: 2
Fore
SplineSet
46 0 m 1,0,-1
 282 164 l 1,1,-1
 546 1305 l 1,2,-1
 386 1470 l 1,3,-1
 1550 1470 l 1,4,-1
 1460 920 l 1,5,-1
 1241 1354 l 1,6,-1
 824 1354 l 1,7,-1
 694 793 l 1,8,-1
 940 793 l 1,9,-1
 1186 1079 l 1,10,-1
 1024 381 l 1,11,-1
 911 668 l 1,12,-1
 666 668 l 1,13,-1
 551 172 l 1,14,-1
 719 0 l 1,15,-1
 46 0 l 1,0,-1
EndSplineSet
Validated: 1
EndChar

StartChar: G
Encoding: 71 71 33
Width: 1608
GlyphClass: 2
Flags: W
LayerCount: 2
Fore
SplineSet
252 690 m 0,0,1
 296 881 296 881 384.5 1034.5 c 128,-1,2
 473 1188 473 1188 592.5 1290.5 c 128,-1,3
 712 1393 712 1393 860.5 1448 c 128,-1,4
 1009 1503 1009 1503 1174 1503 c 0,5,6
 1249 1503 1249 1503 1330 1466 c 128,-1,7
 1411 1429 1411 1429 1470 1360 c 1,8,-1
 1700 1522 l 1,9,-1
 1546 856 l 1,10,11
 1470 1060 1470 1060 1447 1112 c 0,12,13
 1373 1273 1373 1273 1278 1326 c 0,14,15
 1216 1362 1216 1362 1132 1362 c 0,16,17
 1008 1362 1008 1362 892.5 1283.5 c 128,-1,18
 777 1205 777 1205 692 1066.5 c 128,-1,19
 607 928 607 928 566 754 c 0,20,21
 541 645 541 645 532.5 550 c 128,-1,22
 524 455 524 455 536 371 c 128,-1,23
 548 287 548 287 580.5 227 c 128,-1,24
 613 167 613 167 675 132.5 c 128,-1,25
 737 98 737 98 824 98 c 0,26,27
 963 98 963 98 1052.5 168 c 128,-1,28
 1142 238 1142 238 1178 373 c 1,29,-1
 1220 555 l 1,30,-1
 1068 700 l 1,31,-1
 1742 700 l 1,32,-1
 1501 537 l 1,33,-1
 1362 -66 l 1,34,-1
 1220 139 l 1,35,36
 1026 -37 1026 -37 746 -37 c 0,37,38
 542 -37 542 -37 412.5 59 c 128,-1,39
 283 155 283 155 243.5 318.5 c 128,-1,40
 204 482 204 482 252 690 c 0,0,1
1064 700 m 1,41,-1
 1066 705 l 1,42,-1
 1068 700 l 1,43,-1
 1064 700 l 1,41,-1
EndSplineSet
Validated: 37
EndChar

StartChar: H
Encoding: 72 72 34
Width: 1610
GlyphClass: 2
Flags: W
LayerCount: 2
Fore
SplineSet
46 0 m 1,0,-1
 282 164 l 1,1,-1
 546 1305 l 1,2,-1
 386 1470 l 1,3,-1
 1058 1470 l 1,4,-1
 811 1296 l 1,5,-1
 697 803 l 1,6,-1
 1276 803 l 1,7,-1
 1392 1305 l 1,8,-1
 1232 1470 l 1,9,-1
 1904 1470 l 1,10,-1
 1656 1296 l 1,11,-1
 1396 172 l 1,12,-1
 1564 0 l 1,13,-1
 893 0 l 1,14,-1
 1129 164 l 1,15,-1
 1249 686 l 1,16,-1
 670 686 l 1,17,-1
 551 172 l 1,18,-1
 719 0 l 1,19,-1
 46 0 l 1,0,-1
EndSplineSet
Validated: 1
EndChar

StartChar: I
Encoding: 73 73 35
Width: 765
GlyphClass: 2
Flags: W
LayerCount: 2
Fore
SplineSet
46 0 m 1,0,-1
 282 164 l 1,1,-1
 546 1305 l 1,2,-1
 386 1470 l 1,3,-1
 1058 1470 l 1,4,-1
 811 1296 l 1,5,-1
 551 172 l 1,6,-1
 719 0 l 1,7,-1
 46 0 l 1,0,-1
EndSplineSet
Validated: 1
EndChar

StartChar: J
Encoding: 74 74 36
Width: 718
GlyphClass: 2
Flags: W
LayerCount: 2
Fore
SplineSet
369 1470 m 1,0,-1
 1042 1470 l 1,1,-1
 793 1296 l 1,2,-1
 519 109 l 2,3,4
 489 -22 489 -22 436.5 -124.5 c 128,-1,5
 384 -227 384 -227 325 -288.5 c 128,-1,6
 266 -350 266 -350 196.5 -389.5 c 128,-1,7
 127 -429 127 -429 67.5 -444 c 128,-1,8
 8 -459 8 -459 -52 -459 c 1,9,10
 -39 -446 -39 -446 -10.5 -418.5 c 128,-1,11
 18 -391 18 -391 31.5 -377.5 c 128,-1,12
 45 -364 45 -364 69 -336 c 128,-1,13
 93 -308 93 -308 107 -285 c 128,-1,14
 121 -262 121 -262 142 -224 c 128,-1,15
 163 -186 163 -186 178.5 -145 c 128,-1,16
 194 -104 194 -104 211.5 -47.5 c 128,-1,17
 229 9 229 9 246 76 c 2,18,-1
 529 1305 l 1,19,-1
 369 1470 l 1,0,-1
EndSplineSet
Validated: 1
EndChar

StartChar: K
Encoding: 75 75 37
Width: 1414
GlyphClass: 2
Flags: W
LayerCount: 2
Fore
SplineSet
46 0 m 1,0,-1
 282 164 l 1,1,-1
 546 1305 l 1,2,-1
 386 1470 l 1,3,-1
 1058 1470 l 1,4,-1
 811 1296 l 1,5,-1
 680 729 l 1,6,-1
 1329 1307 l 1,7,-1
 1268 1473 l 1,8,-1
 1764 1473 l 1,9,-1
 1403 1239 l 1,10,-1
 1029 911 l 1,11,-1
 1446 -94 l 1,12,13
 1368 -94 1368 -94 1284.5 -47.5 c 128,-1,14
 1201 -1 1201 -1 1130 75 c 128,-1,15
 1059 151 1059 151 1000.5 235 c 128,-1,16
 942 319 942 319 897 408 c 2,17,-1
 758 674 l 1,18,-1
 644 575 l 1,19,-1
 551 172 l 1,20,-1
 719 0 l 1,21,-1
 46 0 l 1,0,-1
EndSplineSet
Validated: 1
EndChar

StartChar: L
Encoding: 76 76 38
Width: 1371
GlyphClass: 2
Flags: W
LayerCount: 2
Fore
SplineSet
46 0 m 1,0,-1
 282 164 l 1,1,-1
 546 1305 l 1,2,-1
 386 1470 l 1,3,-1
 1056 1470 l 1,4,-1
 811 1298 l 1,5,-1
 541 127 l 1,6,-1
 1006 127 l 1,7,-1
 1420 580 l 1,8,-1
 1241 0 l 1,9,-1
 46 0 l 1,0,-1
EndSplineSet
Validated: 1
EndChar

StartChar: M
Encoding: 77 77 39
Width: 1950
GlyphClass: 2
Flags: W
LayerCount: 2
Fore
SplineSet
28 0 m 1,0,-1
 260 162 l 1,1,-1
 523 1300 l 1,2,-1
 369 1470 l 1,3,-1
 826 1470 l 1,4,-1
 1054 426 l 1,5,-1
 1769 1470 l 1,6,-1
 2240 1470 l 1,7,-1
 1995 1294 l 1,8,-1
 1736 172 l 1,9,-1
 1904 0 l 1,10,-1
 1232 0 l 1,11,-1
 1468 164 l 1,12,-1
 1708 1204 l 1,13,-1
 1055 240 l 1,14,-1
 979 125 l 1,15,-1
 875 -25 l 1,16,-1
 612 1174 l 1,17,-1
 379 166 l 1,18,-1
 539 0 l 1,19,-1
 28 0 l 1,0,-1
EndSplineSet
Validated: 1
EndChar

StartChar: N
Encoding: 78 78 40
Width: 1550
GlyphClass: 2
Flags: W
LayerCount: 2
Fore
SplineSet
368 1470 m 1,0,-1
 706 1470 l 1,1,-1
 1330 557 l 1,2,-1
 1504 1313 l 1,3,-1
 1352 1470 l 1,4,-1
 1862 1470 l 1,5,-1
 1631 1309 l 1,6,-1
 1322 -31 l 1,7,-1
 593 1044 l 1,8,-1
 388 158 l 1,9,-1
 541 0 l 1,10,-1
 30 0 l 1,11,-1
 262 162 l 1,12,-1
 519 1276 l 1,13,-1
 368 1470 l 1,0,-1
EndSplineSet
Validated: 1
EndChar

StartChar: O
Encoding: 79 79 41
Width: 1540
GlyphClass: 2
Flags: W
LayerCount: 2
Fore
SplineSet
252 731 m 0,0,1
 332 1079 332 1079 572 1296 c 128,-1,2
 812 1513 812 1513 1118 1513 c 0,3,4
 1277 1513 1277 1513 1394 1453 c 128,-1,5
 1511 1393 1511 1393 1572 1288 c 0,6,7
 1634 1184 1634 1184 1649 1042 c 0,8,9
 1664 898 1664 898 1624 731 c 0,10,11
 1542 378 1542 378 1309 169 c 0,12,13
 1075 -41 1075 -41 758 -47 c 1,14,15
 445 -42 445 -42 307.5 166.5 c 128,-1,16
 170 375 170 375 252 731 c 0,0,1
552 733 m 0,17,18
 528 629 528 629 519.5 536 c 128,-1,19
 511 443 511 443 520 357 c 128,-1,20
 529 271 529 271 558.5 209.5 c 128,-1,21
 588 148 588 148 645.5 111 c 128,-1,22
 703 74 703 74 786 74 c 0,23,24
 868 74 868 74 943 111 c 128,-1,25
 1018 148 1018 148 1076 210 c 128,-1,26
 1134 272 1134 272 1183 357.5 c 128,-1,27
 1232 443 1232 443 1266.5 536.5 c 128,-1,28
 1301 630 1301 630 1325 733 c 0,29,30
 1355 862 1355 862 1360 976 c 128,-1,31
 1365 1090 1365 1090 1342.5 1185 c 128,-1,32
 1320 1280 1320 1280 1256 1336 c 128,-1,33
 1192 1392 1192 1392 1091 1393 c 0,34,35
 1089 1393 1089 1393 1086 1393 c 0,36,37
 1007 1393 1007 1393 935 1357 c 0,38,39
 860 1320 860 1320 802 1257.5 c 128,-1,40
 744 1195 744 1195 694.5 1109 c 128,-1,41
 645 1023 645 1023 610.5 929.5 c 128,-1,42
 576 836 576 836 552 733 c 0,17,18
EndSplineSet
Validated: 33
EndChar

StartChar: P
Encoding: 80 80 42
Width: 1242
GlyphClass: 2
Flags: W
LayerCount: 2
Fore
SplineSet
46 0 m 1,0,-1
 282 164 l 1,1,-1
 546 1305 l 1,2,-1
 386 1470 l 1,3,-1
 733 1470 l 2,4,5
 946 1473 946 1473 1118 1473 c 0,6,7
 1220 1473 1220 1473 1299 1439.5 c 128,-1,8
 1378 1406 1378 1406 1422 1350 c 128,-1,9
 1466 1294 1466 1294 1480 1220.5 c 128,-1,10
 1494 1147 1494 1147 1476 1067 c 0,11,12
 1455 974 1455 974 1401.5 890 c 128,-1,13
 1348 806 1348 806 1272.5 741.5 c 128,-1,14
 1197 677 1197 677 1093.5 638.5 c 128,-1,15
 990 600 990 600 877 600 c 0,16,17
 711 600 711 600 652 608 c 1,18,-1
 551 172 l 1,19,-1
 719 0 l 1,20,-1
 46 0 l 1,0,-1
673 702 m 1,21,22
 718 702 718 702 745 702 c 128,-1,23
 772 702 772 702 814.5 706 c 128,-1,24
 857 710 857 710 884.5 716 c 128,-1,25
 912 722 912 722 949 733.5 c 128,-1,26
 986 745 986 745 1011 761.5 c 128,-1,27
 1036 778 1036 778 1065 803.5 c 128,-1,28
 1094 829 1094 829 1114.5 861.5 c 128,-1,29
 1135 894 1135 894 1153.5 938 c 128,-1,30
 1172 982 1172 982 1185 1036 c 0,31,32
 1208 1137 1208 1137 1196 1214.5 c 128,-1,33
 1184 1292 1184 1292 1138 1327 c 0,34,35
 1109 1346 1109 1346 1061.5 1355 c 128,-1,36
 1014 1364 1014 1364 982 1365 c 128,-1,37
 950 1366 950 1366 869 1366 c 2,38,-1
 827 1366 l 1,39,-1
 673 702 l 1,21,22
EndSplineSet
Validated: 33
EndChar

StartChar: Q
Encoding: 81 81 43
Width: 1577
GlyphClass: 2
Flags: W
LayerCount: 2
Fore
SplineSet
262 731 m 0,0,1
 315 960 315 960 443 1138 c 128,-1,2
 571 1316 571 1316 752 1414.5 c 128,-1,3
 933 1513 933 1513 1138 1513 c 0,4,5
 1299 1513 1299 1513 1416.5 1453 c 128,-1,6
 1534 1393 1534 1393 1597 1288 c 128,-1,7
 1660 1183 1660 1183 1675 1041.5 c 128,-1,8
 1690 900 1690 900 1653 735 c 0,9,10
 1600 506 1600 506 1480.5 335 c 128,-1,11
 1361 164 1361 164 1191 66 c 1,12,-1
 1290 -467 l 1,13,14
 1238 -453 1238 -453 1195 -429 c 128,-1,15
 1152 -405 1152 -405 1121 -379 c 128,-1,16
 1090 -353 1090 -353 1056 -309.5 c 128,-1,17
 1022 -266 1022 -266 999.5 -232 c 128,-1,18
 977 -198 977 -198 939 -139 c 128,-1,19
 901 -80 901 -80 872 -39 c 1,20,21
 838 -43 838 -43 778 -47 c 1,22,23
 461 -42 461 -42 320.5 166.5 c 128,-1,24
 180 375 180 375 262 731 c 0,0,1
561.5 733 m 128,-1,26
 538 630 538 630 529.5 536 c 128,-1,27
 521 442 521 442 531.5 357 c 128,-1,28
 542 272 542 272 573 209.5 c 128,-1,29
 604 147 604 147 663 110.5 c 128,-1,30
 722 74 722 74 806 74 c 0,31,32
 889 74 889 74 964.5 111 c 128,-1,33
 1040 148 1040 148 1099.5 210.5 c 128,-1,34
 1159 273 1159 273 1209.5 358 c 128,-1,35
 1260 443 1260 443 1295 536.5 c 128,-1,36
 1330 630 1330 630 1354 733 c 0,37,38
 1384 862 1384 862 1388 976 c 128,-1,39
 1392 1090 1392 1090 1368 1185 c 128,-1,40
 1344 1280 1344 1280 1278.5 1336 c 128,-1,41
 1213 1392 1213 1392 1110 1393 c 0,42,43
 1108 1393 1108 1393 1105 1393 c 0,44,45
 1025 1393 1025 1393 951 1357 c 0,46,47
 875 1320 875 1320 816 1257.5 c 128,-1,48
 757 1195 757 1195 706 1109 c 128,-1,49
 655 1023 655 1023 620 929.5 c 128,-1,25
 585 836 585 836 561.5 733 c 128,-1,26
EndSplineSet
Validated: 33
EndChar

StartChar: R
Encoding: 82 82 44
Width: 1406
GlyphClass: 2
Flags: W
LayerCount: 2
Fore
SplineSet
46 0 m 1,0,-1
 282 164 l 1,1,-1
 546 1305 l 1,2,-1
 386 1470 l 1,3,-1
 733 1470 l 2,4,5
 985 1473 985 1473 1186 1473 c 0,6,7
 1365 1473 1365 1473 1448 1366 c 128,-1,8
 1531 1259 1531 1259 1496 1108 c 0,9,10
 1481 1042 1481 1042 1452 986.5 c 128,-1,11
 1423 931 1423 931 1372.5 877.5 c 128,-1,12
 1322 824 1322 824 1241.5 781 c 128,-1,13
 1161 738 1161 738 1054 709 c 1,14,-1
 1413 -94 l 1,15,16
 1335 -94 1335 -94 1257.5 -49.5 c 128,-1,17
 1180 -5 1180 -5 1120 61 c 128,-1,18
 1060 127 1060 127 996.5 218.5 c 128,-1,19
 933 310 933 310 888 390 c 128,-1,20
 843 470 843 470 791.5 559 c 128,-1,21
 740 648 740 648 708 694 c 1,22,-1
 672 694 l 1,23,-1
 551 172 l 1,24,-1
 719 0 l 1,25,-1
 46 0 l 1,0,-1
692 784 m 1,26,27
 753 784 753 784 785.5 784.5 c 128,-1,28
 818 785 818 785 874.5 790.5 c 128,-1,29
 931 796 931 796 964 807 c 128,-1,30
 997 818 997 818 1041.5 839 c 128,-1,31
 1086 860 1086 860 1113 890.5 c 128,-1,32
 1140 921 1140 921 1165.5 968.5 c 128,-1,33
 1191 1016 1191 1016 1206 1077 c 0,34,35
 1226 1164 1226 1164 1211.5 1231 c 128,-1,36
 1197 1298 1197 1298 1149 1327 c 0,37,38
 1120 1346 1120 1346 1072.5 1355 c 128,-1,39
 1025 1364 1025 1364 993.5 1365 c 128,-1,40
 962 1366 962 1366 880 1366 c 2,41,-1
 827 1366 l 1,42,-1
 692 784 l 1,26,27
EndSplineSet
Validated: 33
EndChar

StartChar: S
Encoding: 83 83 45
Width: 1211
GlyphClass: 2
Flags: W
LayerCount: 2
Fore
SplineSet
399 1081 m 0,0,1
 419 1167 419 1167 460 1237.5 c 128,-1,2
 501 1308 501 1308 556 1356.5 c 128,-1,3
 611 1405 611 1405 679 1438 c 128,-1,4
 747 1471 747 1471 820.5 1486 c 128,-1,5
 894 1501 894 1501 972 1501 c 0,6,7
 1036 1501 1036 1501 1103 1473 c 128,-1,8
 1170 1445 1170 1445 1220 1403 c 1,9,-1
 1396 1518 l 1,10,-1
 1231 819 l 1,11,12
 1213 925 1213 925 1202.5 981.5 c 128,-1,13
 1192 1038 1192 1038 1176 1110.5 c 128,-1,14
 1160 1183 1160 1183 1145 1218 c 128,-1,15
 1130 1253 1130 1253 1106.5 1293.5 c 128,-1,16
 1083 1334 1083 1334 1055.5 1351 c 128,-1,17
 1028 1368 1028 1368 990.5 1379.5 c 128,-1,18
 953 1391 953 1391 905 1391 c 0,19,20
 819 1391 819 1391 740 1325.5 c 128,-1,21
 661 1260 661 1260 640 1171 c 0,22,23
 634 1145 634 1145 633.5 1122.5 c 128,-1,24
 633 1100 633 1100 635 1081.5 c 128,-1,25
 637 1063 637 1063 647 1045.5 c 128,-1,26
 657 1028 657 1028 666 1015 c 128,-1,27
 675 1002 675 1002 695 986.5 c 128,-1,28
 715 971 715 971 730 960.5 c 128,-1,29
 745 950 745 950 774 934.5 c 128,-1,30
 803 919 803 919 823.5 908.5 c 128,-1,31
 844 898 844 898 881 879.5 c 128,-1,32
 918 861 918 861 943 848 c 0,33,34
 990 820 990 820 1022 795.5 c 128,-1,35
 1054 771 1054 771 1090.5 730 c 128,-1,36
 1127 689 1127 689 1145 644.5 c 128,-1,37
 1163 600 1163 600 1167.5 535.5 c 128,-1,38
 1172 471 1172 471 1155 395 c 0,39,40
 1115 220 1115 220 968.5 104 c 128,-1,41
 822 -12 822 -12 617 -12 c 0,42,43
 433 -12 433 -12 324 90 c 1,44,-1
 148 -23 l 1,45,-1
 314 672 l 1,46,47
 353 385 353 385 423.5 243.5 c 128,-1,48
 494 102 494 102 624 102 c 0,49,50
 728 102 728 102 805 158.5 c 128,-1,51
 882 215 882 215 909 328 c 0,52,53
 918 367 918 367 913.5 402 c 128,-1,54
 909 437 909 437 890 465.5 c 128,-1,55
 871 494 871 494 850.5 516 c 128,-1,56
 830 538 830 538 794 560 c 128,-1,57
 758 582 758 582 733.5 595.5 c 128,-1,58
 709 609 709 609 668.5 628.5 c 128,-1,59
 628 648 628 648 612 657 c 0,60,61
 338 817 338 817 399 1081 c 0,0,1
EndSplineSet
Validated: 33
EndChar

StartChar: T
Encoding: 84 84 46
Width: 1336
GlyphClass: 2
Flags: W
LayerCount: 2
Fore
SplineSet
197 924 m 1,0,-1
 362 1475 l 1,1,-1
 1622 1475 l 1,2,-1
 1533 924 l 1,3,-1
 1314 1358 l 1,4,-1
 1097 1358 l 1,5,-1
 823 172 l 1,6,-1
 991 0 l 1,7,-1
 318 0 l 1,8,-1
 554 164 l 1,9,-1
 830 1358 l 1,10,-1
 617 1358 l 1,11,-1
 197 924 l 1,0,-1
EndSplineSet
Validated: 1
EndChar

StartChar: U
Encoding: 85 85 47
Width: 1531
GlyphClass: 2
Flags: W
LayerCount: 2
Fore
SplineSet
358 1470 m 1,0,-1
 1030 1470 l 1,1,-1
 806 1313 l 1,2,-1
 628 543 l 2,3,4
 610 466 610 466 604.5 404.5 c 128,-1,5
 599 343 599 343 609 285.5 c 128,-1,6
 619 228 619 228 647 190 c 128,-1,7
 675 152 675 152 731 129 c 128,-1,8
 787 106 787 106 868 106 c 0,9,10
 952 106 952 106 1022 136 c 128,-1,11
 1092 166 1092 166 1153.5 230 c 128,-1,12
 1215 294 1215 294 1264 400.5 c 128,-1,13
 1313 507 1313 507 1347 655 c 2,14,-1
 1497 1315 l 1,15,-1
 1348 1470 l 1,16,-1
 1859 1470 l 1,17,-1
 1639 1317 l 1,18,-1
 1482 635 l 2,19,20
 1457 526 1457 526 1421 432.5 c 128,-1,21
 1385 339 1385 339 1326 247 c 128,-1,22
 1267 155 1267 155 1192 90.5 c 128,-1,23
 1117 26 1117 26 1009.5 -13.5 c 128,-1,24
 902 -53 902 -53 774 -53 c 0,25,26
 644 -53 644 -53 552 -21.5 c 128,-1,27
 460 10 460 10 408.5 64.5 c 128,-1,28
 357 119 357 119 335.5 201 c 128,-1,29
 314 283 314 283 319.5 376.5 c 128,-1,30
 325 470 325 470 352 586 c 2,31,-1
 518 1305 l 1,32,-1
 358 1470 l 1,0,-1
EndSplineSet
Validated: 33
EndChar

StartChar: V
Encoding: 86 86 48
Width: 1574
GlyphClass: 2
Flags: W
LayerCount: 2
Fore
SplineSet
339 1470 m 1,0,-1
 1012 1470 l 1,1,-1
 810 1329 l 1,2,-1
 962 387 l 1,3,-1
 1540 1327 l 1,4,-1
 1404 1470 l 1,5,-1
 1915 1470 l 1,6,-1
 1644 1282 l 1,7,-1
 893 88 l 1,8,-1
 867 43 l 1,9,-1
 773 -106 l 1,10,-1
 498 1307 l 1,11,-1
 339 1470 l 1,0,-1
EndSplineSet
Validated: 1
EndChar

StartChar: W
Encoding: 87 87 49
Width: 2131
GlyphClass: 2
Flags: W
LayerCount: 2
Fore
SplineSet
328 1477 m 1,0,-1
 936 1477 l 1,1,-1
 753 1337 l 1,2,-1
 855 442 l 1,3,-1
 1284 1221 l 1,4,-1
 1268 1341 l 1,5,-1
 1154 1477 l 1,6,-1
 1781 1477 l 1,7,-1
 1559 1315 l 1,8,-1
 1647 432 l 1,9,-1
 2155 1339 l 1,10,-1
 2040 1477 l 1,11,-1
 2501 1477 l 1,12,-1
 2256 1290 l 1,13,-1
 1540 43 l 1,14,-1
 1454 -106 l 1,15,-1
 1308 1036 l 1,16,-1
 875 266 l 1,17,-1
 751 43 l 1,18,-1
 663 -106 l 1,19,-1
 465 1313 l 1,20,-1
 328 1477 l 1,0,-1
EndSplineSet
Validated: 1
EndChar

StartChar: X
Encoding: 88 88 50
Width: 1448
GlyphClass: 2
Flags: W
LayerCount: 2
Fore
SplineSet
0 2 m 1,0,-1
 266 186 l 1,1,-1
 298 221 l 1,2,-1
 761 707 l 1,3,-1
 540 1274 l 1,4,-1
 351 1470 l 1,5,-1
 1023 1470 l 1,6,-1
 821 1327 l 1,7,-1
 981 911 l 1,8,-1
 1344 1319 l 1,9,-1
 1225 1470 l 1,10,-1
 1735 1470 l 1,11,-1
 1453 1294 l 1,12,-1
 1019 815 l 1,13,-1
 1259 195 l 1,14,-1
 1450 0 l 1,15,-1
 777 0 l 1,16,-1
 979 141 l 1,17,-1
 799 606 l 1,18,-1
 372 143 l 1,19,-1
 511 2 l 1,20,-1
 0 2 l 1,0,-1
EndSplineSet
Validated: 1
EndChar

StartChar: Y
Encoding: 89 89 51
Width: 1398
GlyphClass: 2
Flags: W
LayerCount: 2
Fore
SplineSet
339 1470 m 1,0,-1
 1012 1470 l 1,1,-1
 803 1323 l 1,2,-1
 974 715 l 1,3,-1
 1426 1309 l 1,4,-1
 1270 1470 l 1,5,-1
 1781 1470 l 1,6,-1
 1568 1321 l 1,7,-1
 991 586 l 1,8,-1
 895 172 l 1,9,-1
 1063 0 l 1,10,-1
 391 0 l 1,11,-1
 627 164 l 1,12,-1
 717 555 l 1,13,-1
 508 1294 l 1,14,-1
 339 1470 l 1,0,-1
EndSplineSet
Validated: 1
EndChar

StartChar: Z
Encoding: 90 90 52
Width: 1361
GlyphClass: 2
Flags: W
LayerCount: 2
Fore
SplineSet
25 0 m 1,0,-1
 1128 1333 l 1,1,-1
 682 1333 l 1,2,-1
 324 868 l 1,3,-1
 501 1470 l 1,4,-1
 1560 1470 l 1,5,-1
 447 150 l 1,6,-1
 1039 150 l 1,7,-1
 1442 664 l 1,8,-1
 1219 16 l 1,9,-1
 1215 0 l 1,10,-1
 25 0 l 1,0,-1
EndSplineSet
Validated: 1
EndChar

StartChar: grave
Encoding: 96 96 53
Width: 1561
GlyphClass: 2
Flags: W
LayerCount: 2
Fore
SplineSet
721 1427 m 1,0,-1
 762 1489 l 1,1,-1
 966 1489 l 1,2,-1
 969 1481 l 2,3,4
 989 1438 989 1438 1042 1288.5 c 128,-1,5
 1095 1139 1095 1139 1100 1126 c 1,6,-1
 1061 1090 l 1,7,-1
 721 1427 l 1,0,-1
EndSplineSet
Validated: 1
EndChar

StartChar: a
Encoding: 97 97 54
Width: 1106
GlyphClass: 2
Flags: W
LayerCount: 2
Fore
SplineSet
175 445 m 0,0,1
 197 542 197 542 255 633.5 c 128,-1,2
 313 725 313 725 392.5 794.5 c 128,-1,3
 472 864 472 864 574.5 906 c 128,-1,4
 677 948 677 948 783 948 c 0,5,6
 870 948 870 948 934 914 c 1,7,-1
 1156 932 l 0,8,-1
 991 216 l 1,9,-1
 1095 118 l 1,10,-1
 767 -47 l 1,11,-1
 763 128 l 1,12,13
 702 51 702 51 618 11.5 c 128,-1,14
 534 -28 534 -28 453 -28 c 0,15,16
 379 -28 379 -28 318.5 1 c 128,-1,17
 258 30 258 30 215 85.5 c 128,-1,18
 172 141 172 141 160 234.5 c 128,-1,19
 148 328 148 328 175 445 c 0,0,1
422 535 m 0,20,21
 379 350 379 350 436.5 252.5 c 128,-1,22
 494 155 494 155 617 155 c 0,23,24
 706 155 706 155 769 199 c 1,25,-1
 869 632 l 1,26,27
 900 846 900 846 725 846 c 0,28,29
 621 846 621 846 537 757.5 c 128,-1,30
 453 669 453 669 422 535 c 0,20,21
EndSplineSet
Validated: 33
EndChar

StartChar: b
Encoding: 98 98 55
Width: 1084
GlyphClass: 2
Flags: W
LayerCount: 2
Fore
SplineSet
302 1250 m 1,0,-1
 714 1536 l 1,1,-1
 545 811 l 1,2,3
 607 879 607 879 685.5 913.5 c 128,-1,4
 764 948 764 948 841 948 c 0,5,6
 915 948 915 948 975 919 c 128,-1,7
 1035 890 1035 890 1078 834 c 128,-1,8
 1121 778 1121 778 1133 685.5 c 128,-1,9
 1145 593 1145 593 1118 475 c 0,10,11
 1096 378 1096 378 1038 286 c 128,-1,12
 980 194 980 194 900.5 124 c 128,-1,13
 821 54 821 54 718 12 c 128,-1,14
 615 -30 615 -30 509 -30 c 0,15,16
 379 -30 379 -30 302 44 c 1,17,-1
 122 -82 l 1,18,-1
 411 1172 l 1,19,-1
 302 1250 l 1,0,-1
435 333 m 2,20,21
 377 72 377 72 569 73 c 0,22,23
 673 73 673 73 757 161.5 c 128,-1,24
 841 250 841 250 871 384 c 0,25,26
 914 570 914 570 857 668 c 128,-1,27
 800 766 800 766 677 766 c 0,28,29
 589 766 589 766 524 720 c 1,30,-1
 435 333 l 2,20,21
EndSplineSet
Validated: 33
EndChar

StartChar: c
Encoding: 99 99 56
Width: 926
GlyphClass: 2
Flags: W
LayerCount: 2
Fore
SplineSet
172 436 m 0,0,1
 226 668 226 668 389.5 810 c 128,-1,2
 553 952 553 952 758 952 c 0,3,4
 886 952 886 952 956.5 875 c 128,-1,5
 1027 798 1027 798 1000 681 c 0,6,7
 986 619 986 619 940 575.5 c 128,-1,8
 894 532 894 532 834 532 c 0,9,10
 780 532 780 532 750.5 567.5 c 128,-1,11
 721 603 721 603 737 671 c 0,12,13
 741 688 741 688 751.5 719.5 c 128,-1,14
 762 751 762 751 767 770.5 c 128,-1,15
 772 790 772 790 773 812 c 128,-1,16
 774 834 774 834 759.5 845 c 128,-1,17
 745 856 745 856 715 856 c 0,18,19
 614 856 614 856 524 769 c 128,-1,20
 434 682 434 682 403 547 c 0,21,22
 364 376 364 376 424 281 c 128,-1,23
 484 186 484 186 617 186 c 0,24,25
 674 186 674 186 733 204 c 128,-1,26
 792 222 792 222 851 263.5 c 128,-1,27
 910 305 910 305 953 366 c 1,28,29
 928 259 928 259 852 168.5 c 128,-1,30
 776 78 776 78 680 29 c 128,-1,31
 584 -20 584 -20 494 -20 c 0,32,33
 303 -20 303 -20 215 109.5 c 128,-1,34
 127 239 127 239 172 436 c 0,0,1
EndSplineSet
Validated: 33
EndChar

StartChar: d
Encoding: 100 100 57
Width: 1106
GlyphClass: 2
Flags: W
LayerCount: 2
Fore
SplineSet
175 445 m 0,0,1
 197 542 197 542 255 633.5 c 128,-1,2
 313 725 313 725 392.5 794.5 c 128,-1,3
 472 864 472 864 574.5 906 c 128,-1,4
 677 948 677 948 783 948 c 0,5,6
 870 948 870 948 934 914 c 1,7,-1
 994 1172 l 1,8,-1
 885 1250 l 1,9,-1
 1218 1483 l 1,10,-1
 1218 1480 l 1,11,-1
 1295 1536 l 1,12,-1
 991 216 l 1,13,-1
 1095 118 l 1,14,-1
 767 -47 l 1,15,-1
 763 128 l 1,16,17
 702 51 702 51 618 11.5 c 128,-1,18
 534 -28 534 -28 453 -28 c 0,19,20
 379 -28 379 -28 318.5 1 c 128,-1,21
 258 30 258 30 215 85.5 c 128,-1,22
 172 141 172 141 160 234.5 c 128,-1,23
 148 328 148 328 175 445 c 0,0,1
422 535 m 0,24,25
 379 350 379 350 436.5 252.5 c 128,-1,26
 494 155 494 155 617 155 c 0,27,28
 706 155 706 155 769 199 c 1,29,-1
 869 632 l 1,30,31
 900 846 900 846 725 846 c 0,32,33
 621 846 621 846 537 757.5 c 128,-1,34
 453 669 453 669 422 535 c 0,24,25
EndSplineSet
Validated: 33
EndChar

StartChar: e
Encoding: 101 101 58
Width: 1012
GlyphClass: 2
Flags: W
LayerCount: 2
Fore
SplineSet
171 447 m 0,0,1
 203 584 203 584 281.5 698.5 c 128,-1,2
 360 813 360 813 475.5 882.5 c 128,-1,3
 591 952 591 952 718 952 c 0,4,5
 765 952 765 952 809.5 942 c 128,-1,6
 854 932 854 932 897 906.5 c 128,-1,7
 940 881 940 881 969.5 843.5 c 128,-1,8
 999 806 999 806 1011 744.5 c 128,-1,9
 1023 683 1023 683 1010 606 c 1,10,-1
 1012 606 l 1,11,-1
 988 503 l 1,12,-1
 389 503 l 1,13,14
 361 359 361 359 420.5 272.5 c 128,-1,15
 480 186 480 186 611 186 c 0,16,17
 806 186 806 186 949 362 c 1,18,19
 924 255 924 255 848 165.5 c 128,-1,20
 772 76 772 76 675 28 c 128,-1,21
 578 -20 578 -20 483 -20 c 0,22,23
 403 -20 403 -20 340 5.5 c 128,-1,24
 277 31 277 31 237.5 75.5 c 128,-1,25
 198 120 198 120 177.5 179.5 c 128,-1,26
 157 239 157 239 155.5 307 c 128,-1,27
 154 375 154 375 171 447 c 0,0,1
413 606 m 1,28,-1
 779 606 l 1,29,30
 806 721 806 721 778 788.5 c 128,-1,31
 750 856 750 856 669 856 c 0,32,33
 620 856 620 856 569 827.5 c 128,-1,34
 518 799 518 799 474.5 740.5 c 128,-1,35
 431 682 431 682 413 606 c 1,28,-1
EndSplineSet
Validated: 33
EndChar

StartChar: f
Encoding: 102 102 59
Width: 620
GlyphClass: 2
Flags: W
HStem: 0 21G<51 536> 801 131<258 366 585 792> 1329 215<564.411 729.5>
DStem2: 212 135 431 135 0.225287 0.974292<49.3378 683.573>
LayerCount: 2
Fore
SplineSet
227 801 m 1,0,-1
 258 932 l 1,1,-1
 396 932 l 1,2,3
 344 1064 344 1064 379 1212 c 0,4,5
 415 1367 415 1367 508 1455.5 c 128,-1,6
 601 1544 601 1544 713 1544 c 0,7,8
 746 1544 746 1544 778.5 1533.5 c 128,-1,9
 811 1523 811 1523 843.5 1500.5 c 128,-1,10
 876 1478 876 1478 900.5 1435 c 128,-1,11
 925 1392 925 1392 936 1333 c 1,12,-1
 726 1088 l 1,13,14
 729 1182 729 1182 701.5 1255.5 c 128,-1,15
 674 1329 674 1329 632 1329 c 0,16,17
 534 1329 534 1329 506 1203 c 0,18,19
 490 1136 490 1136 523 1050.5 c 128,-1,20
 556 965 556 965 623 932 c 1,21,-1
 823 932 l 1,22,-1
 792 801 l 1,23,-1
 585 801 l 1,24,-1
 431 135 l 1,25,-1
 536 0 l 1,26,-1
 51 0 l 1,27,-1
 212 135 l 1,28,-1
 366 801 l 1,29,-1
 227 801 l 1,0,-1
EndSplineSet
Validated: 33
EndChar

StartChar: g
Encoding: 103 103 60
Width: 960
GlyphClass: 2
Flags: W
LayerCount: 2
Fore
SplineSet
-19 -235 m 0,0,1
 -6 -181 -6 -181 36 -135.5 c 128,-1,2
 78 -90 78 -90 137.5 -61.5 c 128,-1,3
 197 -33 197 -33 255 -15 c 128,-1,4
 313 3 313 3 373 13 c 1,5,6
 344 26 344 26 305 45 c 128,-1,7
 266 64 266 64 242.5 75.5 c 128,-1,8
 219 87 219 87 210 92 c 1,9,-1
 224 155 l 1,10,-1
 355 214 l 1,11,-1
 482 290 l 1,12,13
 340 306 340 306 273.5 394.5 c 128,-1,14
 207 483 207 483 239 619 c 0,15,16
 273 768 273 768 408.5 860 c 128,-1,17
 544 952 544 952 720 952 c 2,18,-1
 734 952 l 1,19,20
 720 1016 720 1016 725 1096.5 c 128,-1,21
 730 1177 730 1177 744 1236 c 0,22,23
 767 1334 767 1334 818 1389 c 1,24,25
 872 1450 872 1450 941 1450 c 0,26,27
 998 1450 998 1450 1027.5 1405 c 128,-1,28
 1057 1360 1057 1360 1042.5 1296 c 128,-1,29
 1028 1232 1028 1232 978 1187.5 c 128,-1,30
 928 1143 928 1143 870 1143 c 0,31,32
 829 1143 829 1143 802 1165 c 1,33,34
 792 1108 792 1108 792 1031 c 0,35,36
 792 979 792 979 799 946 c 1,37,38
 932 925 932 925 990.5 838 c 128,-1,39
 1049 751 1049 751 1019 619 c 0,40,41
 986 476 986 476 869 386.5 c 128,-1,42
 752 297 752 297 590 287 c 1,43,-1
 470 218 l 1,44,45
 717 104 717 104 793 58 c 0,46,47
 857 17 857 17 875 -33.5 c 128,-1,48
 893 -84 893 -84 877 -152 c 0,49,50
 847 -282 847 -282 690.5 -380.5 c 128,-1,51
 534 -479 534 -479 336 -479 c 0,52,53
 224 -479 224 -479 138.5 -452.5 c 128,-1,54
 53 -426 53 -426 8 -369.5 c 128,-1,55
 -37 -313 -37 -313 -19 -235 c 0,0,1
189 -202 m 0,56,57
 188 -205 188 -205 188 -208 c 0,58,59
 171 -283 171 -283 229 -337 c 0,60,61
 287 -393 287 -393 384 -393 c 0,62,63
 489 -393 489 -393 568 -349 c 128,-1,64
 647 -305 647 -305 662 -239 c 0,65,66
 669 -209 669 -209 662 -183.5 c 128,-1,67
 655 -158 655 -158 634.5 -138 c 128,-1,68
 614 -118 614 -118 596 -105 c 128,-1,69
 578 -92 578 -92 551 -75 c 2,70,-1
 451 -24 l 1,71,72
 364 -35 364 -35 283.5 -92.5 c 128,-1,73
 203 -150 203 -150 189 -202 c 0,56,57
477 618 m 0,74,75
 420 372 420 372 572.5 371.5 c 128,-1,76
 725 371 725 371 782 618 c 0,77,78
 839 866 839 866 686.5 866 c 128,-1,79
 534 866 534 866 477 618 c 0,74,75
EndSplineSet
Validated: 33
EndChar

StartChar: h
Encoding: 104 104 61
Width: 1073
GlyphClass: 2
Flags: W
LayerCount: 2
Fore
SplineSet
521 648 m 1,0,-1
 384 56 l 1,1,-1
 154 0 l 1,2,-1
 425 1171 l 1,3,-1
 317 1250 l 1,4,-1
 728 1536 l 1,5,-1
 556 801 l 1,6,7
 681 952 681 952 858 952 c 0,8,9
 988 952 988 952 1047 864.5 c 128,-1,10
 1106 777 1106 777 1068 616 c 2,11,-1
 985 261 l 1,12,13
 970 195 970 195 967 145 c 0,14,15
 968 133 968 133 977.5 123.5 c 128,-1,16
 987 114 987 114 999 114 c 0,17,18
 1042 114 1042 114 1109 213 c 2,19,-1
 1152 276 l 1,20,-1
 1192 249 l 1,21,22
 1096 94 1096 94 1028.5 36.5 c 128,-1,23
 961 -21 961 -21 875 -21 c 0,24,25
 828 -21 828 -21 798.5 -2.5 c 128,-1,26
 769 16 769 16 757.5 42 c 128,-1,27
 746 68 746 68 745.5 108.5 c 128,-1,28
 745 149 745 149 749.5 179.5 c 128,-1,29
 754 210 754 210 764 252 c 1,30,-1
 835 550 l 2,31,32
 854 630 854 630 856.5 669.5 c 128,-1,33
 859 709 859 709 847 741 c 0,34,35
 824 805 824 805 731 805 c 0,36,37
 687 805 687 805 649.5 788.5 c 128,-1,38
 612 772 612 772 587 745.5 c 128,-1,39
 562 719 562 719 546.5 695.5 c 128,-1,40
 531 672 531 672 521 648 c 1,0,-1
EndSplineSet
Validated: 33
EndChar

StartChar: i
Encoding: 105 105 62
Width: 543
GlyphClass: 2
Flags: W
LayerCount: 2
Fore
SplineSet
450 270 m 1,0,1
 434 199 434 199 430 146 c 0,2,3
 430 133 430 133 439.5 123.5 c 128,-1,4
 449 114 449 114 462 114 c 0,5,6
 504 114 504 114 574 219 c 2,7,-1
 620 287 l 1,8,-1
 658 258 l 1,9,10
 561 98 561 98 493 38.5 c 128,-1,11
 425 -21 425 -21 339 -21 c 0,12,13
 292 -21 292 -21 262.5 -1.5 c 128,-1,14
 233 18 233 18 221.5 45.5 c 128,-1,15
 210 73 210 73 210.5 116 c 128,-1,16
 211 159 211 159 216 191.5 c 128,-1,17
 221 224 221 224 232 268 c 1,18,-1
 338 727 l 1,19,-1
 228 803 l 1,20,-1
 379 893 l 1,21,-1
 502 967 l 1,22,-1
 628 1042 l 1,23,-1
 450 270 l 1,0,1
454 1311 m 0,24,25
 469 1374 469 1374 520 1420 c 128,-1,26
 571 1466 571 1466 628 1466 c 0,27,28
 684 1466 684 1466 714.5 1420 c 128,-1,29
 745 1374 745 1374 730 1311 c 0,30,31
 715 1247 715 1247 664 1201 c 128,-1,32
 613 1155 613 1155 556 1155 c 256,33,34
 499 1155 499 1155 469 1200.5 c 128,-1,35
 439 1246 439 1246 454 1311 c 0,24,25
EndSplineSet
Validated: 33
EndChar

StartChar: j
Encoding: 106 106 63
Width: 542
GlyphClass: 2
Flags: W
LayerCount: 2
Fore
SplineSet
-66 -479 m 1,0,1
 -56 -468 -56 -468 -29 -440.5 c 128,-1,2
 -2 -413 -2 -413 9 -400 c 128,-1,3
 20 -387 20 -387 42.5 -358.5 c 128,-1,4
 65 -330 65 -330 78 -303.5 c 128,-1,5
 91 -277 91 -277 109 -236.5 c 128,-1,6
 127 -196 127 -196 142.5 -144.5 c 128,-1,7
 158 -93 158 -93 173 -29 c 2,8,-1
 350 739 l 1,9,-1
 238 803 l 1,10,-1
 390 893 l 1,11,-1
 513 967 l 1,12,-1
 639 1042 l 1,13,-1
 399 0 l 2,14,15
 374 -110 374 -110 330.5 -196.5 c 128,-1,16
 287 -283 287 -283 238.5 -334.5 c 128,-1,17
 190 -386 190 -386 133.5 -420 c 128,-1,18
 77 -454 77 -454 29 -466.5 c 128,-1,19
 -19 -479 -19 -479 -66 -479 c 1,0,1
472 1311 m 0,20,21
 487 1374 487 1374 537.5 1420 c 128,-1,22
 588 1466 588 1466 645 1466 c 0,23,24
 701 1466 701 1466 732 1420 c 128,-1,25
 763 1374 763 1374 748 1311 c 0,26,27
 733 1247 733 1247 681.5 1201 c 128,-1,28
 630 1155 630 1155 574 1155 c 0,29,30
 517 1155 517 1155 487 1200.5 c 128,-1,31
 457 1246 457 1246 472 1311 c 0,20,21
EndSplineSet
Validated: 33
EndChar

StartChar: k
Encoding: 107 107 64
Width: 1164
GlyphClass: 2
Flags: W
LayerCount: 2
Fore
SplineSet
384 56 m 1,0,-1
 154 0 l 1,1,-1
 432 1202 l 1,2,-1
 323 1274 l 1,3,-1
 728 1536 l 1,4,-1
 507 588 l 1,5,-1
 563 588 l 1,6,-1
 872 827 l 1,7,-1
 1073 980 l 0,8,9
 1110 1007 1110 1007 1148 1007 c 0,10,11
 1193 1007 1193 1007 1220 976.5 c 128,-1,12
 1247 946 1247 946 1247 896 c 0,13,14
 1246 854 1246 854 1223.5 825.5 c 128,-1,15
 1201 797 1201 797 1168 797 c 0,16,17
 1140 797 1140 797 1103 822 c 0,18,19
 1079 840 1079 840 1062 840 c 0,20,21
 1059 840 1059 840 1052 842 c 128,-1,22
 1045 844 1045 844 1041 844 c 256,23,24
 1037 844 1037 844 1031 842 c 0,25,-1
 1214 981 l 1,26,-1
 1104 899 l 1,27,-1
 726 610 l 1,28,-1
 947 139 l 1,29,30
 959 114 959 114 969 114 c 0,31,32
 989 114 989 114 1018 141 c 128,-1,33
 1047 168 1047 168 1080 219 c 2,34,-1
 1125 287 l 1,35,-1
 1165 258 l 1,36,37
 1069 98 1069 98 1002 38.5 c 128,-1,38
 935 -21 935 -21 851 -21 c 0,39,40
 750 -21 750 -21 725 29 c 1,41,-1
 526 459 l 1,42,-1
 522 457 l 1,43,-1
 516 475 l 1,44,-1
 384 56 l 1,0,-1
EndSplineSet
Validated: 1
EndChar

StartChar: l
Encoding: 108 108 65
Width: 546
GlyphClass: 2
Flags: W
LayerCount: 2
Fore
SplineSet
442 270 m 1,0,1
 426 199 426 199 422 146 c 0,2,3
 422 133 422 133 431.5 123 c 128,-1,4
 441 113 441 113 453 113 c 0,5,6
 474 113 474 113 503.5 140.5 c 128,-1,7
 533 168 533 168 565 218 c 2,8,-1
 609 286 l 1,9,-1
 649 258 l 1,10,11
 552 98 552 98 484 38.5 c 128,-1,12
 416 -21 416 -21 332 -21 c 0,13,14
 285 -21 285 -21 255.5 -1.5 c 128,-1,15
 226 18 226 18 215 45 c 128,-1,16
 204 72 204 72 204 115 c 128,-1,17
 204 158 204 158 209.5 191 c 128,-1,18
 215 224 215 224 225 268 c 1,19,-1
 440 1202 l 1,20,-1
 331 1274 l 1,21,-1
 736 1536 l 1,22,-1
 442 270 l 1,0,1
EndSplineSet
Validated: 1
EndChar

StartChar: m
Encoding: 109 109 66
Width: 1578
GlyphClass: 2
Flags: W
LayerCount: 2
Fore
SplineSet
400 57 m 1,0,-1
 169 0 l 1,1,-1
 324 673 l 1,2,-1
 217 757 l 1,3,-1
 366 852 l 1,4,-1
 366 854 l 1,5,-1
 570 1026 l 1,6,-1
 553 781 l 1,7,8
 676 952 676 952 856 952 c 0,9,10
 946 952 946 952 999 902.5 c 128,-1,11
 1052 853 1052 853 1061 757 c 1,12,13
 1125 853 1125 853 1201.5 902.5 c 128,-1,14
 1278 952 1278 952 1379 952 c 0,15,16
 1502 952 1502 952 1555.5 864 c 128,-1,17
 1609 776 1609 776 1572 616 c 2,18,-1
 1489 261 l 1,19,20
 1474 194 1474 194 1470 144 c 0,21,22
 1471 132 1471 132 1480.5 123 c 128,-1,23
 1490 114 1490 114 1502 114 c 0,24,25
 1544 114 1544 114 1611 212 c 2,26,-1
 1656 275 l 1,27,-1
 1695 248 l 1,28,29
 1599 94 1599 94 1532 36.5 c 128,-1,30
 1465 -21 1465 -21 1379 -21 c 0,31,32
 1332 -21 1332 -21 1303 -2.5 c 128,-1,33
 1274 16 1274 16 1262 42 c 128,-1,34
 1250 68 1250 68 1249.5 108.5 c 128,-1,35
 1249 149 1249 149 1254 179.5 c 128,-1,36
 1259 210 1259 210 1269 252 c 1,37,-1
 1337 538 l 2,38,39
 1366 669 1366 669 1348.5 735 c 128,-1,40
 1331 801 1331 801 1248 801 c 0,41,42
 1206 801 1206 801 1170 781.5 c 128,-1,43
 1134 762 1134 762 1113 735.5 c 128,-1,44
 1092 709 1092 709 1076.5 682 c 128,-1,45
 1061 655 1061 655 1055 636 c 2,46,-1
 1049 616 l 1,47,-1
 1047 609 l 1,48,-1
 918 57 l 1,49,-1
 687 0 l 1,50,-1
 813 538 l 2,51,52
 842 669 842 669 824.5 735 c 128,-1,53
 807 801 807 801 725 801 c 0,54,55
 685 801 685 801 651.5 785 c 128,-1,56
 618 769 618 769 595.5 743 c 128,-1,57
 573 717 573 717 559.5 694 c 128,-1,58
 546 671 546 671 536 647 c 1,59,-1
 400 57 l 1,0,-1
EndSplineSet
Validated: 33
EndChar

StartChar: n
Encoding: 110 110 67
Width: 1151
GlyphClass: 2
Flags: WO
LayerCount: 2
Fore
SplineSet
400 57 m 1,0,-1
 169 0 l 1,1,-1
 324 673 l 1,2,-1
 217 757 l 1,3,-1
 366 852 l 1,4,-1
 366 854 l 1,5,-1
 570 1026 l 1,6,-1
 554 778 l 1,7,8
 619 864 619 864 696 908 c 128,-1,9
 773 952 773 952 874 952 c 0,10,11
 1004 952 1004 952 1062.5 864.5 c 128,-1,12
 1121 777 1121 777 1084 616 c 2,13,-1
 1001 261 l 1,14,15
 986 194 986 194 982 144 c 0,16,17
 983 132 983 132 992.5 123 c 128,-1,18
 1002 114 1002 114 1014 114 c 0,19,20
 1034 114 1034 114 1062.5 139 c 128,-1,21
 1091 164 1091 164 1123 212 c 2,22,-1
 1168 276 l 1,23,-1
 1207 248 l 1,24,25
 1111 93 1111 93 1043.5 36 c 128,-1,26
 976 -21 976 -21 891 -21 c 0,27,28
 844 -21 844 -21 814.5 -2.5 c 128,-1,29
 785 16 785 16 773.5 42 c 128,-1,30
 762 68 762 68 761.5 108.5 c 128,-1,31
 761 149 761 149 766 179.5 c 128,-1,32
 771 210 771 210 780 252 c 1,33,-1
 851 550 l 2,34,35
 870 630 870 630 873 669.5 c 128,-1,36
 876 709 876 709 863 741 c 0,37,38
 840 805 840 805 747 805 c 0,39,40
 702 805 702 805 663.5 788 c 128,-1,41
 625 771 625 771 600 743.5 c 128,-1,42
 575 716 575 716 560.5 692.5 c 128,-1,43
 546 669 546 669 536 644 c 1,44,-1
 400 57 l 1,0,-1
EndSplineSet
EndChar

StartChar: o
Encoding: 111 111 68
Width: 1051
GlyphClass: 2
Flags: W
LayerCount: 2
Fore
SplineSet
178 463 m 0,0,1
 229 682 229 682 385.5 817 c 128,-1,2
 542 952 542 952 742 952 c 0,3,4
 948 952 948 952 1038 815.5 c 128,-1,5
 1128 679 1128 679 1081 467 c 0,6,7
 1029 243 1029 243 876.5 114 c 128,-1,8
 724 -15 724 -15 517 -20 c 1,9,10
 312 -17 312 -17 219.5 111.5 c 128,-1,11
 127 240 127 240 178 463 c 0,0,1
432 465 m 0,12,13
 343 78 343 78 540.5 78 c 128,-1,14
 738 78 738 78 827 465 c 0,15,16
 917 854 917 854 720 856 c 0,17,18
 718 856 718 856 716 856 c 0,19,20
 661 855 661 855 617 825 c 0,21,22
 570 793 570 793 535 736.5 c 128,-1,23
 500 680 500 680 475.5 614 c 128,-1,24
 451 548 451 548 432 465 c 0,12,13
EndSplineSet
Validated: 33
EndChar

StartChar: p
Encoding: 112 112 69
Width: 1111
GlyphClass: 2
Flags: W
LayerCount: 2
Fore
SplineSet
-68 -461 m 1,0,-1
 93 -315 l 1,1,-1
 320 671 l 1,2,-1
 213 755 l 1,3,-1
 362 852 l 1,4,-1
 363 854 l 1,5,-1
 566 1026 l 1,6,-1
 556 795 l 1,7,8
 617 870 617 870 700.5 909 c 128,-1,9
 784 948 784 948 865 948 c 0,10,11
 939 948 939 948 999.5 919 c 128,-1,12
 1060 890 1060 890 1103.5 834 c 128,-1,13
 1147 778 1147 778 1159 686 c 128,-1,14
 1171 594 1171 594 1144 477 c 0,15,16
 1122 380 1122 380 1064 288.5 c 128,-1,17
 1006 197 1006 197 926.5 127 c 128,-1,18
 847 57 847 57 744.5 15 c 128,-1,19
 642 -27 642 -27 536 -27 c 0,20,21
 451 -27 451 -27 385 6 c 1,22,-1
 311 -315 l 1,23,-1
 414 -461 l 1,24,-1
 -68 -461 l 1,0,-1
450 290 m 1,25,26
 418 76 418 76 594 76 c 0,27,28
 698 76 698 76 782 164 c 128,-1,29
 866 252 866 252 897 386 c 0,30,31
 940 571 940 571 883 668.5 c 128,-1,32
 826 766 826 766 702 766 c 0,33,34
 613 766 613 766 550 720 c 1,35,-1
 450 290 l 1,25,26
EndSplineSet
Validated: 33
EndChar

StartChar: q
Encoding: 113 113 70
Width: 1070
GlyphClass: 2
Flags: W
LayerCount: 2
Fore
SplineSet
175 445 m 0,0,1
 197 542 197 542 255 633.5 c 128,-1,2
 313 725 313 725 392.5 794.5 c 128,-1,3
 472 864 472 864 574.5 906 c 128,-1,4
 677 948 677 948 784 948 c 0,5,6
 913 948 913 948 986 879 c 1,7,-1
 1181 1040 l 1,8,-1
 856 -367 l 1,9,-1
 959 -512 l 1,10,-1
 718 -512 l 1,11,-1
 718 -510 l 1,12,-1
 703 -510 l 1,13,-1
 703 -512 l 1,14,-1
 478 -512 l 1,15,-1
 638 -367 l 1,16,-1
 749 111 l 1,17,18
 689 43 689 43 608.5 8 c 128,-1,19
 528 -27 528 -27 453 -27 c 0,20,21
 379 -27 379 -27 319 2 c 128,-1,22
 259 31 259 31 215.5 86.5 c 128,-1,23
 172 142 172 142 160 235 c 128,-1,24
 148 328 148 328 175 445 c 0,0,1
422 536 m 0,25,26
 379 351 379 351 436.5 253.5 c 128,-1,27
 494 156 494 156 617 156 c 0,28,29
 706 156 706 156 770 202 c 1,30,-1
 859 580 l 2,31,32
 920 846 920 846 725 846 c 0,33,34
 621 846 621 846 537 758 c 128,-1,35
 453 670 453 670 422 536 c 0,25,26
EndSplineSet
Validated: 33
EndChar

StartChar: r
Encoding: 114 114 71
Width: 737
GlyphClass: 2
Flags: W
LayerCount: 2
Fore
SplineSet
399 52 m 1,0,-1
 169 0 l 1,1,-1
 322 664 l 1,2,-1
 216 754 l 1,3,-1
 366 852 l 1,4,-1
 366 854 l 1,5,-1
 570 1026 l 1,6,-1
 547 717 l 1,7,8
 603 822 603 822 677 887 c 128,-1,9
 751 952 751 952 826 952 c 0,10,11
 876 952 876 952 907 910.5 c 128,-1,12
 938 869 938 869 921 793 c 0,13,14
 905 723 905 723 857 675 c 128,-1,15
 809 627 809 627 760 627 c 0,16,17
 708 627 708 627 679.5 666 c 128,-1,18
 651 705 651 705 662 772 c 1,19,20
 603 718 603 718 565.5 654 c 128,-1,21
 528 590 528 590 502 500 c 1,22,-1
 399 52 l 1,0,-1
EndSplineSet
Validated: 33
EndChar

StartChar: s
Encoding: 115 115 72
Width: 832
GlyphClass: 2
Flags: W
LayerCount: 2
Fore
SplineSet
184 400 m 1,0,1
 189 385 189 385 208 332 c 128,-1,2
 227 279 227 279 236.5 256.5 c 128,-1,3
 246 234 246 234 266 198 c 128,-1,4
 286 162 286 162 308 139 c 0,5,6
 336 111 336 111 371.5 101 c 128,-1,7
 407 91 407 91 459 91 c 0,8,9
 509 91 509 91 558 122.5 c 128,-1,10
 607 154 607 154 619 209 c 0,11,12
 626 239 626 239 618.5 264 c 128,-1,13
 611 289 611 289 596.5 303.5 c 128,-1,14
 582 318 582 318 554.5 330.5 c 128,-1,15
 527 343 527 343 508 348.5 c 128,-1,16
 489 354 489 354 458 361 c 0,17,18
 452 362 452 362 449 363 c 0,19,20
 322 394 322 394 270.5 464 c 128,-1,21
 219 534 219 534 251 669 c 0,22,23
 283 806 283 806 384.5 884.5 c 128,-1,24
 486 963 486 963 609 963 c 0,25,26
 697 963 697 963 769 905 c 1,27,-1
 943 1042 l 1,28,-1
 841 590 l 1,29,30
 805 720 805 720 738 791 c 0,31,32
 715 819 715 819 676 835.5 c 128,-1,33
 637 852 637 852 600 852 c 0,34,35
 534 852 534 852 486.5 821 c 128,-1,36
 439 790 439 790 426 735 c 0,37,38
 416 692 416 692 454 662.5 c 128,-1,39
 492 633 492 633 573 609 c 0,40,41
 631 592 631 592 668.5 576.5 c 128,-1,42
 706 561 706 561 741 535 c 128,-1,43
 776 509 776 509 792 475.5 c 128,-1,44
 808 442 808 442 811 392 c 128,-1,45
 814 342 814 342 799 278 c 0,46,47
 787 228 787 228 757 176.5 c 128,-1,48
 727 125 727 125 682 80 c 128,-1,49
 637 35 637 35 571.5 7 c 128,-1,50
 506 -21 506 -21 434 -21 c 0,51,52
 314 -21 314 -21 239 38 c 1,53,-1
 86 -37 l 1,54,-1
 184 400 l 1,0,1
EndSplineSet
Validated: 33
EndChar

StartChar: t
Encoding: 116 116 73
Width: 689
GlyphClass: 2
Flags: W
LayerCount: 2
Fore
SplineSet
200 801 m 1,0,-1
 231 932 l 1,1,-1
 319 932 l 1,2,-1
 600 1372 l 1,3,-1
 670 1372 l 1,4,-1
 568 932 l 1,5,-1
 864 932 l 1,6,-1
 833 801 l 1,7,-1
 543 801 l 1,8,-1
 442 374 l 2,9,10
 432 329 432 329 427.5 300 c 128,-1,11
 423 271 423 271 424.5 238 c 128,-1,12
 426 205 426 205 438.5 186 c 128,-1,13
 451 167 451 167 479 154 c 128,-1,14
 507 141 507 141 551 141 c 0,15,16
 662 141 662 141 779 265 c 1,17,18
 742 126 742 126 641 53 c 128,-1,19
 540 -20 540 -20 428 -20 c 0,20,21
 282 -20 282 -20 228.5 73 c 128,-1,22
 175 166 175 166 214 335 c 2,23,-1
 324 801 l 1,24,-1
 200 801 l 1,0,-1
EndSplineSet
Validated: 33
EndChar

StartChar: u
Encoding: 117 117 74
Width: 1064
GlyphClass: 2
Flags: W
LayerCount: 2
Fore
SplineSet
201 803 m 1,0,-1
 473 967 l 1,1,-1
 473 965 l 1,2,-1
 602 1042 l 1,3,-1
 454 408 l 2,4,5
 423 267 423 267 441.5 198 c 128,-1,6
 460 129 460 129 552 129 c 0,7,8
 593 129 593 129 627.5 144.5 c 128,-1,9
 662 160 662 160 685.5 185.5 c 128,-1,10
 709 211 709 211 723.5 234 c 128,-1,11
 738 257 738 257 748 283 c 1,12,-1
 851 727 l 1,13,-1
 742 803 l 1,14,-1
 1014 967 l 1,15,-1
 1013 965 l 1,16,-1
 1142 1042 l 1,17,-1
 952 221 l 1,18,-1
 1055 119 l 1,19,-1
 727 -47 l 1,20,-1
 731 150 l 1,21,22
 668 64 668 64 594 20.5 c 128,-1,23
 520 -23 520 -23 420 -23 c 0,24,25
 290 -23 290 -23 234 70 c 128,-1,26
 178 163 178 163 218 334 c 2,27,-1
 309 729 l 1,28,-1
 201 803 l 1,0,-1
EndSplineSet
Validated: 33
EndChar

StartChar: v
Encoding: 118 118 75
Width: 902
GlyphClass: 2
Flags: W
LayerCount: 2
Fore
SplineSet
272 774 m 1,0,-1
 270 784 l 0,1,2
 265 812 265 812 242 813 c 0,3,4
 199 813 199 813 127 705 c 2,5,-1
 87 648 l 1,6,-1
 45 674 l 1,7,8
 144 834 144 834 211.5 893.5 c 128,-1,9
 279 953 279 953 365 953 c 0,10,11
 484 953 484 953 501 857 c 0,12,-1
 507 821 l 1,13,-1
 584 292 l 1,14,-1
 943 850 l 0,15,16
 984 914 984 914 1017 936 c 128,-1,17
 1050 958 1050 958 1096 958 c 0,18,19
 1141 958 1141 958 1169 928 c 128,-1,20
 1197 898 1197 898 1197 848 c 0,21,22
 1197 805 1197 805 1173 776 c 128,-1,23
 1149 747 1149 747 1116 747 c 0,24,25
 1089 747 1089 747 1052 772 c 0,26,27
 1029 789 1029 789 1010 789 c 0,28,29
 1003 789 1003 789 997.5 784.5 c 128,-1,30
 992 780 992 780 988 774.5 c 128,-1,31
 984 769 984 769 976 755 c 256,32,33
 968 741 968 741 961 732 c 0,34,-1
 983 765 l 1,35,-1
 486 -3 l 1,36,-1
 485 -1 l 1,37,-1
 430 -88 l 1,38,-1
 272 774 l 1,0,-1
EndSplineSet
Validated: 5
EndChar

StartChar: w
Encoding: 119 119 76
Width: 1579
GlyphClass: 2
Flags: W
LayerCount: 2
Fore
SplineSet
271 776 m 1,0,-1
 269 790 l 0,1,2
 267 802 267 802 259.5 810.5 c 128,-1,3
 252 819 252 819 241 819 c 0,4,5
 221 819 221 819 192 792.5 c 128,-1,6
 163 766 163 766 132 719 c 2,7,-1
 86 654 l 1,8,-1
 47 681 l 1,9,10
 142 838 142 838 208 895.5 c 128,-1,11
 274 953 274 953 357 953 c 0,12,13
 473 953 473 953 487 852 c 0,14,-1
 491 822 l 1,15,-1
 543 310 l 1,16,-1
 825 793 l 1,17,-1
 755 932 l 1,18,-1
 1183 932 l 1,19,-1
 1046 817 l 1,20,-1
 1098 308 l 1,21,-1
 1381 799 l 1,22,-1
 1382 801 l 0,23,24
 1443 897 1443 897 1485 928 c 0,25,26
 1523 958 1523 958 1575 958 c 0,27,28
 1620 958 1620 958 1648.5 928 c 128,-1,29
 1677 898 1677 898 1676 847 c 0,30,31
 1676 804 1676 804 1652.5 775.5 c 128,-1,32
 1629 747 1629 747 1596 747 c 0,33,34
 1568 747 1568 747 1531 771 c 0,35,36
 1506 789 1506 789 1490 789 c 0,37,38
 1484 789 1484 789 1479 786.5 c 128,-1,39
 1474 784 1474 784 1469.5 777.5 c 128,-1,40
 1465 771 1465 771 1461.5 764.5 c 128,-1,41
 1458 758 1458 758 1450.5 744.5 c 128,-1,42
 1443 731 1443 731 1436 720 c 0,43,-1
 1464 767 l 1,44,-1
 1111 178 l 1,45,-1
 950 -90 l 1,46,-1
 844 658 l 1,47,-1
 557 182 l 1,48,-1
 393 -90 l 1,49,-1
 271 776 l 1,0,-1
EndSplineSet
Validated: 37
EndChar

StartChar: x
Encoding: 120 120 77
Width: 946
GlyphClass: 2
Flags: W
LayerCount: 2
Fore
SplineSet
341 749 m 1,0,-1
 320 797 l 0,1,2
 307 822 307 822 292 822 c 0,3,4
 272 822 272 822 244 796.5 c 128,-1,5
 216 771 216 771 185 727 c 2,6,-1
 139 660 l 1,7,-1
 101 686 l 1,8,9
 194 839 194 839 259.5 896 c 128,-1,10
 325 953 325 953 407 953 c 0,11,12
 506 953 506 953 528 898 c 0,13,-1
 555 835 l 1,14,-1
 652 599 l 1,15,-1
 841 793 l 1,16,-1
 766 932 l 1,17,-1
 969 932 l 1,18,-1
 967 928 l 1,19,-1
 971 932 l 1,20,-1
 1169 932 l 1,21,-1
 955 789 l 1,22,-1
 687 519 l 1,23,-1
 853 135 l 1,24,25
 864 110 864 110 876 110 c 0,26,27
 896 110 896 110 924 135.5 c 128,-1,28
 952 161 952 161 983 205 c 2,29,-1
 1030 272 l 1,30,-1
 1068 246 l 1,31,32
 974 93 974 93 909 36 c 128,-1,33
 844 -21 844 -21 762 -21 c 0,34,35
 660 -21 660 -21 637 36 c 1,36,-1
 506 352 l 1,37,-1
 316 133 l 1,38,-1
 387 0 l 1,39,-1
 -16 0 l 1,40,-1
 183 137 l 1,41,-1
 471 437 l 1,42,-1
 341 749 l 1,0,-1
EndSplineSet
Validated: 1
EndChar

StartChar: y
Encoding: 121 121 78
Width: 908
GlyphClass: 2
Flags: W
LayerCount: 2
Fore
SplineSet
272 774 m 1,0,-1
 269 792 l 0,1,2
 264 821 264 821 241 821 c 0,3,4
 221 821 221 821 193 795.5 c 128,-1,5
 165 770 165 770 134 723 c 2,6,-1
 87 654 l 1,7,-1
 49 681 l 1,8,9
 144 837 144 837 209 895 c 128,-1,10
 274 953 274 953 356 953 c 0,11,12
 468 953 468 953 483 862 c 0,13,-1
 492 810 l 1,14,-1
 580 289 l 1,15,-1
 895 793 l 1,16,-1
 933 854 l 0,17,18
 972 917 972 917 1007.5 938.5 c 128,-1,19
 1043 960 1043 960 1092 960 c 0,20,21
 1140 960 1140 960 1170 926.5 c 128,-1,22
 1200 893 1200 893 1199 838 c 0,23,24
 1197 790 1197 790 1171 757.5 c 128,-1,25
 1145 725 1145 725 1108 725 c 0,26,27
 1080 725 1080 725 1039 751 c 0,28,29
 1016 768 1016 768 1001 768 c 0,30,31
 993 768 993 768 987 763.5 c 128,-1,32
 981 759 981 759 977.5 754 c 128,-1,33
 974 749 974 749 966 735 c 256,34,35
 958 721 958 721 952 712 c 0,36,-1
 986 766 l 1,37,-1
 407 -158 l 2,38,39
 363 -230 363 -230 324 -283.5 c 128,-1,40
 285 -337 285 -337 238 -385.5 c 128,-1,41
 191 -434 191 -434 140 -459.5 c 128,-1,42
 89 -485 89 -485 37 -485 c 0,43,44
 -49 -485 -49 -485 -94.5 -445 c 128,-1,45
 -140 -405 -140 -405 -156 -322 c 1,46,-1
 99 -66 l 1,47,48
 91 -89 91 -89 86 -110 c 0,49,50
 80 -135 80 -135 79 -155 c 0,51,52
 78 -193 78 -193 91 -213 c 128,-1,53
 104 -233 104 -233 122 -241.5 c 128,-1,54
 140 -250 140 -250 163 -250 c 0,55,56
 184 -250 184 -250 206 -238.5 c 128,-1,57
 228 -227 228 -227 249.5 -204.5 c 128,-1,58
 271 -182 271 -182 284.5 -165.5 c 128,-1,59
 298 -149 298 -149 317.5 -121.5 c 128,-1,60
 337 -94 337 -94 341 -90 c 2,61,-1
 407 16 l 1,62,-1
 272 774 l 1,0,-1
EndSplineSet
Validated: 37
EndChar

StartChar: z
Encoding: 122 122 79
Width: 917
GlyphClass: 2
Flags: W
LayerCount: 2
Fore
SplineSet
158 530 m 1,0,-1
 338 932 l 1,1,-1
 1077 932 l 1,2,-1
 365 102 l 1,3,-1
 681 102 l 1,4,-1
 975 421 l 1,5,-1
 811 10 l 1,6,-1
 809 0 l 1,7,-1
 49 0 l 1,8,-1
 745 830 l 1,9,-1
 456 830 l 1,10,-1
 158 530 l 1,0,-1
EndSplineSet
Validated: 1
EndChar

StartChar: dieresis
Encoding: 168 168 81
Width: 1563
GlyphClass: 2
Flags: W
LayerCount: 2
Fore
SplineSet
564 1319 m 128,-1,1
 576 1372 576 1372 618.5 1409 c 128,-1,2
 661 1446 661 1446 709.5 1446 c 128,-1,3
 758 1446 758 1446 784 1409 c 128,-1,4
 810 1372 810 1372 798 1319 c 0,5,6
 786 1267 786 1267 743.5 1230.5 c 128,-1,7
 701 1194 701 1194 651 1194 c 0,8,9
 603 1194 603 1194 577.5 1230 c 128,-1,0
 552 1266 552 1266 564 1319 c 128,-1,1
908 1319 m 128,-1,11
 920 1372 920 1372 962.5 1409 c 128,-1,12
 1005 1446 1005 1446 1053.5 1446 c 128,-1,13
 1102 1446 1102 1446 1128.5 1409 c 128,-1,14
 1155 1372 1155 1372 1142 1319 c 0,15,16
 1130 1267 1130 1267 1087.5 1230.5 c 128,-1,17
 1045 1194 1045 1194 995 1194 c 0,18,19
 947 1194 947 1194 921.5 1230 c 128,-1,10
 896 1266 896 1266 908 1319 c 128,-1,11
EndSplineSet
Validated: 33
EndChar

StartChar: guillemotleft
Encoding: 171 171 82
Width: 908
GlyphClass: 2
Flags: W
LayerCount: 2
Fore
SplineSet
160 483 m 1,0,-1
 584 858 l 1,1,-1
 662 858 l 1,2,-1
 389 483 l 1,3,-1
 488 106 l 1,4,-1
 414 106 l 1,5,-1
 160 483 l 1,0,-1
532 483 m 1,6,-1
 957 858 l 1,7,-1
 1033 858 l 1,8,-1
 760 483 l 1,9,-1
 859 106 l 1,10,-1
 785 106 l 1,11,-1
 532 483 l 1,6,-1
EndSplineSet
Validated: 1
EndChar

StartChar: uni00AD
Encoding: 173 173 83
Width: 727
GlyphClass: 2
Flags: W
LayerCount: 2
Fore
SplineSet
216 451 m 1,0,-1
 248 590 l 1,1,-1
 753 590 l 1,2,-1
 721 451 l 1,3,-1
 216 451 l 1,0,-1
EndSplineSet
Validated: 1
EndChar

StartChar: acute
Encoding: 180 180 84
Width: 1561
GlyphClass: 2
Flags: W
LayerCount: 2
Fore
SplineSet
687 1126 m 1,0,1
 698 1139 698 1139 820 1288.5 c 128,-1,2
 942 1438 942 1438 982 1481 c 1,3,-1
 990 1489 l 1,4,-1
 1194 1489 l 1,5,-1
 1205 1427 l 1,6,-1
 711 1090 l 1,7,-1
 687 1126 l 1,0,1
EndSplineSet
Validated: 1
EndChar

StartChar: cedilla
Encoding: 184 184 85
Width: 1560
GlyphClass: 2
Flags: W
LayerCount: 2
Fore
SplineSet
-86 -494 m 1,0,1
 -78 -493 -78 -493 -49.5 -489 c 128,-1,2
 -21 -485 -21 -485 -7 -482.5 c 128,-1,3
 7 -480 7 -480 34 -474 c 128,-1,4
 61 -468 61 -468 76.5 -461.5 c 128,-1,5
 92 -455 92 -455 114.5 -443.5 c 128,-1,6
 137 -432 137 -432 150.5 -418 c 128,-1,7
 164 -404 164 -404 176 -384 c 128,-1,8
 188 -364 188 -364 193 -340 c 0,9,10
 204 -294 204 -294 176 -257 c 128,-1,11
 148 -220 148 -220 88 -207 c 1,12,-1
 279 0 l 1,13,-1
 374 0 l 1,14,-1
 264 -115 l 1,15,16
 329 -135 329 -135 367.5 -190 c 128,-1,17
 406 -245 406 -245 390 -315 c 0,18,19
 376 -376 376 -376 335 -423 c 128,-1,20
 294 -470 294 -470 240.5 -495 c 128,-1,21
 187 -520 187 -520 135 -532.5 c 128,-1,22
 83 -545 83 -545 35 -545 c 0,23,24
 -50 -545 -50 -545 -86 -494 c 1,0,1
EndSplineSet
Validated: 33
EndChar

StartChar: guillemotright
Encoding: 187 187 86
Width: 908
GlyphClass: 2
Flags: W
LayerCount: 2
Fore
SplineSet
99 106 m 1,0,-1
 373 483 l 1,1,-1
 273 858 l 1,2,-1
 349 858 l 1,3,-1
 601 483 l 1,4,-1
 173 106 l 1,5,-1
 99 106 l 1,0,-1
470 106 m 1,6,-1
 744 483 l 1,7,-1
 644 858 l 1,8,-1
 722 858 l 1,9,-1
 973 483 l 1,10,-1
 545 106 l 1,11,-1
 470 106 l 1,6,-1
EndSplineSet
Validated: 1
EndChar

StartChar: Agrave
Encoding: 192 192 87
Width: 1472
GlyphClass: 2
Flags: W
LayerCount: 2
Fore
SplineSet
18 0 m 1,0,-1
 217 166 l 1,1,-1
 1039 1489 l 1,2,-1
 1139 1489 l 1,3,-1
 1325 131 l 1,4,-1
 1436 0 l 1,5,-1
 801 0 l 1,6,-1
 1022 154 l 1,7,-1
 989 428 l 1,8,-1
 518 428 l 1,9,-1
 340 135 l 1,10,-1
 472 0 l 1,11,-1
 18 0 l 1,0,-1
702 1855 m 1,12,-1
 744 1919 l 1,13,-1
 986 1919 l 1,14,-1
 1211 1616 l 1,15,-1
 1170 1579 l 1,16,-1
 702 1855 l 1,12,-1
589 545 m 1,17,-1
 976 545 l 1,18,-1
 914 1079 l 1,19,-1
 589 545 l 1,17,-1
EndSplineSet
Validated: 1
EndChar

StartChar: Aacute
Encoding: 193 193 88
Width: 1472
GlyphClass: 2
Flags: W
LayerCount: 2
Fore
SplineSet
18 0 m 1,0,-1
 217 166 l 1,1,-1
 1039 1489 l 1,2,-1
 1139 1489 l 1,3,-1
 1325 131 l 1,4,-1
 1436 0 l 1,5,-1
 801 0 l 1,6,-1
 1022 154 l 1,7,-1
 989 428 l 1,8,-1
 518 428 l 1,9,-1
 340 135 l 1,10,-1
 472 0 l 1,11,-1
 18 0 l 1,0,-1
589 545 m 1,12,-1
 976 545 l 1,13,-1
 914 1079 l 1,14,-1
 589 545 l 1,12,-1
946 1616 m 1,15,-1
 1311 1919 l 1,16,-1
 1553 1919 l 1,17,-1
 1565 1855 l 1,18,-1
 970 1579 l 1,19,-1
 946 1616 l 1,15,-1
EndSplineSet
Validated: 1
EndChar

StartChar: Acircumflex
Encoding: 194 194 89
Width: 1472
GlyphClass: 2
Flags: W
LayerCount: 2
Fore
SplineSet
18 0 m 1,0,-1
 217 166 l 1,1,-1
 1039 1489 l 1,2,-1
 1139 1489 l 1,3,-1
 1325 131 l 1,4,-1
 1436 0 l 1,5,-1
 801 0 l 1,6,-1
 1022 154 l 1,7,-1
 989 428 l 1,8,-1
 518 428 l 1,9,-1
 340 135 l 1,10,-1
 472 0 l 1,11,-1
 18 0 l 1,0,-1
762 1618 m 1,12,-1
 1192 1964 l 1,13,-1
 1461 1620 l 1,14,-1
 1417 1575 l 1,15,-1
 1140 1739 l 1,16,-1
 781 1575 l 1,17,-1
 762 1618 l 1,12,-1
589 545 m 1,18,-1
 976 545 l 1,19,-1
 914 1079 l 1,20,-1
 589 545 l 1,18,-1
EndSplineSet
Validated: 1
EndChar

StartChar: Atilde
Encoding: 195 195 90
Width: 1472
GlyphClass: 2
Flags: W
LayerCount: 2
Fore
SplineSet
18 0 m 1,0,-1
 217 166 l 1,1,-1
 1039 1489 l 1,2,-1
 1139 1489 l 1,3,-1
 1325 131 l 1,4,-1
 1436 0 l 1,5,-1
 801 0 l 1,6,-1
 1022 154 l 1,7,-1
 989 428 l 1,8,-1
 518 428 l 1,9,-1
 340 135 l 1,10,-1
 472 0 l 1,11,-1
 18 0 l 1,0,-1
795 1655 m 1,12,13
 824 1759 824 1759 893 1839 c 128,-1,14
 962 1919 962 1919 1044 1919 c 0,15,16
 1102 1919 1102 1919 1188.5 1871 c 128,-1,17
 1275 1823 1275 1823 1314 1823 c 0,18,19
 1388 1823 1388 1823 1428 1852.5 c 128,-1,20
 1468 1882 1468 1882 1478 1915 c 1,21,-1
 1502 1911 l 1,22,23
 1483 1842 1483 1842 1451 1783.5 c 128,-1,24
 1419 1725 1419 1725 1366.5 1682 c 128,-1,25
 1314 1639 1314 1639 1252 1638 c 0,26,27
 1212 1637 1212 1637 1167 1663 c 128,-1,28
 1122 1689 1122 1689 1075 1715 c 128,-1,29
 1028 1741 1028 1741 983 1741 c 0,30,31
 913 1741 913 1741 871.5 1716.5 c 128,-1,32
 830 1692 830 1692 819 1651 c 1,33,-1
 795 1655 l 1,12,13
589 545 m 1,34,-1
 976 545 l 1,35,-1
 914 1079 l 1,36,-1
 589 545 l 1,34,-1
EndSplineSet
Validated: 33
EndChar

StartChar: Adieresis
Encoding: 196 196 91
Width: 1472
GlyphClass: 2
Flags: W
LayerCount: 2
Fore
SplineSet
18 0 m 1,0,-1
 217 166 l 1,1,-1
 1039 1489 l 1,2,-1
 1139 1489 l 1,3,-1
 1325 131 l 1,4,-1
 1436 0 l 1,5,-1
 801 0 l 1,6,-1
 1022 154 l 1,7,-1
 989 428 l 1,8,-1
 518 428 l 1,9,-1
 340 135 l 1,10,-1
 472 0 l 1,11,-1
 18 0 l 1,0,-1
805.5 1808 m 128,-1,13
 818 1863 818 1863 863 1902.5 c 128,-1,14
 908 1942 908 1942 959 1942 c 256,15,16
 1010 1942 1010 1942 1037 1903 c 128,-1,17
 1064 1864 1064 1864 1051 1808 c 0,18,19
 1038 1753 1038 1753 993.5 1715 c 128,-1,20
 949 1677 949 1677 897 1677 c 0,21,22
 847 1677 847 1677 820 1715 c 128,-1,12
 793 1753 793 1753 805.5 1808 c 128,-1,13
589 545 m 1,23,-1
 976 545 l 1,24,-1
 914 1079 l 1,25,-1
 589 545 l 1,23,-1
1207.5 1808 m 128,-1,27
 1220 1864 1220 1864 1264.5 1903 c 128,-1,28
 1309 1942 1309 1942 1360 1942 c 0,29,30
 1410 1942 1410 1942 1438 1902.5 c 128,-1,31
 1466 1863 1466 1863 1453 1808 c 128,-1,32
 1440 1753 1440 1753 1395 1715 c 128,-1,33
 1350 1677 1350 1677 1299 1677 c 128,-1,34
 1248 1677 1248 1677 1221.5 1714.5 c 128,-1,26
 1195 1752 1195 1752 1207.5 1808 c 128,-1,27
EndSplineSet
Validated: 33
EndChar

StartChar: Aring
Encoding: 197 197 92
Width: 1472
GlyphClass: 2
Flags: W
LayerCount: 2
Fore
SplineSet
18 0 m 1,0,-1
 217 166 l 1,1,-1
 1039 1489 l 1,2,-1
 1139 1489 l 1,3,-1
 1325 131 l 1,4,-1
 1436 0 l 1,5,-1
 801 0 l 1,6,-1
 1022 154 l 1,7,-1
 989 428 l 1,8,-1
 518 428 l 1,9,-1
 340 135 l 1,10,-1
 472 0 l 1,11,-1
 18 0 l 1,0,-1
589 545 m 1,12,-1
 976 545 l 1,13,-1
 914 1079 l 1,14,-1
 589 545 l 1,12,-1
918 1806 m 0,15,16
 938 1892 938 1892 1009 1938.5 c 128,-1,17
 1080 1985 1080 1985 1174 1985 c 0,18,19
 1270 1985 1270 1985 1321 1938.5 c 128,-1,20
 1372 1892 1372 1892 1352 1806 c 0,21,22
 1332 1719 1332 1719 1260 1673.5 c 128,-1,23
 1188 1628 1188 1628 1092 1628 c 0,24,25
 997 1628 997 1628 947.5 1673.5 c 128,-1,26
 898 1719 898 1719 918 1806 c 0,15,16
1049 1806 m 0,27,28
 1025 1702 1025 1702 1110 1702 c 0,29,30
 1197 1702 1197 1702 1222 1806 c 0,31,32
 1247 1915 1247 1915 1160 1915 c 0,33,34
 1074 1915 1074 1915 1049 1806 c 0,27,28
EndSplineSet
Validated: 33
EndChar

StartChar: AE
Encoding: 198 198 93
Width: 1959
GlyphClass: 2
Flags: W
LayerCount: 2
Fore
SplineSet
-45 0 m 1,0,-1
 186 195 l 1,1,-1
 1044 1352 l 1,2,-1
 935 1470 l 1,3,-1
 2167 1470 l 1,4,-1
 2064 940 l 1,5,-1
 1900 1354 l 1,6,-1
 1433 1354 l 1,7,-1
 1301 782 l 1,8,-1
 1547 782 l 1,9,-1
 1793 1069 l 1,10,-1
 1631 371 l 1,11,-1
 1518 657 l 1,12,-1
 1272 657 l 1,13,-1
 1150 127 l 1,14,-1
 1648 127 l 1,15,-1
 2059 592 l 1,16,-1
 1847 0 l 1,17,-1
 657 0 l 1,18,-1
 893 164 l 1,19,-1
 1008 664 l 1,20,-1
 682 664 l 1,21,-1
 293 123 l 1,22,-1
 405 0 l 1,23,-1
 -45 0 l 1,0,-1
766 780 m 1,24,-1
 1035 780 l 1,25,-1
 1161 1325 l 1,26,-1
 766 780 l 1,24,-1
EndSplineSet
Validated: 1
EndChar

StartChar: Ccedilla
Encoding: 199 199 94
Width: 1447
GlyphClass: 2
Flags: W
LayerCount: 2
Fore
SplineSet
252 690 m 0,0,1
 340 1072 340 1072 579 1287.5 c 128,-1,2
 818 1503 818 1503 1135 1503 c 0,3,4
 1209 1503 1209 1503 1285.5 1466.5 c 128,-1,5
 1362 1430 1362 1430 1415 1362 c 1,6,-1
 1643 1522 l 1,7,-1
 1489 856 l 1,8,9
 1478 888 1478 888 1460 937.5 c 128,-1,10
 1442 987 1442 987 1431.5 1016.5 c 128,-1,11
 1421 1046 1421 1046 1405 1088 c 128,-1,12
 1389 1130 1389 1130 1376 1155 c 128,-1,13
 1363 1180 1363 1180 1344.5 1213 c 128,-1,14
 1326 1246 1326 1246 1308.5 1265 c 128,-1,15
 1291 1284 1291 1284 1267.5 1305 c 128,-1,16
 1244 1326 1244 1326 1219 1337 c 128,-1,17
 1194 1348 1194 1348 1162 1355 c 128,-1,18
 1130 1362 1130 1362 1094 1362 c 0,19,20
 981 1362 981 1362 874.5 1283.5 c 128,-1,21
 768 1205 768 1205 687.5 1066.5 c 128,-1,22
 607 928 607 928 566 754 c 0,23,24
 535 619 535 619 531.5 502.5 c 128,-1,25
 528 386 528 386 553 294.5 c 128,-1,26
 578 203 578 203 642.5 150.5 c 128,-1,27
 707 98 707 98 806 98 c 0,28,29
 870 98 870 98 937 126 c 128,-1,30
 1004 154 1004 154 1056.5 194 c 128,-1,31
 1109 234 1109 234 1169 294.5 c 128,-1,32
 1229 355 1229 355 1268 403 c 128,-1,33
 1307 451 1307 451 1357.5 514 c 128,-1,34
 1408 577 1408 577 1431 604 c 1,35,-1
 1278 -61 l 1,36,-1
 1116 106 l 1,37,38
 949 -30 949 -30 747 -37 c 1,39,-1
 673 -115 l 1,40,41
 740 -135 740 -135 780.5 -190.5 c 128,-1,42
 821 -246 821 -246 805 -315 c 0,43,44
 793 -369 793 -369 761.5 -412.5 c 128,-1,45
 730 -456 730 -456 691.5 -482 c 128,-1,46
 653 -508 653 -508 606.5 -525 c 128,-1,47
 560 -542 560 -542 519.5 -548.5 c 128,-1,48
 479 -555 479 -555 441 -555 c 0,49,50
 355 -555 355 -555 320 -504 c 1,51,52
 560 -488 560 -488 594 -340 c 0,53,54
 605 -293 605 -293 580 -256.5 c 128,-1,55
 555 -220 555 -220 497 -207 c 1,56,-1
 657 -33 l 1,57,58
 489 -15 489 -15 381.5 84 c 128,-1,59
 274 183 274 183 240.5 340 c 128,-1,60
 207 497 207 497 252 690 c 0,0,1
EndSplineSet
Validated: 33
EndChar

StartChar: Egrave
Encoding: 200 200 95
Width: 1405
GlyphClass: 2
Flags: W
LayerCount: 2
Fore
SplineSet
46 0 m 1,0,-1
 282 164 l 1,1,-1
 546 1305 l 1,2,-1
 386 1470 l 1,3,-1
 1550 1470 l 1,4,-1
 1460 920 l 1,5,-1
 1241 1354 l 1,6,-1
 824 1354 l 1,7,-1
 699 813 l 1,8,-1
 945 813 l 1,9,-1
 1190 1100 l 1,10,-1
 1029 401 l 1,11,-1
 916 688 l 1,12,-1
 670 688 l 1,13,-1
 541 127 l 1,14,-1
 1037 127 l 1,15,-1
 1450 592 l 1,16,-1
 1237 0 l 1,17,-1
 46 0 l 1,0,-1
774 1855 m 1,18,-1
 815 1919 l 1,19,-1
 1058 1919 l 1,20,-1
 1283 1616 l 1,21,-1
 1241 1579 l 1,22,-1
 774 1855 l 1,18,-1
EndSplineSet
Validated: 1
EndChar

StartChar: Eacute
Encoding: 201 201 96
Width: 1405
GlyphClass: 2
Flags: W
LayerCount: 2
Fore
SplineSet
46 0 m 1,0,-1
 282 164 l 1,1,-1
 546 1305 l 1,2,-1
 386 1470 l 1,3,-1
 1550 1470 l 1,4,-1
 1460 920 l 1,5,-1
 1241 1354 l 1,6,-1
 824 1354 l 1,7,-1
 699 813 l 1,8,-1
 945 813 l 1,9,-1
 1190 1100 l 1,10,-1
 1029 401 l 1,11,-1
 916 688 l 1,12,-1
 670 688 l 1,13,-1
 541 127 l 1,14,-1
 1037 127 l 1,15,-1
 1450 592 l 1,16,-1
 1237 0 l 1,17,-1
 46 0 l 1,0,-1
928 1616 m 1,18,-1
 1293 1919 l 1,19,-1
 1536 1919 l 1,20,-1
 1547 1855 l 1,21,-1
 952 1579 l 1,22,-1
 928 1616 l 1,18,-1
EndSplineSet
Validated: 1
EndChar

StartChar: Ecircumflex
Encoding: 202 202 97
Width: 1405
GlyphClass: 2
Flags: W
LayerCount: 2
Fore
SplineSet
46 0 m 1,0,-1
 282 164 l 1,1,-1
 546 1305 l 1,2,-1
 386 1470 l 1,3,-1
 1550 1470 l 1,4,-1
 1460 920 l 1,5,-1
 1241 1354 l 1,6,-1
 824 1354 l 1,7,-1
 699 813 l 1,8,-1
 945 813 l 1,9,-1
 1190 1100 l 1,10,-1
 1029 401 l 1,11,-1
 916 688 l 1,12,-1
 670 688 l 1,13,-1
 541 127 l 1,14,-1
 1037 127 l 1,15,-1
 1450 592 l 1,16,-1
 1237 0 l 1,17,-1
 46 0 l 1,0,-1
729 1618 m 1,18,-1
 1159 1964 l 1,19,-1
 1429 1620 l 1,20,-1
 1384 1575 l 1,21,-1
 1107 1739 l 1,22,-1
 748 1575 l 1,23,-1
 729 1618 l 1,18,-1
EndSplineSet
Validated: 1
EndChar

StartChar: Edieresis
Encoding: 203 203 98
Width: 1405
GlyphClass: 2
Flags: W
LayerCount: 2
Fore
SplineSet
46 0 m 1,0,-1
 282 164 l 1,1,-1
 546 1305 l 1,2,-1
 386 1470 l 1,3,-1
 1550 1470 l 1,4,-1
 1460 920 l 1,5,-1
 1241 1354 l 1,6,-1
 824 1354 l 1,7,-1
 699 813 l 1,8,-1
 945 813 l 1,9,-1
 1190 1100 l 1,10,-1
 1029 401 l 1,11,-1
 916 688 l 1,12,-1
 670 688 l 1,13,-1
 541 127 l 1,14,-1
 1037 127 l 1,15,-1
 1450 592 l 1,16,-1
 1237 0 l 1,17,-1
 46 0 l 1,0,-1
765 1808 m 128,-1,19
 778 1863 778 1863 823 1902.5 c 128,-1,20
 868 1942 868 1942 918 1942 c 0,21,22
 969 1942 969 1942 996.5 1903 c 128,-1,23
 1024 1864 1024 1864 1011 1808 c 0,24,25
 998 1753 998 1753 953.5 1715 c 128,-1,26
 909 1677 909 1677 857 1677 c 0,27,28
 807 1677 807 1677 779.5 1715 c 128,-1,18
 752 1753 752 1753 765 1808 c 128,-1,19
1167 1808 m 128,-1,30
 1180 1864 1180 1864 1224.5 1903 c 128,-1,31
 1269 1942 1269 1942 1320 1942 c 0,32,33
 1370 1942 1370 1942 1397.5 1902.5 c 128,-1,34
 1425 1863 1425 1863 1412.5 1808 c 128,-1,35
 1400 1753 1400 1753 1355 1715 c 128,-1,36
 1310 1677 1310 1677 1258 1677 c 256,37,38
 1206 1677 1206 1677 1180 1714.5 c 128,-1,29
 1154 1752 1154 1752 1167 1808 c 128,-1,30
EndSplineSet
Validated: 33
EndChar

StartChar: Igrave
Encoding: 204 204 99
Width: 822
GlyphClass: 2
Flags: W
LayerCount: 2
Fore
SplineSet
426 1855 m 1,0,-1
 468 1919 l 1,1,-1
 710 1919 l 1,2,-1
 935 1616 l 1,3,-1
 894 1579 l 1,4,-1
 426 1855 l 1,0,-1
76 0 m 1,5,-1
 312 164 l 1,6,-1
 576 1305 l 1,7,-1
 416 1470 l 1,8,-1
 1088 1470 l 1,9,-1
 841 1296 l 1,10,-1
 581 172 l 1,11,-1
 749 0 l 1,12,-1
 76 0 l 1,5,-1
EndSplineSet
Validated: 1
EndChar

StartChar: Iacute
Encoding: 205 205 100
Width: 822
GlyphClass: 2
Flags: W
LayerCount: 2
Fore
SplineSet
75 0 m 1,0,-1
 311 164 l 1,1,-1
 574 1305 l 1,2,-1
 414 1470 l 1,3,-1
 1086 1470 l 1,4,-1
 839 1296 l 1,5,-1
 579 172 l 1,6,-1
 747 0 l 1,7,-1
 75 0 l 1,0,-1
621 1616 m 1,8,-1
 986 1919 l 1,9,-1
 1228 1919 l 1,10,-1
 1239 1855 l 1,11,-1
 645 1579 l 1,12,-1
 621 1616 l 1,8,-1
EndSplineSet
Validated: 1
EndChar

StartChar: Icircumflex
Encoding: 206 206 101
Width: 821
GlyphClass: 2
Flags: W
LayerCount: 2
Fore
SplineSet
437 1618 m 1,0,-1
 867 1964 l 1,1,-1
 1136 1620 l 1,2,-1
 1091 1575 l 1,3,-1
 815 1739 l 1,4,-1
 455 1575 l 1,5,-1
 437 1618 l 1,0,-1
75 0 m 1,6,-1
 311 164 l 1,7,-1
 574 1305 l 1,8,-1
 414 1470 l 1,9,-1
 1087 1470 l 1,10,-1
 839 1296 l 1,11,-1
 580 172 l 1,12,-1
 747 0 l 1,13,-1
 75 0 l 1,6,-1
EndSplineSet
Validated: 1
EndChar

StartChar: Idieresis
Encoding: 207 207 102
Width: 820
GlyphClass: 2
Flags: W
LayerCount: 2
Fore
SplineSet
75 0 m 1,0,-1
 311 164 l 1,1,-1
 574 1305 l 1,2,-1
 414 1470 l 1,3,-1
 1086 1470 l 1,4,-1
 839 1296 l 1,5,-1
 579 172 l 1,6,-1
 747 0 l 1,7,-1
 75 0 l 1,0,-1
505 1808 m 128,-1,9
 518 1863 518 1863 563 1902.5 c 128,-1,10
 608 1942 608 1942 658 1942 c 0,11,12
 709 1942 709 1942 736 1903 c 128,-1,13
 763 1864 763 1864 751 1808 c 0,14,15
 738 1753 738 1753 693.5 1715 c 128,-1,16
 649 1677 649 1677 597 1677 c 0,17,18
 547 1677 547 1677 519.5 1715 c 128,-1,8
 492 1753 492 1753 505 1808 c 128,-1,9
907 1808 m 128,-1,20
 920 1864 920 1864 964 1903 c 128,-1,21
 1008 1942 1008 1942 1060 1942 c 0,22,23
 1110 1942 1110 1942 1138 1902.5 c 128,-1,24
 1166 1863 1166 1863 1153.5 1808 c 128,-1,25
 1141 1753 1141 1753 1095.5 1715 c 128,-1,26
 1050 1677 1050 1677 998.5 1677 c 128,-1,27
 947 1677 947 1677 920.5 1714.5 c 128,-1,19
 894 1752 894 1752 907 1808 c 128,-1,20
EndSplineSet
Validated: 33
EndChar

StartChar: Ntilde
Encoding: 209 209 103
Width: 1550
GlyphClass: 2
Flags: W
LayerCount: 2
Fore
SplineSet
368 1470 m 1,0,-1
 706 1470 l 1,1,-1
 1330 557 l 1,2,-1
 1504 1313 l 1,3,-1
 1352 1470 l 1,4,-1
 1862 1470 l 1,5,-1
 1631 1309 l 1,6,-1
 1322 -31 l 1,7,-1
 593 1044 l 1,8,-1
 388 158 l 1,9,-1
 541 0 l 1,10,-1
 30 0 l 1,11,-1
 262 162 l 1,12,-1
 519 1276 l 1,13,-1
 368 1470 l 1,0,-1
834 1661 m 1,14,15
 863 1765 863 1765 932 1845 c 128,-1,16
 1001 1925 1001 1925 1084 1925 c 0,17,18
 1142 1925 1142 1925 1228 1877 c 128,-1,19
 1314 1829 1314 1829 1353 1829 c 0,20,21
 1427 1829 1427 1829 1467.5 1858.5 c 128,-1,22
 1508 1888 1508 1888 1517 1921 c 1,23,-1
 1541 1917 l 1,24,25
 1528 1867 1528 1867 1505.5 1821 c 128,-1,26
 1483 1775 1483 1775 1452.5 1734.5 c 128,-1,27
 1422 1694 1422 1694 1380 1670 c 128,-1,28
 1338 1646 1338 1646 1291 1645 c 0,29,30
 1251 1644 1251 1644 1206.5 1669.5 c 128,-1,31
 1162 1695 1162 1695 1115 1721 c 128,-1,32
 1068 1747 1068 1747 1022 1747 c 0,33,34
 952 1747 952 1747 910.5 1722.5 c 128,-1,35
 869 1698 869 1698 858 1657 c 1,36,-1
 834 1661 l 1,14,15
EndSplineSet
Validated: 33
EndChar

StartChar: Ograve
Encoding: 210 210 104
Width: 1540
GlyphClass: 2
Flags: W
LayerCount: 2
Fore
SplineSet
252 731 m 0,0,1
 332 1079 332 1079 572 1296 c 128,-1,2
 812 1513 812 1513 1118 1513 c 0,3,4
 1277 1513 1277 1513 1394 1453 c 128,-1,5
 1511 1393 1511 1393 1572.5 1288 c 128,-1,6
 1634 1183 1634 1183 1648 1041.5 c 128,-1,7
 1662 900 1662 900 1625 735 c 0,8,9
 1544 379 1544 379 1310 169 c 128,-1,10
 1076 -41 1076 -41 758 -47 c 1,11,12
 445 -42 445 -42 307.5 166.5 c 128,-1,13
 170 375 170 375 252 731 c 0,0,1
552 733 m 0,14,15
 528 629 528 629 519.5 536 c 128,-1,16
 511 443 511 443 520 357 c 128,-1,17
 529 271 529 271 558.5 209.5 c 128,-1,18
 588 148 588 148 645.5 111 c 128,-1,19
 703 74 703 74 786 74 c 0,20,21
 868 74 868 74 943 111 c 128,-1,22
 1018 148 1018 148 1076 210 c 128,-1,23
 1134 272 1134 272 1183 357.5 c 128,-1,24
 1232 443 1232 443 1266.5 536.5 c 128,-1,25
 1301 630 1301 630 1325 733 c 0,26,27
 1355 862 1355 862 1360 976 c 128,-1,28
 1365 1090 1365 1090 1342.5 1185 c 128,-1,29
 1320 1280 1320 1280 1256 1336 c 128,-1,30
 1192 1392 1192 1392 1091 1393 c 0,31,32
 1009 1394 1009 1394 934.5 1357 c 128,-1,33
 860 1320 860 1320 802 1257.5 c 128,-1,34
 744 1195 744 1195 694.5 1109 c 128,-1,35
 645 1023 645 1023 610.5 929.5 c 128,-1,36
 576 836 576 836 552 733 c 0,14,15
821 1855 m 1,37,-1
 862 1919 l 1,38,-1
 1104 1919 l 1,39,-1
 1329 1616 l 1,40,-1
 1288 1579 l 1,41,-1
 821 1855 l 1,37,-1
EndSplineSet
Validated: 33
EndChar

StartChar: Oacute
Encoding: 211 211 105
Width: 1540
GlyphClass: 2
Flags: W
LayerCount: 2
Fore
SplineSet
252 731 m 0,0,1
 332 1079 332 1079 572 1296 c 128,-1,2
 812 1513 812 1513 1118 1513 c 0,3,4
 1277 1513 1277 1513 1394 1453 c 128,-1,5
 1511 1393 1511 1393 1572.5 1288 c 128,-1,6
 1634 1183 1634 1183 1648 1041.5 c 128,-1,7
 1662 900 1662 900 1625 735 c 0,8,9
 1544 379 1544 379 1310 169 c 128,-1,10
 1076 -41 1076 -41 758 -47 c 1,11,12
 445 -42 445 -42 307.5 166.5 c 128,-1,13
 170 375 170 375 252 731 c 0,0,1
552 733 m 0,14,15
 528 629 528 629 519.5 536 c 128,-1,16
 511 443 511 443 520 357 c 128,-1,17
 529 271 529 271 558.5 209.5 c 128,-1,18
 588 148 588 148 645.5 111 c 128,-1,19
 703 74 703 74 786 74 c 0,20,21
 868 74 868 74 943 111 c 128,-1,22
 1018 148 1018 148 1076 210 c 128,-1,23
 1134 272 1134 272 1183 357.5 c 128,-1,24
 1232 443 1232 443 1266.5 536.5 c 128,-1,25
 1301 630 1301 630 1325 733 c 0,26,27
 1355 862 1355 862 1360 976 c 128,-1,28
 1365 1090 1365 1090 1342.5 1185 c 128,-1,29
 1320 1280 1320 1280 1256 1336 c 128,-1,30
 1192 1392 1192 1392 1091 1393 c 0,31,32
 1009 1394 1009 1394 934.5 1357 c 128,-1,33
 860 1320 860 1320 802 1257.5 c 128,-1,34
 744 1195 744 1195 694.5 1109 c 128,-1,35
 645 1023 645 1023 610.5 929.5 c 128,-1,36
 576 836 576 836 552 733 c 0,14,15
994 1616 m 1,37,-1
 1359 1919 l 1,38,-1
 1601 1919 l 1,39,-1
 1613 1855 l 1,40,-1
 1018 1579 l 1,41,-1
 994 1616 l 1,37,-1
EndSplineSet
Validated: 33
EndChar

StartChar: Ocircumflex
Encoding: 212 212 106
Width: 1540
GlyphClass: 2
Flags: W
LayerCount: 2
Fore
SplineSet
252 731 m 0,0,1
 332 1079 332 1079 572 1296 c 128,-1,2
 812 1513 812 1513 1118 1513 c 0,3,4
 1277 1513 1277 1513 1394 1453 c 128,-1,5
 1511 1393 1511 1393 1572.5 1288 c 128,-1,6
 1634 1183 1634 1183 1648 1041.5 c 128,-1,7
 1662 900 1662 900 1625 735 c 0,8,9
 1544 379 1544 379 1310 169 c 128,-1,10
 1076 -41 1076 -41 758 -47 c 1,11,12
 445 -42 445 -42 307.5 166.5 c 128,-1,13
 170 375 170 375 252 731 c 0,0,1
552 733 m 0,14,15
 528 629 528 629 519.5 536 c 128,-1,16
 511 443 511 443 520 357 c 128,-1,17
 529 271 529 271 558.5 209.5 c 128,-1,18
 588 148 588 148 645.5 111 c 128,-1,19
 703 74 703 74 786 74 c 0,20,21
 868 74 868 74 943 111 c 128,-1,22
 1018 148 1018 148 1076 210 c 128,-1,23
 1134 272 1134 272 1183 357.5 c 128,-1,24
 1232 443 1232 443 1266.5 536.5 c 128,-1,25
 1301 630 1301 630 1325 733 c 0,26,27
 1355 862 1355 862 1360 976 c 128,-1,28
 1365 1090 1365 1090 1342.5 1185 c 128,-1,29
 1320 1280 1320 1280 1256 1336 c 128,-1,30
 1192 1392 1192 1392 1091 1393 c 0,31,32
 1009 1394 1009 1394 934.5 1357 c 128,-1,33
 860 1320 860 1320 802 1257.5 c 128,-1,34
 744 1195 744 1195 694.5 1109 c 128,-1,35
 645 1023 645 1023 610.5 929.5 c 128,-1,36
 576 836 576 836 552 733 c 0,14,15
795 1618 m 1,37,-1
 1224 1964 l 1,38,-1
 1494 1620 l 1,39,-1
 1449 1575 l 1,40,-1
 1172 1739 l 1,41,-1
 813 1575 l 1,42,-1
 795 1618 l 1,37,-1
EndSplineSet
Validated: 33
EndChar

StartChar: Otilde
Encoding: 213 213 107
Width: 1540
GlyphClass: 2
Flags: W
LayerCount: 2
Fore
SplineSet
252 731 m 0,0,1
 332 1079 332 1079 572 1296 c 128,-1,2
 812 1513 812 1513 1118 1513 c 0,3,4
 1277 1513 1277 1513 1394 1453 c 128,-1,5
 1511 1393 1511 1393 1572.5 1288 c 128,-1,6
 1634 1183 1634 1183 1648 1041.5 c 128,-1,7
 1662 900 1662 900 1625 735 c 0,8,9
 1544 379 1544 379 1310 169 c 128,-1,10
 1076 -41 1076 -41 758 -47 c 1,11,12
 445 -42 445 -42 307.5 166.5 c 128,-1,13
 170 375 170 375 252 731 c 0,0,1
552 733 m 0,14,15
 528 629 528 629 519.5 536 c 128,-1,16
 511 443 511 443 520 357 c 128,-1,17
 529 271 529 271 558.5 209.5 c 128,-1,18
 588 148 588 148 645.5 111 c 128,-1,19
 703 74 703 74 786 74 c 0,20,21
 868 74 868 74 943 111 c 128,-1,22
 1018 148 1018 148 1076 210 c 128,-1,23
 1134 272 1134 272 1183 357.5 c 128,-1,24
 1232 443 1232 443 1266.5 536.5 c 128,-1,25
 1301 630 1301 630 1325 733 c 0,26,27
 1355 862 1355 862 1360 976 c 128,-1,28
 1365 1090 1365 1090 1342.5 1185 c 128,-1,29
 1320 1280 1320 1280 1256 1336 c 128,-1,30
 1192 1392 1192 1392 1091 1393 c 0,31,32
 1009 1394 1009 1394 934.5 1357 c 128,-1,33
 860 1320 860 1320 802 1257.5 c 128,-1,34
 744 1195 744 1195 694.5 1109 c 128,-1,35
 645 1023 645 1023 610.5 929.5 c 128,-1,36
 576 836 576 836 552 733 c 0,14,15
868 1663 m 1,37,38
 897 1767 897 1767 966 1847 c 128,-1,39
 1035 1927 1035 1927 1117 1927 c 0,40,41
 1175 1927 1175 1927 1261 1879 c 128,-1,42
 1347 1831 1347 1831 1386 1831 c 0,43,44
 1460 1831 1460 1831 1500.5 1860.5 c 128,-1,45
 1541 1890 1541 1890 1551 1923 c 1,46,-1
 1575 1919 l 1,47,48
 1562 1869 1562 1869 1539.5 1823 c 128,-1,49
 1517 1777 1517 1777 1486 1736.5 c 128,-1,50
 1455 1696 1455 1696 1413.5 1672 c 128,-1,51
 1372 1648 1372 1648 1325 1647 c 0,52,53
 1285 1646 1285 1646 1240 1671.5 c 128,-1,54
 1195 1697 1195 1697 1147.5 1723 c 128,-1,55
 1100 1749 1100 1749 1055 1749 c 0,56,57
 985 1749 985 1749 944 1725 c 128,-1,58
 903 1701 903 1701 892 1659 c 1,59,-1
 868 1663 l 1,37,38
EndSplineSet
Validated: 33
EndChar

StartChar: Odieresis
Encoding: 214 214 108
Width: 1540
GlyphClass: 2
Flags: W
LayerCount: 2
Fore
SplineSet
252 731 m 0,0,1
 332 1079 332 1079 572 1296 c 128,-1,2
 812 1513 812 1513 1118 1513 c 0,3,4
 1277 1513 1277 1513 1394 1453 c 128,-1,5
 1511 1393 1511 1393 1572.5 1288 c 128,-1,6
 1634 1183 1634 1183 1648 1041.5 c 128,-1,7
 1662 900 1662 900 1625 735 c 0,8,9
 1544 379 1544 379 1310 169 c 128,-1,10
 1076 -41 1076 -41 758 -47 c 1,11,12
 445 -42 445 -42 307.5 166.5 c 128,-1,13
 170 375 170 375 252 731 c 0,0,1
552 733 m 0,14,15
 528 629 528 629 519.5 536 c 128,-1,16
 511 443 511 443 520 357 c 128,-1,17
 529 271 529 271 558.5 209.5 c 128,-1,18
 588 148 588 148 645.5 111 c 128,-1,19
 703 74 703 74 786 74 c 0,20,21
 868 74 868 74 943 111 c 128,-1,22
 1018 148 1018 148 1076 210 c 128,-1,23
 1134 272 1134 272 1183 357.5 c 128,-1,24
 1232 443 1232 443 1266.5 536.5 c 128,-1,25
 1301 630 1301 630 1325 733 c 0,26,27
 1355 862 1355 862 1360 976 c 128,-1,28
 1365 1090 1365 1090 1342.5 1185 c 128,-1,29
 1320 1280 1320 1280 1256 1336 c 128,-1,30
 1192 1392 1192 1392 1091 1393 c 0,31,32
 1009 1394 1009 1394 934.5 1357 c 128,-1,33
 860 1320 860 1320 802 1257.5 c 128,-1,34
 744 1195 744 1195 694.5 1109 c 128,-1,35
 645 1023 645 1023 610.5 929.5 c 128,-1,36
 576 836 576 836 552 733 c 0,14,15
863 1808 m 128,-1,38
 876 1863 876 1863 920.5 1902.5 c 128,-1,39
 965 1942 965 1942 1016 1942 c 256,40,41
 1067 1942 1067 1942 1094 1903 c 128,-1,42
 1121 1864 1121 1864 1108 1808 c 0,43,44
 1095 1753 1095 1753 1051 1715 c 128,-1,45
 1007 1677 1007 1677 954 1677 c 0,46,47
 904 1677 904 1677 877 1715 c 128,-1,37
 850 1753 850 1753 863 1808 c 128,-1,38
1265 1808 m 128,-1,49
 1278 1864 1278 1864 1322 1903 c 128,-1,50
 1366 1942 1366 1942 1417 1942 c 0,51,52
 1467 1942 1467 1942 1495.5 1902.5 c 128,-1,53
 1524 1863 1524 1863 1511 1808 c 128,-1,54
 1498 1753 1498 1753 1452.5 1715 c 128,-1,55
 1407 1677 1407 1677 1356 1677 c 0,56,57
 1304 1677 1304 1677 1278 1714.5 c 128,-1,48
 1252 1752 1252 1752 1265 1808 c 128,-1,49
EndSplineSet
Validated: 33
EndChar

StartChar: Ugrave
Encoding: 217 217 109
Width: 1531
GlyphClass: 2
Flags: W
LayerCount: 2
Fore
SplineSet
358 1470 m 1,0,-1
 1030 1470 l 1,1,-1
 806 1313 l 1,2,-1
 628 543 l 2,3,4
 610 466 610 466 604.5 404.5 c 128,-1,5
 599 343 599 343 609 285.5 c 128,-1,6
 619 228 619 228 647 190 c 128,-1,7
 675 152 675 152 731 129 c 128,-1,8
 787 106 787 106 868 106 c 0,9,10
 952 106 952 106 1022 136 c 128,-1,11
 1092 166 1092 166 1153.5 230 c 128,-1,12
 1215 294 1215 294 1264 400.5 c 128,-1,13
 1313 507 1313 507 1347 655 c 2,14,-1
 1497 1315 l 1,15,-1
 1348 1470 l 1,16,-1
 1859 1470 l 1,17,-1
 1639 1317 l 1,18,-1
 1482 635 l 2,19,20
 1457 526 1457 526 1421 432.5 c 128,-1,21
 1385 339 1385 339 1326 247 c 128,-1,22
 1267 155 1267 155 1192 90.5 c 128,-1,23
 1117 26 1117 26 1009.5 -13.5 c 128,-1,24
 902 -53 902 -53 774 -53 c 0,25,26
 644 -53 644 -53 552 -21.5 c 128,-1,27
 460 10 460 10 408.5 64.5 c 128,-1,28
 357 119 357 119 335.5 201 c 128,-1,29
 314 283 314 283 319.5 376.5 c 128,-1,30
 325 470 325 470 352 586 c 2,31,-1
 518 1305 l 1,32,-1
 358 1470 l 1,0,-1
835 1855 m 1,33,-1
 877 1919 l 1,34,-1
 1119 1919 l 1,35,-1
 1344 1616 l 1,36,-1
 1303 1579 l 1,37,-1
 835 1855 l 1,33,-1
EndSplineSet
Validated: 33
EndChar

StartChar: Uacute
Encoding: 218 218 110
Width: 1531
GlyphClass: 2
Flags: W
LayerCount: 2
Fore
SplineSet
358 1470 m 1,0,-1
 1030 1470 l 1,1,-1
 806 1313 l 1,2,-1
 628 543 l 2,3,4
 610 466 610 466 604.5 404.5 c 128,-1,5
 599 343 599 343 609 285.5 c 128,-1,6
 619 228 619 228 647 190 c 128,-1,7
 675 152 675 152 731 129 c 128,-1,8
 787 106 787 106 868 106 c 0,9,10
 952 106 952 106 1022 136 c 128,-1,11
 1092 166 1092 166 1153.5 230 c 128,-1,12
 1215 294 1215 294 1264 400.5 c 128,-1,13
 1313 507 1313 507 1347 655 c 2,14,-1
 1497 1315 l 1,15,-1
 1348 1470 l 1,16,-1
 1859 1470 l 1,17,-1
 1639 1317 l 1,18,-1
 1482 635 l 2,19,20
 1457 526 1457 526 1421 432.5 c 128,-1,21
 1385 339 1385 339 1326 247 c 128,-1,22
 1267 155 1267 155 1192 90.5 c 128,-1,23
 1117 26 1117 26 1009.5 -13.5 c 128,-1,24
 902 -53 902 -53 774 -53 c 0,25,26
 644 -53 644 -53 552 -21.5 c 128,-1,27
 460 10 460 10 408.5 64.5 c 128,-1,28
 357 119 357 119 335.5 201 c 128,-1,29
 314 283 314 283 319.5 376.5 c 128,-1,30
 325 470 325 470 352 586 c 2,31,-1
 518 1305 l 1,32,-1
 358 1470 l 1,0,-1
1102 1616 m 1,33,-1
 1467 1919 l 1,34,-1
 1709 1919 l 1,35,-1
 1721 1855 l 1,36,-1
 1126 1579 l 1,37,-1
 1102 1616 l 1,33,-1
EndSplineSet
Validated: 33
EndChar

StartChar: Ucircumflex
Encoding: 219 219 111
Width: 1531
GlyphClass: 2
Flags: W
LayerCount: 2
Fore
SplineSet
358 1470 m 1,0,-1
 1030 1470 l 1,1,-1
 806 1313 l 1,2,-1
 628 543 l 2,3,4
 610 466 610 466 604.5 404.5 c 128,-1,5
 599 343 599 343 609 285.5 c 128,-1,6
 619 228 619 228 647 190 c 128,-1,7
 675 152 675 152 731 129 c 128,-1,8
 787 106 787 106 868 106 c 0,9,10
 952 106 952 106 1022 136 c 128,-1,11
 1092 166 1092 166 1153.5 230 c 128,-1,12
 1215 294 1215 294 1264 400.5 c 128,-1,13
 1313 507 1313 507 1347 655 c 2,14,-1
 1497 1315 l 1,15,-1
 1348 1470 l 1,16,-1
 1859 1470 l 1,17,-1
 1639 1317 l 1,18,-1
 1482 635 l 2,19,20
 1457 526 1457 526 1421 432.5 c 128,-1,21
 1385 339 1385 339 1326 247 c 128,-1,22
 1267 155 1267 155 1192 90.5 c 128,-1,23
 1117 26 1117 26 1009.5 -13.5 c 128,-1,24
 902 -53 902 -53 774 -53 c 0,25,26
 644 -53 644 -53 552 -21.5 c 128,-1,27
 460 10 460 10 408.5 64.5 c 128,-1,28
 357 119 357 119 335.5 201 c 128,-1,29
 314 283 314 283 319.5 376.5 c 128,-1,30
 325 470 325 470 352 586 c 2,31,-1
 518 1305 l 1,32,-1
 358 1470 l 1,0,-1
886 1618 m 1,33,-1
 1316 1964 l 1,34,-1
 1585 1620 l 1,35,-1
 1541 1575 l 1,36,-1
 1264 1739 l 1,37,-1
 904 1575 l 1,38,-1
 886 1618 l 1,33,-1
EndSplineSet
Validated: 33
EndChar

StartChar: Udieresis
Encoding: 220 220 112
Width: 1531
GlyphClass: 2
Flags: W
LayerCount: 2
Fore
SplineSet
358 1470 m 1,0,-1
 1030 1470 l 1,1,-1
 806 1313 l 1,2,-1
 628 543 l 2,3,4
 610 466 610 466 604.5 404.5 c 128,-1,5
 599 343 599 343 609 285.5 c 128,-1,6
 619 228 619 228 647 190 c 128,-1,7
 675 152 675 152 731 129 c 128,-1,8
 787 106 787 106 868 106 c 0,9,10
 952 106 952 106 1022 136 c 128,-1,11
 1092 166 1092 166 1153.5 230 c 128,-1,12
 1215 294 1215 294 1264 400.5 c 128,-1,13
 1313 507 1313 507 1347 655 c 2,14,-1
 1497 1315 l 1,15,-1
 1348 1470 l 1,16,-1
 1859 1470 l 1,17,-1
 1639 1317 l 1,18,-1
 1482 635 l 2,19,20
 1457 526 1457 526 1421 432.5 c 128,-1,21
 1385 339 1385 339 1326 247 c 128,-1,22
 1267 155 1267 155 1192 90.5 c 128,-1,23
 1117 26 1117 26 1009.5 -13.5 c 128,-1,24
 902 -53 902 -53 774 -53 c 0,25,26
 644 -53 644 -53 552 -21.5 c 128,-1,27
 460 10 460 10 408.5 64.5 c 128,-1,28
 357 119 357 119 335.5 201 c 128,-1,29
 314 283 314 283 319.5 376.5 c 128,-1,30
 325 470 325 470 352 586 c 2,31,-1
 518 1305 l 1,32,-1
 358 1470 l 1,0,-1
950 1808 m 128,-1,34
 963 1863 963 1863 1008 1902.5 c 128,-1,35
 1053 1942 1053 1942 1104 1942 c 256,36,37
 1155 1942 1155 1942 1182 1903 c 128,-1,38
 1209 1864 1209 1864 1196 1808 c 0,39,40
 1183 1753 1183 1753 1138.5 1715 c 128,-1,41
 1094 1677 1094 1677 1042 1677 c 0,42,43
 992 1677 992 1677 964.5 1715 c 128,-1,33
 937 1753 937 1753 950 1808 c 128,-1,34
1353 1808 m 128,-1,45
 1366 1864 1366 1864 1410 1903 c 128,-1,46
 1454 1942 1454 1942 1505 1942 c 0,47,48
 1555 1942 1555 1942 1583 1902.5 c 128,-1,49
 1611 1863 1611 1863 1598 1808 c 128,-1,50
 1585 1753 1585 1753 1540 1715 c 128,-1,51
 1495 1677 1495 1677 1444 1677 c 128,-1,52
 1393 1677 1393 1677 1366.5 1714.5 c 128,-1,44
 1340 1752 1340 1752 1353 1808 c 128,-1,45
EndSplineSet
Validated: 33
EndChar

StartChar: Yacute
Encoding: 221 221 113
Width: 1441
GlyphClass: 2
Flags: W
LayerCount: 2
Fore
SplineSet
339 1470 m 1,0,-1
 1012 1470 l 1,1,-1
 803 1323 l 1,2,-1
 974 715 l 1,3,-1
 1426 1309 l 1,4,-1
 1270 1470 l 1,5,-1
 1781 1470 l 1,6,-1
 1568 1321 l 1,7,-1
 991 586 l 1,8,-1
 895 172 l 1,9,-1
 1063 0 l 1,10,-1
 391 0 l 1,11,-1
 627 164 l 1,12,-1
 717 555 l 1,13,-1
 508 1294 l 1,14,-1
 339 1470 l 1,0,-1
1089 1616 m 1,15,-1
 1454 1919 l 1,16,-1
 1697 1919 l 1,17,-1
 1708 1855 l 1,18,-1
 1113 1579 l 1,19,-1
 1089 1616 l 1,15,-1
EndSplineSet
Validated: 1
EndChar

StartChar: agrave
Encoding: 224 224 114
Width: 982
GlyphClass: 2
Flags: W
LayerCount: 2
Fore
SplineSet
124 194 m 0,0,1
 146 289 146 289 222.5 351.5 c 128,-1,2
 299 414 299 414 398 439 c 0,3,4
 411 442 411 442 449.5 451 c 128,-1,5
 488 460 488 460 505 464 c 128,-1,6
 522 468 522 468 556.5 479 c 128,-1,7
 591 490 591 490 609.5 499.5 c 128,-1,8
 628 509 628 509 654.5 526 c 128,-1,9
 681 543 681 543 696.5 561.5 c 128,-1,10
 712 580 712 580 725.5 606 c 128,-1,11
 739 632 739 632 746 662 c 1,12,-1
 748 662 l 1,13,14
 764 756 764 756 727 810 c 128,-1,15
 690 864 690 864 621 864 c 0,16,17
 572 864 572 864 522 852.5 c 128,-1,18
 472 841 472 841 448 814 c 1,19,20
 499 791 499 791 512.5 756 c 128,-1,21
 526 721 526 721 513 669 c 0,22,23
 500 614 500 614 453 574 c 128,-1,24
 406 534 406 534 356 534 c 0,25,26
 297 534 297 534 275 578 c 128,-1,27
 253 622 253 622 269 692 c 0,28,29
 290 783 290 783 416 873 c 128,-1,30
 542 963 542 963 675 963 c 2,31,-1
 703 963 l 2,32,33
 765 963 765 963 816 946 c 128,-1,34
 867 929 867 929 906 892 c 128,-1,35
 945 855 945 855 956.5 786.5 c 128,-1,36
 968 718 968 718 947 626 c 0,37,38
 938 587 938 587 893 396 c 128,-1,39
 848 205 848 205 838 160 c 1,40,-1
 934 0 l 1,41,-1
 641 0 l 1,42,-1
 631 156 l 1,43,44
 571 74 571 74 476 22.5 c 128,-1,45
 381 -29 381 -29 291 -29 c 0,46,47
 232 -29 232 -29 192.5 -7 c 128,-1,48
 153 15 153 15 137.5 50 c 128,-1,49
 122 85 122 85 119 121.5 c 128,-1,50
 116 158 116 158 124 194 c 0,0,1
603 1421 m 1,51,-1
 644 1489 l 1,52,-1
 834 1489 l 1,53,-1
 837 1480 l 2,54,55
 854 1433 854 1433 898.5 1268 c 128,-1,56
 943 1103 943 1103 947 1089 c 1,57,-1
 907 1049 l 1,58,-1
 603 1421 l 1,51,-1
347 217 m 0,60,61
 337 176 337 176 358 150.5 c 128,-1,62
 379 125 379 125 415 125 c 0,63,64
 471 125 471 125 540 162 c 128,-1,65
 609 199 609 199 652 269 c 1,66,-1
 709 501 l 1,67,68
 642 430 642 430 515 380 c 0,69,70
 435 345 435 345 397.5 308.5 c 128,-1,59
 360 272 360 272 347 217 c 0,60,61
EndSplineSet
Validated: 33
EndChar

StartChar: aacute
Encoding: 225 225 115
Width: 982
GlyphClass: 2
Flags: W
LayerCount: 2
Fore
SplineSet
124 194 m 0,0,1
 146 289 146 289 222.5 351.5 c 128,-1,2
 299 414 299 414 398 439 c 0,3,4
 411 442 411 442 449.5 451 c 128,-1,5
 488 460 488 460 505 464 c 128,-1,6
 522 468 522 468 556.5 479 c 128,-1,7
 591 490 591 490 609.5 499.5 c 128,-1,8
 628 509 628 509 654.5 526 c 128,-1,9
 681 543 681 543 696.5 561.5 c 128,-1,10
 712 580 712 580 725.5 606 c 128,-1,11
 739 632 739 632 746 662 c 1,12,-1
 748 662 l 1,13,14
 764 756 764 756 727 810 c 128,-1,15
 690 864 690 864 621 864 c 0,16,17
 572 864 572 864 522 852.5 c 128,-1,18
 472 841 472 841 448 814 c 1,19,20
 499 791 499 791 512.5 756 c 128,-1,21
 526 721 526 721 513 669 c 0,22,23
 500 614 500 614 453 574 c 128,-1,24
 406 534 406 534 356 534 c 0,25,26
 297 534 297 534 275 578 c 128,-1,27
 253 622 253 622 269 692 c 0,28,29
 290 783 290 783 416 873 c 128,-1,30
 542 963 542 963 675 963 c 2,31,-1
 703 963 l 2,32,33
 765 963 765 963 816 946 c 128,-1,34
 867 929 867 929 906 892 c 128,-1,35
 945 855 945 855 956.5 786.5 c 128,-1,36
 968 718 968 718 947 626 c 0,37,38
 938 587 938 587 893 396 c 128,-1,39
 848 205 848 205 838 160 c 1,40,-1
 934 0 l 1,41,-1
 641 0 l 1,42,-1
 631 156 l 1,43,44
 571 74 571 74 476 22.5 c 128,-1,45
 381 -29 381 -29 291 -29 c 0,46,47
 232 -29 232 -29 192.5 -7 c 128,-1,48
 153 15 153 15 137.5 50 c 128,-1,49
 122 85 122 85 119 121.5 c 128,-1,50
 116 158 116 158 124 194 c 0,0,1
347 217 m 0,51,52
 337 176 337 176 358 150.5 c 128,-1,53
 379 125 379 125 415 125 c 0,54,55
 471 125 471 125 540 162 c 128,-1,56
 609 199 609 199 652 269 c 1,57,-1
 709 501 l 1,58,59
 642 430 642 430 515 380 c 0,60,61
 435 345 435 345 397.5 308.5 c 128,-1,62
 360 272 360 272 347 217 c 0,51,52
668 1089 m 1,63,64
 679 1103 679 1103 798 1268 c 128,-1,65
 917 1433 917 1433 955 1480 c 1,66,-1
 963 1489 l 1,67,-1
 1157 1489 l 1,68,-1
 1165 1421 l 1,69,-1
 688 1049 l 1,70,-1
 668 1089 l 1,63,64
EndSplineSet
Validated: 33
EndChar

StartChar: acircumflex
Encoding: 226 226 116
Width: 982
GlyphClass: 2
Flags: W
LayerCount: 2
Fore
SplineSet
124 194 m 0,0,1
 146 289 146 289 222.5 351.5 c 128,-1,2
 299 414 299 414 398 439 c 0,3,4
 411 442 411 442 449.5 451 c 128,-1,5
 488 460 488 460 505 464 c 128,-1,6
 522 468 522 468 556.5 479 c 128,-1,7
 591 490 591 490 609.5 499.5 c 128,-1,8
 628 509 628 509 654.5 526 c 128,-1,9
 681 543 681 543 696.5 561.5 c 128,-1,10
 712 580 712 580 725.5 606 c 128,-1,11
 739 632 739 632 746 662 c 1,12,-1
 748 662 l 1,13,14
 764 756 764 756 727 810 c 128,-1,15
 690 864 690 864 621 864 c 0,16,17
 572 864 572 864 522 852.5 c 128,-1,18
 472 841 472 841 448 814 c 1,19,20
 499 791 499 791 512.5 756 c 128,-1,21
 526 721 526 721 513 669 c 0,22,23
 500 614 500 614 453 574 c 128,-1,24
 406 534 406 534 356 534 c 0,25,26
 297 534 297 534 275 578 c 128,-1,27
 253 622 253 622 269 692 c 0,28,29
 290 783 290 783 416 873 c 128,-1,30
 542 963 542 963 675 963 c 2,31,-1
 703 963 l 2,32,33
 765 963 765 963 816 946 c 128,-1,34
 867 929 867 929 906 892 c 128,-1,35
 945 855 945 855 956.5 786.5 c 128,-1,36
 968 718 968 718 947 626 c 0,37,38
 938 587 938 587 893 396 c 128,-1,39
 848 205 848 205 838 160 c 1,40,-1
 934 0 l 1,41,-1
 641 0 l 1,42,-1
 631 156 l 1,43,44
 571 74 571 74 476 22.5 c 128,-1,45
 381 -29 381 -29 291 -29 c 0,46,47
 232 -29 232 -29 192.5 -7 c 128,-1,48
 153 15 153 15 137.5 50 c 128,-1,49
 122 85 122 85 119 121.5 c 128,-1,50
 116 158 116 158 124 194 c 0,0,1
457 1122 m 1,51,-1
 839 1503 l 1,52,-1
 1044 1125 l 1,53,-1
 1000 1075 l 1,54,-1
 781 1256 l 1,55,-1
 474 1075 l 1,56,-1
 457 1122 l 1,51,-1
347 217 m 0,57,58
 337 176 337 176 358 150.5 c 128,-1,59
 379 125 379 125 415 125 c 0,60,61
 471 125 471 125 540 162 c 128,-1,62
 609 199 609 199 652 269 c 1,63,-1
 709 501 l 1,64,65
 642 430 642 430 515 380 c 0,66,67
 435 345 435 345 397.5 308.5 c 128,-1,68
 360 272 360 272 347 217 c 0,57,58
EndSplineSet
Validated: 33
EndChar

StartChar: atilde
Encoding: 227 227 117
Width: 982
GlyphClass: 2
Flags: W
LayerCount: 2
Fore
SplineSet
124 194 m 0,0,1
 146 289 146 289 222.5 351.5 c 128,-1,2
 299 414 299 414 398 439 c 0,3,4
 411 442 411 442 449.5 451 c 128,-1,5
 488 460 488 460 505 464 c 128,-1,6
 522 468 522 468 556.5 479 c 128,-1,7
 591 490 591 490 609.5 499.5 c 128,-1,8
 628 509 628 509 654.5 526 c 128,-1,9
 681 543 681 543 696.5 561.5 c 128,-1,10
 712 580 712 580 725.5 606 c 128,-1,11
 739 632 739 632 746 662 c 1,12,-1
 748 662 l 1,13,14
 764 756 764 756 727 810 c 128,-1,15
 690 864 690 864 621 864 c 0,16,17
 572 864 572 864 522 852.5 c 128,-1,18
 472 841 472 841 448 814 c 1,19,20
 499 791 499 791 512.5 756 c 128,-1,21
 526 721 526 721 513 669 c 0,22,23
 500 614 500 614 453 574 c 128,-1,24
 406 534 406 534 356 534 c 0,25,26
 297 534 297 534 275 578 c 128,-1,27
 253 622 253 622 269 692 c 0,28,29
 290 783 290 783 416 873 c 128,-1,30
 542 963 542 963 675 963 c 2,31,-1
 703 963 l 2,32,33
 765 963 765 963 816 946 c 128,-1,34
 867 929 867 929 906 892 c 128,-1,35
 945 855 945 855 956.5 786.5 c 128,-1,36
 968 718 968 718 947 626 c 0,37,38
 938 587 938 587 893 396 c 128,-1,39
 848 205 848 205 838 160 c 1,40,-1
 934 0 l 1,41,-1
 641 0 l 1,42,-1
 631 156 l 1,43,44
 571 74 571 74 476 22.5 c 128,-1,45
 381 -29 381 -29 291 -29 c 0,46,47
 232 -29 232 -29 192.5 -7 c 128,-1,48
 153 15 153 15 137.5 50 c 128,-1,49
 122 85 122 85 119 121.5 c 128,-1,50
 116 158 116 158 124 194 c 0,0,1
518 1190 m 1,51,52
 545 1287 545 1287 603.5 1360.5 c 128,-1,53
 662 1434 662 1434 731 1434 c 0,54,55
 778 1434 778 1434 848 1390 c 128,-1,56
 918 1346 918 1346 950 1346 c 0,57,58
 1011 1346 1011 1346 1045 1373 c 128,-1,59
 1079 1400 1079 1400 1087 1430 c 1,60,-1
 1107 1425 l 1,61,62
 1090 1361 1090 1361 1062.5 1308 c 128,-1,63
 1035 1255 1035 1255 990.5 1216 c 128,-1,64
 946 1177 946 1177 895 1176 c 0,65,66
 855 1175 855 1175 787.5 1222.5 c 128,-1,67
 720 1270 720 1270 675 1270 c 0,68,69
 617 1270 617 1270 582.5 1247.5 c 128,-1,70
 548 1225 548 1225 538 1186 c 1,71,-1
 518 1190 l 1,51,52
347 217 m 0,72,73
 337 176 337 176 358 150.5 c 128,-1,74
 379 125 379 125 415 125 c 0,75,76
 471 125 471 125 540 162 c 128,-1,77
 609 199 609 199 652 269 c 1,78,-1
 709 501 l 1,79,80
 642 430 642 430 515 380 c 0,81,82
 435 345 435 345 397.5 308.5 c 128,-1,83
 360 272 360 272 347 217 c 0,72,73
EndSplineSet
Validated: 33
EndChar

StartChar: adieresis
Encoding: 228 228 118
Width: 987
GlyphClass: 2
Flags: W
LayerCount: 2
Fore
SplineSet
124 194 m 0,0,1
 146 289 146 289 223.5 351.5 c 128,-1,2
 301 414 301 414 400 439 c 0,3,4
 413 442 413 442 452 451 c 128,-1,5
 491 460 491 460 508.5 464 c 128,-1,6
 526 468 526 468 560.5 479 c 128,-1,7
 595 490 595 490 614 499.5 c 128,-1,8
 633 509 633 509 659.5 526 c 128,-1,9
 686 543 686 543 701.5 561.5 c 128,-1,10
 717 580 717 580 731 606 c 128,-1,11
 745 632 745 632 752 662 c 1,12,-1
 754 662 l 1,13,14
 770 756 770 756 732 810 c 128,-1,15
 694 864 694 864 623 864 c 0,16,17
 573 864 573 864 522.5 852.5 c 128,-1,18
 472 841 472 841 448 814 c 1,19,20
 499 791 499 791 512.5 756 c 128,-1,21
 526 721 526 721 514 669 c 0,22,23
 501 614 501 614 453.5 574 c 128,-1,24
 406 534 406 534 356 534 c 0,25,26
 297 534 297 534 275 578 c 128,-1,27
 253 622 253 622 269 692 c 0,28,29
 290 783 290 783 417 873 c 128,-1,30
 544 963 544 963 677 963 c 2,31,-1
 706 963 l 2,32,33
 769 963 769 963 820 946 c 128,-1,34
 871 929 871 929 910.5 892 c 128,-1,35
 950 855 950 855 962 786.5 c 128,-1,36
 974 718 974 718 952 626 c 0,37,38
 943 587 943 587 898.5 396 c 128,-1,39
 854 205 854 205 843 160 c 1,40,-1
 940 0 l 1,41,-1
 646 0 l 1,42,-1
 637 156 l 1,43,44
 577 74 577 74 480.5 22.5 c 128,-1,45
 384 -29 384 -29 294 -29 c 0,46,47
 235 -29 235 -29 194.5 -7 c 128,-1,48
 154 15 154 15 138 50 c 128,-1,49
 122 85 122 85 119 121.5 c 128,-1,50
 116 158 116 158 124 194 c 0,0,1
523 1319 m 128,-1,52
 535 1372 535 1372 576 1409 c 128,-1,53
 617 1446 617 1446 664 1446 c 256,54,55
 711 1446 711 1446 735 1409 c 128,-1,56
 759 1372 759 1372 747 1319 c 0,57,58
 735 1267 735 1267 693.5 1230.5 c 128,-1,59
 652 1194 652 1194 605 1194 c 128,-1,60
 558 1194 558 1194 534.5 1230 c 128,-1,51
 511 1266 511 1266 523 1319 c 128,-1,52
347 217 m 0,61,62
 337 176 337 176 358.5 150.5 c 128,-1,63
 380 125 380 125 417 125 c 0,64,65
 474 125 474 125 544 162 c 128,-1,66
 614 199 614 199 658 269 c 1,67,-1
 715 501 l 1,68,69
 647 430 647 430 517 380 c 0,70,71
 436 345 436 345 398 308.5 c 128,-1,72
 360 272 360 272 347 217 c 0,61,62
848 1319 m 128,-1,74
 860 1372 860 1372 901.5 1409 c 128,-1,75
 943 1446 943 1446 989 1446 c 0,76,77
 1036 1446 1036 1446 1060.5 1409 c 128,-1,78
 1085 1372 1085 1372 1072 1319 c 0,79,80
 1060 1267 1060 1267 1019 1230.5 c 128,-1,81
 978 1194 978 1194 930.5 1194 c 128,-1,82
 883 1194 883 1194 859.5 1230 c 128,-1,73
 836 1266 836 1266 848 1319 c 128,-1,74
EndSplineSet
Validated: 33
EndChar

StartChar: aring
Encoding: 229 229 119
Width: 985
GlyphClass: 2
Flags: W
LayerCount: 2
Fore
SplineSet
124 194 m 0,0,1
 146 289 146 289 223 351.5 c 128,-1,2
 300 414 300 414 399 439 c 0,3,4
 412 442 412 442 451 451 c 128,-1,5
 490 460 490 460 507.5 464 c 128,-1,6
 525 468 525 468 559.5 479 c 128,-1,7
 594 490 594 490 612.5 499.5 c 128,-1,8
 631 509 631 509 657.5 526 c 128,-1,9
 684 543 684 543 699.5 561.5 c 128,-1,10
 715 580 715 580 729 606 c 128,-1,11
 743 632 743 632 750 662 c 1,12,-1
 751 662 l 1,13,14
 767 756 767 756 729.5 810 c 128,-1,15
 692 864 692 864 622 864 c 0,16,17
 572 864 572 864 522 852.5 c 128,-1,18
 472 841 472 841 448 814 c 1,19,20
 499 791 499 791 512.5 756 c 128,-1,21
 526 721 526 721 514 669 c 0,22,23
 501 614 501 614 453.5 574 c 128,-1,24
 406 534 406 534 356 534 c 0,25,26
 297 534 297 534 275 578 c 128,-1,27
 253 622 253 622 269 692 c 0,28,29
 290 783 290 783 416.5 873 c 128,-1,30
 543 963 543 963 676 963 c 2,31,-1
 705 963 l 2,32,33
 768 963 768 963 818.5 946 c 128,-1,34
 869 929 869 929 908.5 892 c 128,-1,35
 948 855 948 855 960 786.5 c 128,-1,36
 972 718 972 718 950 626 c 0,37,38
 941 587 941 587 896 396 c 128,-1,39
 851 205 851 205 841 160 c 1,40,-1
 937 0 l 1,41,-1
 644 0 l 1,42,-1
 635 156 l 1,43,44
 575 74 575 74 479 22.5 c 128,-1,45
 383 -29 383 -29 293 -29 c 0,46,47
 234 -29 234 -29 193.5 -7 c 128,-1,48
 153 15 153 15 137.5 50 c 128,-1,49
 122 85 122 85 119 121.5 c 128,-1,50
 116 158 116 158 124 194 c 0,0,1
347 217 m 0,51,52
 337 176 337 176 358.5 150.5 c 128,-1,53
 380 125 380 125 416 125 c 0,54,55
 473 125 473 125 542.5 162 c 128,-1,56
 612 199 612 199 655 269 c 1,57,-1
 712 501 l 1,58,59
 644 430 644 430 516 380 c 0,60,61
 436 345 436 345 398 308.5 c 128,-1,62
 360 272 360 272 347 217 c 0,51,52
618.5 1309 m 128,-1,64
 639 1397 639 1397 704.5 1444 c 128,-1,65
 770 1491 770 1491 857 1491 c 128,-1,66
 944 1491 944 1491 988 1444 c 128,-1,67
 1032 1397 1032 1397 1012 1309 c 128,-1,68
 992 1221 992 1221 926 1175 c 128,-1,69
 860 1129 860 1129 773 1129 c 128,-1,70
 686 1129 686 1129 642 1175 c 128,-1,63
 598 1221 598 1221 618.5 1309 c 128,-1,64
740 1311 m 0,71,72
 714 1199 714 1199 791 1199 c 128,-1,73
 868 1199 868 1199 894 1311 c 0,74,75
 920 1425 920 1425 843 1425 c 128,-1,76
 766 1425 766 1425 740 1311 c 0,71,72
EndSplineSet
Validated: 33
EndChar

StartChar: ae
Encoding: 230 230 120
Width: 1483
GlyphClass: 2
Flags: W
LayerCount: 2
Fore
SplineSet
124.5 194.5 m 128,-1,1
 147 290 147 290 225.5 353 c 128,-1,2
 304 416 304 416 405 441 c 0,3,4
 420 445 420 445 452.5 452 c 128,-1,5
 485 459 485 459 503 463 c 128,-1,6
 521 467 521 467 551.5 475 c 128,-1,7
 582 483 582 483 600.5 491.5 c 128,-1,8
 619 500 619 500 644 512 c 128,-1,9
 669 524 669 524 685 538.5 c 128,-1,10
 701 553 701 553 718 571.5 c 128,-1,11
 735 590 735 590 746 613.5 c 128,-1,12
 757 637 757 637 763 665 c 1,13,-1
 765 665 l 1,14,15
 781 759 781 759 742.5 811.5 c 128,-1,16
 704 864 704 864 632 864 c 0,17,18
 581 864 581 864 529.5 852.5 c 128,-1,19
 478 841 478 841 454 814 c 1,20,21
 505 790 505 790 519.5 755.5 c 128,-1,22
 534 721 534 721 522 668 c 0,23,24
 509 612 509 612 461 572.5 c 128,-1,25
 413 533 413 533 361 533 c 0,26,27
 301 533 301 533 278 578 c 128,-1,28
 255 623 255 623 270 692 c 0,29,30
 291 781 291 781 425.5 896.5 c 128,-1,31
 560 1012 560 1012 696 1012 c 2,32,-1
 727 1012 l 2,33,34
 907 1012 907 1012 926 822 c 1,35,36
 1072 952 1072 952 1255 952 c 0,37,38
 1302 952 1302 952 1345 942 c 128,-1,39
 1388 932 1388 932 1429 906.5 c 128,-1,40
 1470 881 1470 881 1497.5 843.5 c 128,-1,41
 1525 806 1525 806 1536 744 c 128,-1,42
 1547 682 1547 682 1534 605 c 1,43,-1
 1536 605 l 1,44,-1
 1512 502 l 1,45,-1
 944 502 l 1,46,-1
 934 456 l 2,47,48
 901 313 901 313 960.5 236.5 c 128,-1,49
 1020 160 1020 160 1130 160 c 0,50,51
 1181 160 1181 160 1223.5 170 c 128,-1,52
 1266 180 1266 180 1297 195 c 128,-1,53
 1328 210 1328 210 1361.5 239.5 c 128,-1,54
 1395 269 1395 269 1416.5 293 c 128,-1,55
 1438 317 1438 317 1473 360 c 1,56,57
 1448 254 1448 254 1372 165 c 128,-1,58
 1296 76 1296 76 1199 28 c 128,-1,59
 1102 -20 1102 -20 1008 -20 c 0,60,61
 880 -20 880 -20 803 43 c 128,-1,62
 726 106 726 106 703 213 c 1,63,64
 645 106 645 106 540.5 38.5 c 128,-1,65
 436 -29 436 -29 316 -29 c 256,66,67
 196 -29 196 -29 149 35 c 128,-1,0
 102 99 102 99 124.5 194.5 c 128,-1,1
354 216 m 0,68,69
 345 175 345 175 367 150 c 128,-1,70
 389 125 389 125 425 125 c 0,71,72
 498 125 498 125 571.5 167 c 128,-1,73
 645 209 645 209 692 298 c 1,74,75
 688 363 688 363 705 436 c 0,76,77
 714 474 714 474 720 492 c 1,78,79
 651 425 651 425 526 378 c 0,80,81
 444 344 444 344 405.5 307.5 c 128,-1,82
 367 271 367 271 354 216 c 0,68,69
969 605 m 1,83,-1
 1322 605 l 1,84,85
 1352 737 1352 737 1332 796.5 c 128,-1,86
 1312 856 1312 856 1218 856 c 0,87,88
 1136 856 1136 856 1067 788 c 128,-1,89
 998 720 998 720 969 605 c 1,83,-1
EndSplineSet
Validated: 33
EndChar

StartChar: ccedilla
Encoding: 231 231 121
Width: 945
GlyphClass: 2
Flags: W
LayerCount: 2
Fore
SplineSet
164 427 m 0,0,1
 219 663 219 663 384 807.5 c 128,-1,2
 549 952 549 952 757 952 c 0,3,4
 886 952 886 952 955.5 872.5 c 128,-1,5
 1025 793 1025 793 998 674 c 0,6,7
 983 611 983 611 937.5 565.5 c 128,-1,8
 892 520 892 520 831 520 c 0,9,10
 777 520 777 520 748.5 557 c 128,-1,11
 720 594 720 594 736 665 c 0,12,13
 740 682 740 682 751 714.5 c 128,-1,14
 762 747 762 747 767 767 c 128,-1,15
 772 787 772 787 773 810 c 128,-1,16
 774 833 774 833 759 844.5 c 128,-1,17
 744 856 744 856 714 856 c 0,18,19
 611 856 611 856 519 766 c 128,-1,20
 427 676 427 676 395 536 c 0,21,22
 354 359 354 359 414.5 260.5 c 128,-1,23
 475 162 475 162 609 162 c 0,24,25
 667 162 667 162 726.5 181 c 128,-1,26
 786 200 786 200 845.5 243 c 128,-1,27
 905 286 905 286 949 348 c 1,28,29
 914 196 914 196 784 87 c 128,-1,30
 654 -22 654 -22 516 -35 c 1,31,-1
 428 -128 l 1,32,33
 490 -147 490 -147 527 -200.5 c 128,-1,34
 564 -254 564 -254 548 -322 c 0,35,36
 534 -381 534 -381 495 -426.5 c 128,-1,37
 456 -472 456 -472 406 -496.5 c 128,-1,38
 356 -521 356 -521 307 -533 c 128,-1,39
 258 -545 258 -545 213 -545 c 0,40,41
 132 -545 132 -545 99 -494 c 1,42,43
 106 -493 106 -493 132.5 -489 c 128,-1,44
 159 -485 159 -485 172.5 -482.5 c 128,-1,45
 186 -480 186 -480 211 -474.5 c 128,-1,46
 236 -469 236 -469 250.5 -462.5 c 128,-1,47
 265 -456 265 -456 286 -445 c 128,-1,48
 307 -434 307 -434 319.5 -420.5 c 128,-1,49
 332 -407 332 -407 343.5 -388 c 128,-1,50
 355 -369 355 -369 360 -345 c 0,51,52
 370 -301 370 -301 344.5 -265.5 c 128,-1,53
 319 -230 319 -230 265 -217 c 1,54,-1
 429 -33 l 1,55,56
 266 -14 266 -14 193.5 114 c 128,-1,57
 121 242 121 242 164 427 c 0,0,1
EndSplineSet
Validated: 33
EndChar

StartChar: egrave
Encoding: 232 232 122
Width: 958
GlyphClass: 2
Flags: W
LayerCount: 2
Fore
SplineSet
171 447 m 4,0,1
 203 584 203 584 281.5 698.5 c 132,-1,2
 360 813 360 813 475.5 882.5 c 132,-1,3
 591 952 591 952 718 952 c 4,4,5
 765 952 765 952 809.5 942 c 132,-1,6
 854 932 854 932 897 906.5 c 132,-1,7
 940 881 940 881 969.5 843.5 c 132,-1,8
 999 806 999 806 1011 744.5 c 132,-1,9
 1023 683 1023 683 1010 606 c 5,10,-1
 1012 606 l 5,11,-1
 988 503 l 5,12,-1
 389 503 l 5,13,14
 361 359 361 359 420.5 272.5 c 132,-1,15
 480 186 480 186 611 186 c 4,16,17
 806 186 806 186 949 362 c 5,18,19
 924 255 924 255 848 165.5 c 132,-1,20
 772 76 772 76 675 28 c 132,-1,21
 578 -20 578 -20 483 -20 c 4,22,23
 403 -20 403 -20 340 5.5 c 132,-1,24
 277 31 277 31 237.5 75.5 c 132,-1,25
 198 120 198 120 177.5 179.5 c 132,-1,26
 157 239 157 239 155.5 307 c 132,-1,27
 154 375 154 375 171 447 c 4,0,1
413 606 m 5,28,-1
 779 606 l 5,29,30
 806 721 806 721 778 788.5 c 132,-1,31
 750 856 750 856 669 856 c 4,32,33
 620 856 620 856 569 827.5 c 132,-1,34
 518 799 518 799 474.5 740.5 c 132,-1,35
 431 682 431 682 413 606 c 5,28,-1
596 1421 m 1,36,-1
 636 1489 l 1,37,-1
 824 1489 l 1,38,-1
 827 1480 l 2,39,40
 844 1433 844 1433 887 1268.5 c 128,-1,41
 930 1104 930 1104 934 1090 c 1,42,-1
 895 1050 l 1,43,-1
 596 1421 l 1,36,-1
EndSplineSet
Validated: 33
EndChar

StartChar: eacute
Encoding: 233 233 123
Width: 1010
GlyphClass: 2
Flags: W
LayerCount: 2
Fore
SplineSet
171 447 m 0,0,1
 203 584 203 584 281.5 698.5 c 128,-1,2
 360 813 360 813 475.5 882.5 c 128,-1,3
 591 952 591 952 718 952 c 0,4,5
 765 952 765 952 809.5 942 c 128,-1,6
 854 932 854 932 897 906.5 c 128,-1,7
 940 881 940 881 969.5 843.5 c 128,-1,8
 999 806 999 806 1011 744.5 c 128,-1,9
 1023 683 1023 683 1010 606 c 1,10,-1
 1012 606 l 1,11,-1
 988 503 l 1,12,-1
 389 503 l 1,13,14
 361 359 361 359 420.5 272.5 c 128,-1,15
 480 186 480 186 611 186 c 0,16,17
 806 186 806 186 949 362 c 1,18,19
 924 255 924 255 848 165.5 c 128,-1,20
 772 76 772 76 675 28 c 128,-1,21
 578 -20 578 -20 483 -20 c 0,22,23
 403 -20 403 -20 340 5.5 c 128,-1,24
 277 31 277 31 237.5 75.5 c 128,-1,25
 198 120 198 120 177.5 179.5 c 128,-1,26
 157 239 157 239 155.5 307 c 128,-1,27
 154 375 154 375 171 447 c 0,0,1
413 606 m 1,28,-1
 779 606 l 1,29,30
 806 721 806 721 778 788.5 c 128,-1,31
 750 856 750 856 669 856 c 0,32,33
 620 856 620 856 569 827.5 c 128,-1,34
 518 799 518 799 474.5 740.5 c 128,-1,35
 431 682 431 682 413 606 c 1,28,-1
637 1090 m 1,36,37
 648 1104 648 1104 766.5 1268.5 c 128,-1,38
 885 1433 885 1433 923 1480 c 2,39,-1
 931 1489 l 1,40,-1
 1124 1489 l 1,41,-1
 1134 1421 l 1,42,-1
 657 1050 l 1,43,-1
 637 1090 l 1,36,37
EndSplineSet
Validated: 33
EndChar

StartChar: ecircumflex
Encoding: 234 234 124
Width: 958
GlyphClass: 2
Flags: W
LayerCount: 2
Fore
SplineSet
171 447 m 0,0,1
 203 584 203 584 281.5 698.5 c 128,-1,2
 360 813 360 813 475.5 882.5 c 128,-1,3
 591 952 591 952 718 952 c 0,4,5
 765 952 765 952 809.5 942 c 128,-1,6
 854 932 854 932 897 906.5 c 128,-1,7
 940 881 940 881 969.5 843.5 c 128,-1,8
 999 806 999 806 1011 744.5 c 128,-1,9
 1023 683 1023 683 1010 606 c 1,10,-1
 1012 606 l 1,11,-1
 988 503 l 1,12,-1
 389 503 l 1,13,14
 361 359 361 359 420.5 272.5 c 128,-1,15
 480 186 480 186 611 186 c 0,16,17
 806 186 806 186 949 362 c 1,18,19
 924 255 924 255 848 165.5 c 128,-1,20
 772 76 772 76 675 28 c 128,-1,21
 578 -20 578 -20 483 -20 c 0,22,23
 403 -20 403 -20 340 5.5 c 128,-1,24
 277 31 277 31 237.5 75.5 c 128,-1,25
 198 120 198 120 177.5 179.5 c 128,-1,26
 157 239 157 239 155.5 307 c 128,-1,27
 154 375 154 375 171 447 c 0,0,1
480 1123 m 1,28,-1
 857 1503 l 1,29,-1
 1062 1125 l 1,30,-1
 1018 1076 l 1,31,-1
 800 1256 l 1,32,-1
 497 1076 l 1,33,-1
 480 1123 l 1,28,-1
413 606 m 1,34,-1
 779 606 l 1,35,36
 806 721 806 721 778 788.5 c 128,-1,37
 750 856 750 856 669 856 c 0,38,39
 620 856 620 856 569 827.5 c 128,-1,40
 518 799 518 799 474.5 740.5 c 128,-1,41
 431 682 431 682 413 606 c 1,34,-1
EndSplineSet
Validated: 33
EndChar

StartChar: edieresis
Encoding: 235 235 125
Width: 969
GlyphClass: 2
Flags: W
LayerCount: 2
Fore
SplineSet
171 447 m 4,0,1
 203 584 203 584 281.5 698.5 c 132,-1,2
 360 813 360 813 475.5 882.5 c 132,-1,3
 591 952 591 952 718 952 c 4,4,5
 765 952 765 952 809.5 942 c 132,-1,6
 854 932 854 932 897 906.5 c 132,-1,7
 940 881 940 881 969.5 843.5 c 132,-1,8
 999 806 999 806 1011 744.5 c 132,-1,9
 1023 683 1023 683 1010 606 c 5,10,-1
 1012 606 l 5,11,-1
 988 503 l 5,12,-1
 389 503 l 5,13,14
 361 359 361 359 420.5 272.5 c 132,-1,15
 480 186 480 186 611 186 c 4,16,17
 806 186 806 186 949 362 c 5,18,19
 924 255 924 255 848 165.5 c 132,-1,20
 772 76 772 76 675 28 c 132,-1,21
 578 -20 578 -20 483 -20 c 4,22,23
 403 -20 403 -20 340 5.5 c 132,-1,24
 277 31 277 31 237.5 75.5 c 132,-1,25
 198 120 198 120 177.5 179.5 c 132,-1,26
 157 239 157 239 155.5 307 c 132,-1,27
 154 375 154 375 171 447 c 4,0,1
413 606 m 5,28,-1
 779 606 l 5,29,30
 806 721 806 721 778 788.5 c 132,-1,31
 750 856 750 856 669 856 c 4,32,33
 620 856 620 856 569 827.5 c 132,-1,34
 518 799 518 799 474.5 740.5 c 132,-1,35
 431 682 431 682 413 606 c 5,28,-1
534 1319 m 128,-1,37
 546 1372 546 1372 587 1409 c 128,-1,38
 628 1446 628 1446 675 1446 c 256,39,40
 722 1446 722 1446 746 1409 c 128,-1,41
 770 1372 770 1372 758 1319 c 0,42,43
 746 1267 746 1267 705 1230.5 c 128,-1,44
 664 1194 664 1194 616.5 1194 c 128,-1,45
 569 1194 569 1194 545.5 1230 c 128,-1,36
 522 1266 522 1266 534 1319 c 128,-1,37
860 1319 m 128,-1,47
 872 1372 872 1372 913 1409 c 128,-1,48
 954 1446 954 1446 1000.5 1446 c 128,-1,49
 1047 1446 1047 1446 1072 1409 c 128,-1,50
 1097 1372 1097 1372 1084 1319 c 0,51,52
 1072 1267 1072 1267 1031 1230.5 c 128,-1,53
 990 1194 990 1194 942 1194 c 0,54,55
 896 1194 896 1194 872 1230 c 128,-1,46
 848 1266 848 1266 860 1319 c 128,-1,47
EndSplineSet
Validated: 33
EndChar

StartChar: igrave
Encoding: 236 236 126
Width: 561
GlyphClass: 2
Flags: W
LayerCount: 2
Fore
SplineSet
331 1427 m 1,0,-1
 370 1489 l 1,1,-1
 559 1489 l 1,2,-1
 562 1481 l 2,3,4
 580 1438 580 1438 629 1288.5 c 128,-1,5
 678 1139 678 1139 683 1126 c 1,6,-1
 646 1090 l 1,7,-1
 331 1427 l 1,0,-1
467 270 m 1,8,9
 451 200 451 200 447 147 c 0,10,11
 447 134 447 134 457 124 c 128,-1,12
 467 114 467 114 479 114 c 0,13,14
 522 114 522 114 590 220 c 2,15,-1
 635 287 l 1,16,-1
 674 259 l 1,17,18
 577 99 577 99 509 39 c 128,-1,19
 441 -21 441 -21 355 -21 c 0,20,21
 308 -21 308 -21 278.5 -1.5 c 128,-1,22
 249 18 249 18 238 45.5 c 128,-1,23
 227 73 227 73 227 116 c 128,-1,24
 227 159 227 159 232 191.5 c 128,-1,25
 237 224 237 224 248 268 c 1,26,-1
 354 727 l 1,27,-1
 245 803 l 1,28,-1
 396 893 l 1,29,-1
 519 967 l 1,30,-1
 645 1042 l 1,31,-1
 467 270 l 1,8,9
EndSplineSet
Validated: 1
EndChar

StartChar: iacute
Encoding: 237 237 127
Width: 563
GlyphClass: 2
Flags: W
LayerCount: 2
Fore
SplineSet
418 57 m 1,0,-1
 186 0 l 1,1,-1
 354 727 l 1,2,-1
 246 803 l 1,3,-1
 396 893 l 1,4,-1
 519 967 l 1,5,-1
 646 1042 l 1,6,-1
 418 57 l 1,0,-1
492 1126 m 1,7,8
 503 1139 503 1139 621 1288.5 c 128,-1,9
 739 1438 739 1438 777 1481 c 2,10,-1
 784 1489 l 1,11,-1
 971 1489 l 1,12,-1
 982 1427 l 1,13,-1
 515 1090 l 1,14,-1
 492 1126 l 1,7,8
EndSplineSet
Validated: 1
EndChar

StartChar: icircumflex
Encoding: 238 238 128
Width: 563
GlyphClass: 2
Flags: W
LayerCount: 2
Fore
SplineSet
277 1157 m 1,0,-1
 649 1503 l 1,1,-1
 859 1159 l 1,2,-1
 817 1114 l 1,3,-1
 597 1278 l 1,4,-1
 294 1114 l 1,5,-1
 277 1157 l 1,0,-1
418 57 m 1,6,-1
 186 0 l 1,7,-1
 354 727 l 1,8,-1
 245 803 l 1,9,-1
 396 893 l 1,10,-1
 519 967 l 1,11,-1
 645 1042 l 1,12,-1
 418 57 l 1,6,-1
EndSplineSet
Validated: 1
EndChar

StartChar: idieresis
Encoding: 239 239 129
Width: 578
GlyphClass: 2
Flags: W
LayerCount: 2
Fore
SplineSet
335 1319 m 128,-1,1
 347 1372 347 1372 388 1409 c 128,-1,2
 429 1446 429 1446 475.5 1446 c 128,-1,3
 522 1446 522 1446 546.5 1409 c 128,-1,4
 571 1372 571 1372 559 1319 c 0,5,6
 547 1267 547 1267 505.5 1230.5 c 128,-1,7
 464 1194 464 1194 417 1194 c 0,8,9
 371 1194 371 1194 347 1230 c 128,-1,0
 323 1266 323 1266 335 1319 c 128,-1,1
424 57 m 1,10,-1
 192 0 l 1,11,-1
 360 727 l 1,12,-1
 247 803 l 1,13,-1
 398 893 l 1,14,-1
 523 967 l 1,15,-1
 652 1042 l 1,16,-1
 424 57 l 1,10,-1
665 1319 m 128,-1,18
 677 1372 677 1372 717.5 1409 c 128,-1,19
 758 1446 758 1446 804.5 1446 c 128,-1,20
 851 1446 851 1446 876 1409 c 128,-1,21
 901 1372 901 1372 888 1319 c 0,22,23
 876 1267 876 1267 835 1230.5 c 128,-1,24
 794 1194 794 1194 746 1194 c 0,25,26
 700 1194 700 1194 676.5 1230 c 128,-1,17
 653 1266 653 1266 665 1319 c 128,-1,18
EndSplineSet
Validated: 33
EndChar

StartChar: ntilde
Encoding: 241 241 130
Width: 1108
GlyphClass: 2
Flags: W
LayerCount: 2
Fore
SplineSet
418 57 m 1,0,-1
 186 0 l 1,1,-1
 342 673 l 1,2,-1
 235 757 l 1,3,-1
 383 852 l 1,4,-1
 383 854 l 1,5,-1
 577 984 l 1,6,-1
 572 778 l 1,7,8
 637 864 637 864 714 908 c 128,-1,9
 791 952 791 952 891 952 c 0,10,11
 1021 952 1021 952 1080.5 864.5 c 128,-1,12
 1140 777 1140 777 1102 616 c 2,13,-1
 1019 261 l 1,14,15
 1004 195 1004 195 1000 145 c 0,16,17
 1001 133 1001 133 1011 123.5 c 128,-1,18
 1021 114 1021 114 1033 114 c 0,19,20
 1076 114 1076 114 1143 213 c 2,21,-1
 1186 276 l 1,22,-1
 1225 249 l 1,23,24
 1129 94 1129 94 1062 36.5 c 128,-1,25
 995 -21 995 -21 909 -21 c 0,26,27
 862 -21 862 -21 832.5 -2.5 c 128,-1,28
 803 16 803 16 791.5 42 c 128,-1,29
 780 68 780 68 779 108.5 c 128,-1,30
 778 149 778 149 783 179.5 c 128,-1,31
 788 210 788 210 798 252 c 1,32,-1
 868 550 l 2,33,34
 887 630 887 630 890 669.5 c 128,-1,35
 893 709 893 709 881 741 c 0,36,37
 858 805 858 805 765 805 c 0,38,39
 720 805 720 805 681.5 788 c 128,-1,40
 643 771 643 771 618.5 743.5 c 128,-1,41
 594 716 594 716 579 692.5 c 128,-1,42
 564 669 564 669 554 644 c 1,43,-1
 418 57 l 1,0,-1
612 1190 m 1,44,45
 639 1287 639 1287 697 1360.5 c 128,-1,46
 755 1434 755 1434 823 1434 c 0,47,48
 870 1434 870 1434 939.5 1390 c 128,-1,49
 1009 1346 1009 1346 1041 1346 c 0,50,51
 1102 1346 1102 1346 1135.5 1373 c 128,-1,52
 1169 1400 1169 1400 1178 1430 c 1,53,-1
 1196 1425 l 1,54,55
 1179 1361 1179 1361 1152 1308 c 128,-1,56
 1125 1255 1125 1255 1080.5 1216 c 128,-1,57
 1036 1177 1036 1177 986 1176 c 0,58,59
 953 1175 953 1175 916.5 1198.5 c 128,-1,60
 880 1222 880 1222 843 1246 c 128,-1,61
 806 1270 806 1270 768 1270 c 0,62,63
 711 1270 711 1270 677 1247.5 c 128,-1,64
 643 1225 643 1225 632 1186 c 1,65,-1
 612 1190 l 1,44,45
EndSplineSet
Validated: 33
EndChar

StartChar: ograve
Encoding: 242 242 131
Width: 1058
GlyphClass: 2
Flags: W
LayerCount: 2
Fore
SplineSet
181 463 m 0,0,1
 232 682 232 682 388.5 817 c 128,-1,2
 545 952 545 952 745 952 c 0,3,4
 951 952 951 952 1041.5 815.5 c 128,-1,5
 1132 679 1132 679 1085 467 c 0,6,7
 1033 243 1033 243 880 114 c 128,-1,8
 727 -15 727 -15 521 -20 c 1,9,10
 316 -17 316 -17 223 111.5 c 128,-1,11
 130 240 130 240 181 463 c 0,0,1
574 1421 m 1,12,-1
 615 1489 l 1,13,-1
 804 1489 l 1,14,-1
 807 1480 l 2,15,16
 823 1433 823 1433 866 1268.5 c 128,-1,17
 909 1104 909 1104 914 1090 c 1,18,-1
 875 1050 l 1,19,-1
 574 1421 l 1,12,-1
435 465 m 0,20,21
 346 78 346 78 544 78 c 0,22,23
 743 78 743 78 831 465 c 0,24,25
 846 529 846 529 853 584 c 128,-1,26
 860 639 860 639 857.5 689.5 c 128,-1,27
 855 740 855 740 841.5 776.5 c 128,-1,28
 828 813 828 813 798 834 c 128,-1,29
 768 855 768 855 723 856 c 0,30,31
 667 857 667 857 620 825.5 c 128,-1,32
 573 794 573 794 538.5 737 c 128,-1,33
 504 680 504 680 479 614 c 128,-1,34
 454 548 454 548 435 465 c 0,20,21
EndSplineSet
Validated: 33
EndChar

StartChar: oacute
Encoding: 243 243 132
Width: 1058
GlyphClass: 2
Flags: W
LayerCount: 2
Fore
SplineSet
181 463 m 0,0,1
 232 682 232 682 388.5 817 c 128,-1,2
 545 952 545 952 745 952 c 0,3,4
 951 952 951 952 1041.5 815.5 c 128,-1,5
 1132 679 1132 679 1085 467 c 0,6,7
 1033 243 1033 243 880 114 c 128,-1,8
 727 -15 727 -15 521 -20 c 1,9,10
 316 -17 316 -17 223 111.5 c 128,-1,11
 130 240 130 240 181 463 c 0,0,1
435 465 m 0,12,13
 346 78 346 78 544 78 c 0,14,15
 743 78 743 78 831 465 c 0,16,17
 846 529 846 529 853 584 c 128,-1,18
 860 639 860 639 857.5 689.5 c 128,-1,19
 855 740 855 740 841.5 776.5 c 128,-1,20
 828 813 828 813 798 834 c 128,-1,21
 768 855 768 855 723 856 c 0,22,23
 667 857 667 857 620 825.5 c 128,-1,24
 573 794 573 794 538.5 737 c 128,-1,25
 504 680 504 680 479 614 c 128,-1,26
 454 548 454 548 435 465 c 0,12,13
693 1090 m 1,27,28
 704 1104 704 1104 822.5 1268.5 c 128,-1,29
 941 1433 941 1433 979 1480 c 2,30,-1
 986 1489 l 1,31,-1
 1178 1489 l 1,32,-1
 1188 1421 l 1,33,-1
 714 1050 l 1,34,-1
 693 1090 l 1,27,28
EndSplineSet
Validated: 33
EndChar

StartChar: ocircumflex
Encoding: 244 244 133
Width: 1058
GlyphClass: 2
Flags: W
LayerCount: 2
Fore
SplineSet
181 463 m 0,0,1
 232 682 232 682 388.5 817 c 128,-1,2
 545 952 545 952 745 952 c 0,3,4
 951 952 951 952 1041.5 815.5 c 128,-1,5
 1132 679 1132 679 1085 467 c 0,6,7
 1033 243 1033 243 880 114 c 128,-1,8
 727 -15 727 -15 521 -20 c 1,9,10
 316 -17 316 -17 223 111.5 c 128,-1,11
 130 240 130 240 181 463 c 0,0,1
507 1123 m 1,12,-1
 884 1503 l 1,13,-1
 1087 1125 l 1,14,-1
 1043 1076 l 1,15,-1
 827 1256 l 1,16,-1
 523 1076 l 1,17,-1
 507 1123 l 1,12,-1
435 465 m 0,18,19
 346 78 346 78 544 78 c 0,20,21
 743 78 743 78 831 465 c 0,22,23
 846 529 846 529 853 584 c 128,-1,24
 860 639 860 639 857.5 689.5 c 128,-1,25
 855 740 855 740 841.5 776.5 c 128,-1,26
 828 813 828 813 798 834 c 128,-1,27
 768 855 768 855 723 856 c 0,28,29
 667 857 667 857 620 825.5 c 128,-1,30
 573 794 573 794 538.5 737 c 128,-1,31
 504 680 504 680 479 614 c 128,-1,32
 454 548 454 548 435 465 c 0,18,19
EndSplineSet
Validated: 33
EndChar

StartChar: otilde
Encoding: 245 245 134
Width: 1058
GlyphClass: 2
Flags: W
LayerCount: 2
Fore
SplineSet
181 463 m 0,0,1
 232 682 232 682 388.5 817 c 128,-1,2
 545 952 545 952 745 952 c 0,3,4
 951 952 951 952 1041.5 815.5 c 128,-1,5
 1132 679 1132 679 1085 467 c 0,6,7
 1033 243 1033 243 880 114 c 128,-1,8
 727 -15 727 -15 521 -20 c 1,9,10
 316 -17 316 -17 223 111.5 c 128,-1,11
 130 240 130 240 181 463 c 0,0,1
570 1190 m 1,12,13
 597 1287 597 1287 654.5 1360.5 c 128,-1,14
 712 1434 712 1434 780 1434 c 0,15,16
 827 1434 827 1434 895.5 1390 c 128,-1,17
 964 1346 964 1346 996 1346 c 0,18,19
 1056 1346 1056 1346 1090 1373 c 128,-1,20
 1124 1400 1124 1400 1133 1430 c 1,21,-1
 1151 1425 l 1,22,23
 1134 1361 1134 1361 1107 1308 c 128,-1,24
 1080 1255 1080 1255 1036 1216 c 128,-1,25
 992 1177 992 1177 942 1176 c 0,26,27
 909 1175 909 1175 873 1198.5 c 128,-1,28
 837 1222 837 1222 799.5 1246 c 128,-1,29
 762 1270 762 1270 725 1270 c 0,30,31
 668 1270 668 1270 633.5 1247.5 c 128,-1,32
 599 1225 599 1225 589 1186 c 1,33,-1
 570 1190 l 1,12,13
435 465 m 0,34,35
 346 78 346 78 544 78 c 0,36,37
 743 78 743 78 831 465 c 0,38,39
 846 529 846 529 853 584 c 128,-1,40
 860 639 860 639 857.5 689.5 c 128,-1,41
 855 740 855 740 841.5 776.5 c 128,-1,42
 828 813 828 813 798 834 c 128,-1,43
 768 855 768 855 723 856 c 0,44,45
 667 857 667 857 620 825.5 c 128,-1,46
 573 794 573 794 538.5 737 c 128,-1,47
 504 680 504 680 479 614 c 128,-1,48
 454 548 454 548 435 465 c 0,34,35
EndSplineSet
Validated: 33
EndChar

StartChar: odieresis
Encoding: 246 246 135
Width: 1070
GlyphClass: 2
Flags: W
LayerCount: 2
Fore
SplineSet
181 463 m 0,0,1
 232 682 232 682 390 817 c 128,-1,2
 548 952 548 952 751 952 c 0,3,4
 960 952 960 952 1052 815.5 c 128,-1,5
 1144 679 1144 679 1097 467 c 0,6,7
 1045 243 1045 243 890.5 114 c 128,-1,8
 736 -15 736 -15 527 -20 c 1,9,10
 319 -17 319 -17 224.5 111.5 c 128,-1,11
 130 240 130 240 181 463 c 0,0,1
574 1319 m 128,-1,13
 586 1372 586 1372 627 1409 c 128,-1,14
 668 1446 668 1446 714.5 1446 c 128,-1,15
 761 1446 761 1446 785.5 1409 c 128,-1,16
 810 1372 810 1372 798 1319 c 0,17,18
 786 1267 786 1267 744.5 1230.5 c 128,-1,19
 703 1194 703 1194 656 1194 c 0,20,21
 610 1194 610 1194 586 1230 c 128,-1,12
 562 1266 562 1266 574 1319 c 128,-1,13
435 465 m 0,22,23
 346 78 346 78 550 78 c 256,24,25
 754 78 754 78 843 465 c 0,26,27
 858 529 858 529 865 584 c 128,-1,28
 872 639 872 639 869 689.5 c 128,-1,29
 866 740 866 740 851.5 776.5 c 128,-1,30
 837 813 837 813 806 834 c 128,-1,31
 775 855 775 855 729 856 c 0,32,33
 671 857 671 857 623 825.5 c 128,-1,34
 575 794 575 794 539.5 737 c 128,-1,35
 504 680 504 680 479 614 c 128,-1,36
 454 548 454 548 435 465 c 0,22,23
900 1319 m 128,-1,38
 912 1372 912 1372 953 1409 c 128,-1,39
 994 1446 994 1446 1041 1446 c 256,40,41
 1088 1446 1088 1446 1112 1409 c 128,-1,42
 1136 1372 1136 1372 1124 1319 c 0,43,44
 1112 1267 1112 1267 1071 1230.5 c 128,-1,45
 1030 1194 1030 1194 982.5 1194 c 128,-1,46
 935 1194 935 1194 911.5 1230 c 128,-1,37
 888 1266 888 1266 900 1319 c 128,-1,38
EndSplineSet
Validated: 33
EndChar

StartChar: ugrave
Encoding: 249 249 136
Width: 1085
GlyphClass: 2
Flags: W
LayerCount: 2
Fore
SplineSet
221 803 m 1,0,-1
 492 967 l 1,1,-1
 492 965 l 1,2,-1
 621 1042 l 1,3,-1
 473 408 l 2,4,5
 442 268 442 268 461 198.5 c 128,-1,6
 480 129 480 129 572 129 c 0,7,8
 613 129 613 129 647.5 144.5 c 128,-1,9
 682 160 682 160 705.5 185.5 c 128,-1,10
 729 211 729 211 743.5 234 c 128,-1,11
 758 257 758 257 768 283 c 1,12,-1
 871 727 l 1,13,-1
 762 803 l 1,14,-1
 1034 967 l 1,15,-1
 1033 965 l 1,16,-1
 1162 1042 l 1,17,-1
 972 221 l 1,18,-1
 1075 119 l 1,19,-1
 746 -47 l 1,20,-1
 750 150 l 1,21,22
 687 64 687 64 613 20.5 c 128,-1,23
 539 -23 539 -23 439 -23 c 0,24,25
 309 -23 309 -23 253 70 c 128,-1,26
 197 163 197 163 237 334 c 2,27,-1
 328 729 l 1,28,-1
 221 803 l 1,0,-1
657 1427 m 1,29,-1
 696 1489 l 1,30,-1
 885 1489 l 1,31,-1
 889 1481 l 2,32,33
 907 1438 907 1438 953.5 1288.5 c 128,-1,34
 1000 1139 1000 1139 1004 1126 c 1,35,-1
 965 1090 l 1,36,-1
 657 1427 l 1,29,-1
EndSplineSet
Validated: 33
EndChar

StartChar: uacute
Encoding: 250 250 137
Width: 1085
GlyphClass: 2
Flags: W
LayerCount: 2
Fore
SplineSet
221 803 m 1,0,-1
 492 967 l 1,1,-1
 492 965 l 1,2,-1
 621 1042 l 1,3,-1
 473 408 l 2,4,5
 442 268 442 268 461 198.5 c 128,-1,6
 480 129 480 129 572 129 c 0,7,8
 613 129 613 129 647.5 144.5 c 128,-1,9
 682 160 682 160 705.5 185.5 c 128,-1,10
 729 211 729 211 743.5 234 c 128,-1,11
 758 257 758 257 768 283 c 1,12,-1
 871 727 l 1,13,-1
 762 803 l 1,14,-1
 1034 967 l 1,15,-1
 1033 965 l 1,16,-1
 1162 1042 l 1,17,-1
 972 221 l 1,18,-1
 1075 119 l 1,19,-1
 746 -47 l 1,20,-1
 750 150 l 1,21,22
 687 64 687 64 613 20.5 c 128,-1,23
 539 -23 539 -23 439 -23 c 0,24,25
 309 -23 309 -23 253 70 c 128,-1,26
 197 163 197 163 237 334 c 2,27,-1
 328 729 l 1,28,-1
 221 803 l 1,0,-1
693 1126 m 1,29,30
 704 1139 704 1139 819 1288.5 c 128,-1,31
 934 1438 934 1438 971 1481 c 2,32,-1
 978 1489 l 1,33,-1
 1170 1489 l 1,34,-1
 1182 1427 l 1,35,-1
 714 1090 l 1,36,-1
 693 1126 l 1,29,30
EndSplineSet
Validated: 33
EndChar

StartChar: ucircumflex
Encoding: 251 251 138
Width: 1085
GlyphClass: 2
Flags: W
LayerCount: 2
Fore
SplineSet
221 803 m 1,0,-1
 492 967 l 1,1,-1
 492 965 l 1,2,-1
 621 1042 l 1,3,-1
 473 408 l 2,4,5
 442 268 442 268 461 198.5 c 128,-1,6
 480 129 480 129 572 129 c 0,7,8
 613 129 613 129 647.5 144.5 c 128,-1,9
 682 160 682 160 705.5 185.5 c 128,-1,10
 729 211 729 211 743.5 234 c 128,-1,11
 758 257 758 257 768 283 c 1,12,-1
 871 727 l 1,13,-1
 762 803 l 1,14,-1
 1034 967 l 1,15,-1
 1033 965 l 1,16,-1
 1162 1042 l 1,17,-1
 972 221 l 1,18,-1
 1075 119 l 1,19,-1
 746 -47 l 1,20,-1
 750 150 l 1,21,22
 687 64 687 64 613 20.5 c 128,-1,23
 539 -23 539 -23 439 -23 c 0,24,25
 309 -23 309 -23 253 70 c 128,-1,26
 197 163 197 163 237 334 c 2,27,-1
 328 729 l 1,28,-1
 221 803 l 1,0,-1
518 1157 m 1,29,-1
 890 1503 l 1,30,-1
 1101 1159 l 1,31,-1
 1059 1114 l 1,32,-1
 838 1278 l 1,33,-1
 535 1114 l 1,34,-1
 518 1157 l 1,29,-1
EndSplineSet
Validated: 33
EndChar

StartChar: udieresis
Encoding: 252 252 139
Width: 1094
GlyphClass: 2
Flags: W
LayerCount: 2
Fore
SplineSet
221 803 m 1,0,-1
 492 967 l 1,1,-1
 492 965 l 1,2,-1
 621 1042 l 1,3,-1
 473 408 l 2,4,5
 442 268 442 268 462 198.5 c 128,-1,6
 482 129 482 129 576 129 c 0,7,8
 618 129 618 129 654 144.5 c 128,-1,9
 690 160 690 160 714 185.5 c 128,-1,10
 738 211 738 211 752.5 234 c 128,-1,11
 767 257 767 257 777 283 c 1,12,-1
 880 727 l 1,13,-1
 767 803 l 1,14,-1
 1043 967 l 1,15,-1
 1042 965 l 1,16,-1
 1171 1042 l 1,17,-1
 981 221 l 1,18,-1
 1084 119 l 1,19,-1
 755 -47 l 1,20,-1
 759 150 l 1,21,22
 695 64 695 64 620 20.5 c 128,-1,23
 545 -23 545 -23 444 -23 c 0,24,25
 311 -23 311 -23 254 70 c 128,-1,26
 197 163 197 163 237 334 c 2,27,-1
 328 729 l 1,28,-1
 221 803 l 1,0,-1
575.5 1319 m 128,-1,30
 588 1372 588 1372 629 1409 c 128,-1,31
 670 1446 670 1446 716 1446 c 128,-1,32
 762 1446 762 1446 787 1409 c 128,-1,33
 812 1372 812 1372 799 1319 c 0,34,35
 787 1267 787 1267 746 1230.5 c 128,-1,36
 705 1194 705 1194 658 1194 c 0,37,38
 612 1194 612 1194 587.5 1230 c 128,-1,29
 563 1266 563 1266 575.5 1319 c 128,-1,30
901.5 1319 m 128,-1,40
 914 1372 914 1372 955 1409 c 128,-1,41
 996 1446 996 1446 1042 1446 c 0,42,43
 1089 1446 1089 1446 1113.5 1409 c 128,-1,44
 1138 1372 1138 1372 1126 1319 c 0,45,46
 1114 1267 1114 1267 1072.5 1230.5 c 128,-1,47
 1031 1194 1031 1194 984 1194 c 128,-1,48
 937 1194 937 1194 913 1230 c 128,-1,39
 889 1266 889 1266 901.5 1319 c 128,-1,40
EndSplineSet
Validated: 33
EndChar

StartChar: yacute
Encoding: 253 253 140
Width: 908
GlyphClass: 2
Flags: W
LayerCount: 2
Fore
SplineSet
272 774 m 1,0,-1
 269 792 l 0,1,2
 264 821 264 821 241 821 c 0,3,4
 221 821 221 821 193 795.5 c 128,-1,5
 165 770 165 770 134 723 c 2,6,-1
 87 654 l 1,7,-1
 49 681 l 1,8,9
 144 837 144 837 209 895 c 128,-1,10
 274 953 274 953 356 953 c 0,11,12
 468 953 468 953 483 862 c 0,13,-1
 492 810 l 1,14,-1
 580 289 l 1,15,-1
 895 793 l 1,16,-1
 933 854 l 0,17,18
 972 917 972 917 1007.5 938.5 c 128,-1,19
 1043 960 1043 960 1092 960 c 0,20,21
 1140 960 1140 960 1170 926.5 c 128,-1,22
 1200 893 1200 893 1199 838 c 0,23,24
 1197 790 1197 790 1171 757.5 c 128,-1,25
 1145 725 1145 725 1108 725 c 0,26,27
 1080 725 1080 725 1039 751 c 0,28,29
 1016 768 1016 768 1001 768 c 0,30,31
 993 768 993 768 987 763.5 c 128,-1,32
 981 759 981 759 977.5 754 c 128,-1,33
 974 749 974 749 966 735 c 256,34,35
 958 721 958 721 952 712 c 0,36,-1
 986 766 l 1,37,-1
 407 -158 l 2,38,39
 363 -230 363 -230 324 -283.5 c 128,-1,40
 285 -337 285 -337 238 -385.5 c 128,-1,41
 191 -434 191 -434 140 -459.5 c 128,-1,42
 89 -485 89 -485 37 -485 c 0,43,44
 -49 -485 -49 -485 -94.5 -445 c 128,-1,45
 -140 -405 -140 -405 -156 -322 c 1,46,-1
 99 -66 l 1,47,48
 81 -118 81 -118 79.5 -155.5 c 128,-1,49
 78 -193 78 -193 91 -213 c 128,-1,50
 104 -233 104 -233 122 -241.5 c 128,-1,51
 140 -250 140 -250 163 -250 c 0,52,53
 184 -250 184 -250 206 -238.5 c 128,-1,54
 228 -227 228 -227 249.5 -204.5 c 128,-1,55
 271 -182 271 -182 284.5 -165.5 c 128,-1,56
 298 -149 298 -149 317.5 -121.5 c 128,-1,57
 337 -94 337 -94 341 -90 c 2,58,-1
 407 16 l 1,59,-1
 272 774 l 1,0,-1
711 1089 m 1,60,61
 722 1103 722 1103 840.5 1268 c 128,-1,62
 959 1433 959 1433 997 1480 c 2,63,-1
 1004 1489 l 1,64,-1
 1192 1489 l 1,65,-1
 1201 1421 l 1,66,-1
 731 1049 l 1,67,-1
 711 1089 l 1,60,61
EndSplineSet
Validated: 37
EndChar

StartChar: ydieresis
Encoding: 255 255 141
Width: 924
GlyphClass: 2
Flags: W
LayerCount: 2
Fore
SplineSet
275 774 m 1,0,-1
 271 792 l 0,1,2
 265 821 265 821 243 821 c 0,3,4
 223 821 223 821 194.5 795.5 c 128,-1,5
 166 770 166 770 135 723 c 2,6,-1
 87 654 l 1,7,-1
 49 681 l 1,8,9
 145 837 145 837 210.5 895 c 128,-1,10
 276 953 276 953 359 953 c 0,11,12
 472 953 472 953 488 862 c 0,13,-1
 498 810 l 1,14,-1
 589 289 l 1,15,-1
 907 793 l 1,16,-1
 946 854 l 0,17,18
 986 917 986 917 1021.5 938.5 c 128,-1,19
 1057 960 1057 960 1107 960 c 0,20,21
 1156 960 1156 960 1187 926.5 c 128,-1,22
 1218 893 1218 893 1217 838 c 0,23,24
 1215 790 1215 790 1189 757.5 c 128,-1,25
 1163 725 1163 725 1125 725 c 0,26,27
 1097 725 1097 725 1057 751 c 0,28,29
 1034 768 1034 768 1019 768 c 0,30,31
 1011 768 1011 768 1005 763.5 c 128,-1,32
 999 759 999 759 995 754 c 128,-1,33
 991 749 991 749 983 735 c 256,34,35
 975 721 975 721 970 712 c 0,36,-1
 1004 766 l 1,37,-1
 417 -158 l 2,38,39
 372 -230 372 -230 333 -283.5 c 128,-1,40
 294 -337 294 -337 246 -385.5 c 128,-1,41
 198 -434 198 -434 146.5 -459.5 c 128,-1,42
 95 -485 95 -485 42 -485 c 0,43,44
 -46 -485 -46 -485 -92.5 -445 c 128,-1,45
 -139 -405 -139 -405 -156 -322 c 1,46,-1
 99 -66 l 1,47,48
 81 -118 81 -118 79.5 -155.5 c 128,-1,49
 78 -193 78 -193 91.5 -213 c 128,-1,50
 105 -233 105 -233 123.5 -241.5 c 128,-1,51
 142 -250 142 -250 166 -250 c 0,52,53
 187 -250 187 -250 209 -238.5 c 128,-1,54
 231 -227 231 -227 253 -204.5 c 128,-1,55
 275 -182 275 -182 289 -165.5 c 128,-1,56
 303 -149 303 -149 322.5 -121.5 c 128,-1,57
 342 -94 342 -94 346 -90 c 2,58,-1
 413 16 l 1,59,-1
 275 774 l 1,0,-1
550.5 1319 m 128,-1,61
 563 1372 563 1372 604 1409 c 128,-1,62
 645 1446 645 1446 691 1446 c 128,-1,63
 737 1446 737 1446 762 1409 c 128,-1,64
 787 1372 787 1372 775 1319 c 0,65,66
 763 1267 763 1267 721.5 1230.5 c 128,-1,67
 680 1194 680 1194 633 1194 c 0,68,69
 587 1194 587 1194 562.5 1230 c 128,-1,60
 538 1266 538 1266 550.5 1319 c 128,-1,61
875.5 1319 m 128,-1,71
 888 1372 888 1372 929 1409 c 128,-1,72
 970 1446 970 1446 1016 1446 c 128,-1,73
 1062 1446 1062 1446 1087 1409 c 128,-1,74
 1112 1372 1112 1372 1100 1319 c 0,75,76
 1088 1267 1088 1267 1046.5 1230.5 c 128,-1,77
 1005 1194 1005 1194 958 1194 c 0,78,79
 912 1194 912 1194 887.5 1230 c 128,-1,70
 863 1266 863 1266 875.5 1319 c 128,-1,71
EndSplineSet
Validated: 37
EndChar

StartChar: OE
Encoding: 338 338 142
Width: 2189
GlyphClass: 2
Flags: W
LayerCount: 2
Fore
SplineSet
252 731 m 0,0,1
 332 1079 332 1079 572 1296 c 128,-1,2
 812 1513 812 1513 1118 1513 c 0,3,4
 1248 1513 1248 1513 1357 1470 c 1,5,-1
 2397 1470 l 1,6,-1
 2293 940 l 1,7,-1
 2130 1354 l 1,8,-1
 1663 1354 l 1,9,-1
 1538 813 l 1,10,-1
 1784 813 l 1,11,-1
 2029 1100 l 1,12,-1
 1868 401 l 1,13,-1
 1755 688 l 1,14,-1
 1509 688 l 1,15,-1
 1380 127 l 1,16,-1
 1877 127 l 1,17,-1
 2289 592 l 1,18,-1
 2076 0 l 1,19,-1
 1025 0 l 1,20,21
 896 -44 896 -44 758 -47 c 1,22,23
 445 -42 445 -42 307.5 166.5 c 128,-1,24
 170 375 170 375 252 731 c 0,0,1
552 733 m 0,25,26
 528 629 528 629 519.5 536 c 128,-1,27
 511 443 511 443 520 357 c 128,-1,28
 529 271 529 271 558.5 209.5 c 128,-1,29
 588 148 588 148 645.5 111 c 128,-1,30
 703 74 703 74 786 74 c 0,31,32
 899 74 899 74 990 117.5 c 128,-1,33
 1081 161 1081 161 1139 240 c 1,34,-1
 1355 1178 l 1,35,36
 1353 1271 1353 1271 1281.5 1331.5 c 128,-1,37
 1210 1392 1210 1392 1091 1393 c 0,38,39
 1009 1394 1009 1394 934.5 1357 c 128,-1,40
 860 1320 860 1320 802 1257.5 c 128,-1,41
 744 1195 744 1195 694.5 1109 c 128,-1,42
 645 1023 645 1023 610.5 929.5 c 128,-1,43
 576 836 576 836 552 733 c 0,25,26
EndSplineSet
Validated: 33
EndChar

StartChar: oe
Encoding: 339 339 143
Width: 1605
GlyphClass: 2
Flags: W
LayerCount: 2
Fore
SplineSet
186 463 m 0,0,1
 237 682 237 682 390.5 817 c 128,-1,2
 544 952 544 952 744 952 c 0,3,4
 841 952 841 952 917 912 c 128,-1,5
 993 872 993 872 1031 796 c 1,6,7
 1104 873 1104 873 1197.5 912.5 c 128,-1,8
 1291 952 1291 952 1376 952 c 0,9,10
 1423 952 1423 952 1466 942 c 128,-1,11
 1509 932 1509 932 1550.5 906.5 c 128,-1,12
 1592 881 1592 881 1619.5 843.5 c 128,-1,13
 1647 806 1647 806 1658 744 c 128,-1,14
 1669 682 1669 682 1656 605 c 1,15,-1
 1658 605 l 1,16,-1
 1634 502 l 1,17,-1
 1065 502 l 1,18,-1
 1054 456 l 2,19,20
 1037 383 1037 383 1046 325 c 128,-1,21
 1055 267 1055 267 1084.5 232 c 128,-1,22
 1114 197 1114 197 1156.5 178.5 c 128,-1,23
 1199 160 1199 160 1251 160 c 0,24,25
 1302 160 1302 160 1345 170 c 128,-1,26
 1388 180 1388 180 1419 195 c 128,-1,27
 1450 210 1450 210 1483 239.5 c 128,-1,28
 1516 269 1516 269 1537.5 293 c 128,-1,29
 1559 317 1559 317 1595 360 c 1,30,31
 1570 254 1570 254 1494 165 c 128,-1,32
 1418 76 1418 76 1321.5 28 c 128,-1,33
 1225 -20 1225 -20 1130 -20 c 0,34,35
 1042 -20 1042 -20 970.5 17.5 c 128,-1,36
 899 55 899 55 870 127 c 1,37,38
 804 57 804 57 704 19.5 c 128,-1,39
 604 -18 604 -18 520 -20 c 0,40,41
 317 -17 317 -17 226 111.5 c 128,-1,42
 135 240 135 240 186 463 c 0,0,1
435 465 m 0,43,44
 346 78 346 78 544 78 c 0,45,46
 743 78 743 78 831 465 c 0,47,48
 846 529 846 529 853 584 c 128,-1,49
 860 639 860 639 857.5 689.5 c 128,-1,50
 855 740 855 740 841.5 776.5 c 128,-1,51
 828 813 828 813 797.5 834 c 128,-1,52
 767 855 767 855 723 856 c 0,53,54
 667 857 667 857 620 825.5 c 128,-1,55
 573 794 573 794 538.5 737 c 128,-1,56
 504 680 504 680 479 614 c 128,-1,57
 454 548 454 548 435 465 c 0,43,44
1091 605 m 1,58,-1
 1443 605 l 1,59,60
 1473 737 1473 737 1453 796.5 c 128,-1,61
 1433 856 1433 856 1340 856 c 0,62,63
 1258 856 1258 856 1189 788 c 128,-1,64
 1120 720 1120 720 1091 605 c 1,58,-1
EndSplineSet
Validated: 33
EndChar

StartChar: Ydieresis
Encoding: 376 376 144
Width: 1441
GlyphClass: 2
Flags: W
LayerCount: 2
Fore
SplineSet
339 1470 m 1,0,-1
 1012 1470 l 1,1,-1
 803 1323 l 1,2,-1
 974 715 l 1,3,-1
 1426 1309 l 1,4,-1
 1270 1470 l 1,5,-1
 1781 1470 l 1,6,-1
 1568 1321 l 1,7,-1
 991 586 l 1,8,-1
 895 172 l 1,9,-1
 1063 0 l 1,10,-1
 391 0 l 1,11,-1
 627 164 l 1,12,-1
 717 555 l 1,13,-1
 508 1294 l 1,14,-1
 339 1470 l 1,0,-1
918.5 1808 m 128,-1,16
 931 1863 931 1863 976 1902.5 c 128,-1,17
 1021 1942 1021 1942 1071 1942 c 0,18,19
 1122 1942 1122 1942 1149.5 1903 c 128,-1,20
 1177 1864 1177 1864 1164 1808 c 0,21,22
 1151 1753 1151 1753 1106.5 1715 c 128,-1,23
 1062 1677 1062 1677 1010 1677 c 0,24,25
 960 1677 960 1677 933 1715 c 128,-1,15
 906 1753 906 1753 918.5 1808 c 128,-1,16
1320.5 1808 m 128,-1,27
 1333 1864 1333 1864 1377.5 1903 c 128,-1,28
 1422 1942 1422 1942 1473 1942 c 0,29,30
 1523 1942 1523 1942 1551 1902.5 c 128,-1,31
 1579 1863 1579 1863 1566 1808 c 128,-1,32
 1553 1753 1553 1753 1508 1715 c 128,-1,33
 1463 1677 1463 1677 1412 1677 c 0,34,35
 1360 1677 1360 1677 1334 1714.5 c 128,-1,26
 1308 1752 1308 1752 1320.5 1808 c 128,-1,27
EndSplineSet
Validated: 33
EndChar

StartChar: circumflex
Encoding: 710 710 145
Width: 1564
GlyphClass: 2
Flags: W
LayerCount: 2
Fore
SplineSet
698 1157 m 1,0,-1
 1090 1503 l 1,1,-1
 1321 1159 l 1,2,-1
 1276 1114 l 1,3,-1
 1038 1278 l 1,4,-1
 716 1114 l 1,5,-1
 698 1157 l 1,0,-1
EndSplineSet
Validated: 1
EndChar

StartChar: tilde
Encoding: 732 732 146
Width: 1563
GlyphClass: 2
Flags: W
LayerCount: 2
Fore
SplineSet
284 1006 m 1,0,1
 311 1103 311 1103 372 1176 c 128,-1,2
 433 1249 433 1249 507 1249 c 0,3,4
 557 1249 557 1249 632 1205 c 128,-1,5
 707 1161 707 1161 741 1161 c 0,6,7
 806 1161 806 1161 841.5 1188 c 128,-1,8
 877 1215 877 1215 886 1245 c 1,9,-1
 907 1241 l 1,10,11
 889 1177 889 1177 861 1124 c 128,-1,12
 833 1071 833 1071 786 1031.5 c 128,-1,13
 739 992 739 992 685 991 c 0,14,15
 643 990 643 990 570.5 1037.5 c 128,-1,16
 498 1085 498 1085 449 1085 c 0,17,18
 388 1085 388 1085 351.5 1062.5 c 128,-1,19
 315 1040 315 1040 304 1001 c 1,20,-1
 284 1006 l 1,0,1
EndSplineSet
Validated: 33
EndChar

StartChar: uni2010
Encoding: 8208 8208 158
Width: 727
GlyphClass: 2
Flags: W
LayerCount: 2
Fore
SplineSet
216 451 m 1,0,-1
 248 590 l 1,1,-1
 753 590 l 1,2,-1
 721 451 l 1,3,-1
 216 451 l 1,0,-1
EndSplineSet
Validated: 1
EndChar

StartChar: uni2011
Encoding: 8209 8209 159
Width: 727
GlyphClass: 2
Flags: W
LayerCount: 2
Fore
SplineSet
216 451 m 1,0,-1
 248 590 l 1,1,-1
 753 590 l 1,2,-1
 721 451 l 1,3,-1
 216 451 l 1,0,-1
EndSplineSet
Validated: 1
EndChar

StartChar: figuredash
Encoding: 8210 8210 160
Width: 727
GlyphClass: 2
Flags: W
LayerCount: 2
Fore
SplineSet
216 451 m 1,0,-1
 248 590 l 1,1,-1
 753 590 l 1,2,-1
 721 451 l 1,3,-1
 216 451 l 1,0,-1
EndSplineSet
Validated: 1
EndChar

StartChar: endash
Encoding: 8211 8211 161
Width: 1175
GlyphClass: 2
Flags: W
LayerCount: 2
Fore
SplineSet
216 451 m 1,0,-1
 248 590 l 1,1,-1
 1200 590 l 1,2,-1
 1168 451 l 1,3,-1
 216 451 l 1,0,-1
EndSplineSet
Validated: 1
EndChar

StartChar: emdash
Encoding: 8212 8212 162
Width: 2127
GlyphClass: 2
Flags: W
LayerCount: 2
Fore
SplineSet
216 451 m 1,0,-1
 248 590 l 1,1,-1
 2153 590 l 1,2,-1
 2121 451 l 1,3,-1
 216 451 l 1,0,-1
EndSplineSet
Validated: 1
EndChar

StartChar: quoteleft
Encoding: 8216 8216 163
Width: 480
GlyphClass: 2
Flags: W
LayerCount: 2
Fore
SplineSet
300 1057 m 0,0,1
 316 1125 316 1125 352.5 1191.5 c 128,-1,2
 389 1258 389 1258 428 1304 c 128,-1,3
 467 1350 467 1350 514 1392 c 128,-1,4
 561 1434 561 1434 589.5 1454.5 c 128,-1,5
 618 1475 618 1475 642 1489 c 0,6,7
 664 1498 664 1498 676.5 1497.5 c 128,-1,8
 689 1497 689 1497 692 1491 c 0,9,10
 696 1472 696 1472 678 1454 c 0,11,12
 675 1451 675 1451 657.5 1432.5 c 128,-1,13
 640 1414 640 1414 632 1405 c 128,-1,14
 624 1396 624 1396 607 1376 c 128,-1,15
 590 1356 590 1356 580.5 1341 c 128,-1,16
 571 1326 571 1326 558.5 1306 c 128,-1,17
 546 1286 546 1286 538 1265 c 128,-1,18
 530 1244 530 1244 525 1223 c 0,19,20
 517 1189 517 1189 530.5 1170 c 128,-1,21
 544 1151 544 1151 559 1149 c 0,22,23
 560 1148 560 1148 568.5 1142.5 c 128,-1,24
 577 1137 577 1137 582 1132.5 c 128,-1,25
 587 1128 587 1128 596 1118.5 c 128,-1,26
 605 1109 605 1109 610 1098 c 128,-1,27
 615 1087 615 1087 619.5 1072 c 128,-1,28
 624 1057 624 1057 623.5 1037.5 c 128,-1,29
 623 1018 623 1018 617 995 c 0,30,31
 601 927 601 927 544.5 879 c 128,-1,32
 488 831 488 831 418 831 c 0,33,34
 351 831 351 831 314 893.5 c 128,-1,35
 277 956 277 956 300 1057 c 0,0,1
EndSplineSet
Validated: 33
EndChar

StartChar: quoteright
Encoding: 8217 8217 164
Width: 480
GlyphClass: 2
Flags: W
LayerCount: 2
Fore
SplineSet
395 1309 m 0,0,1
 411 1377 411 1377 467.5 1425 c 128,-1,2
 524 1473 524 1473 595 1473 c 0,3,4
 662 1473 662 1473 699 1410.5 c 128,-1,5
 736 1348 736 1348 713 1247 c 0,6,7
 697 1179 697 1179 660.5 1112.5 c 128,-1,8
 624 1046 624 1046 585 1000 c 128,-1,9
 546 954 546 954 499 912 c 128,-1,10
 452 870 452 870 423.5 849.5 c 128,-1,11
 395 829 395 829 371 815 c 0,12,13
 349 806 349 806 336 806.5 c 128,-1,14
 323 807 323 807 321 813 c 0,15,16
 317 831 317 831 336 850 c 0,17,18
 337 851 337 851 356 871.5 c 128,-1,19
 375 892 375 892 381.5 899.5 c 128,-1,20
 388 907 388 907 406 928 c 128,-1,21
 424 949 424 949 432.5 963 c 128,-1,22
 441 977 441 977 454 998 c 128,-1,23
 467 1019 467 1019 475 1039.5 c 128,-1,24
 483 1060 483 1060 487 1081 c 0,25,26
 495 1115 495 1115 482 1134 c 128,-1,27
 469 1153 469 1153 453 1155 c 0,28,29
 452 1156 452 1156 444 1161.5 c 128,-1,30
 436 1167 436 1167 430.5 1171.5 c 128,-1,31
 425 1176 425 1176 416 1185.5 c 128,-1,32
 407 1195 407 1195 402 1206 c 128,-1,33
 397 1217 397 1217 392.5 1232 c 128,-1,34
 388 1247 388 1247 389 1266.5 c 128,-1,35
 390 1286 390 1286 395 1309 c 0,0,1
EndSplineSet
Validated: 33
EndChar

StartChar: quotedblleft
Encoding: 8220 8220 165
Width: 887
GlyphClass: 2
Flags: W
LayerCount: 2
Fore
SplineSet
300 1057 m 0,0,1
 316 1125 316 1125 352.5 1191.5 c 128,-1,2
 389 1258 389 1258 428 1304 c 128,-1,3
 467 1350 467 1350 514 1392 c 128,-1,4
 561 1434 561 1434 589.5 1454.5 c 128,-1,5
 618 1475 618 1475 642 1489 c 0,6,7
 664 1498 664 1498 676.5 1497.5 c 128,-1,8
 689 1497 689 1497 692 1491 c 0,9,10
 696 1472 696 1472 678 1454 c 0,11,12
 675 1451 675 1451 657.5 1432.5 c 128,-1,13
 640 1414 640 1414 632 1405 c 128,-1,14
 624 1396 624 1396 607 1376 c 128,-1,15
 590 1356 590 1356 580.5 1341 c 128,-1,16
 571 1326 571 1326 558.5 1306 c 128,-1,17
 546 1286 546 1286 538 1265 c 128,-1,18
 530 1244 530 1244 525 1223 c 0,19,20
 517 1189 517 1189 530.5 1170 c 128,-1,21
 544 1151 544 1151 559 1149 c 0,22,23
 560 1148 560 1148 568.5 1142.5 c 128,-1,24
 577 1137 577 1137 582 1132.5 c 128,-1,25
 587 1128 587 1128 596 1118.5 c 128,-1,26
 605 1109 605 1109 610 1098 c 128,-1,27
 615 1087 615 1087 619.5 1072 c 128,-1,28
 624 1057 624 1057 623.5 1037.5 c 128,-1,29
 623 1018 623 1018 617 995 c 0,30,31
 601 927 601 927 544.5 879 c 128,-1,32
 488 831 488 831 418 831 c 0,33,34
 351 831 351 831 314 893.5 c 128,-1,35
 277 956 277 956 300 1057 c 0,0,1
708 1057 m 0,36,37
 724 1125 724 1125 760 1191.5 c 128,-1,38
 796 1258 796 1258 835.5 1304 c 128,-1,39
 875 1350 875 1350 922 1392 c 128,-1,40
 969 1434 969 1434 997.5 1454.5 c 128,-1,41
 1026 1475 1026 1475 1049 1489 c 0,42,43
 1071 1498 1071 1498 1084 1497.5 c 128,-1,44
 1097 1497 1097 1497 1099 1491 c 0,45,46
 1103 1472 1103 1472 1085 1454 c 0,47,48
 1082 1451 1082 1451 1064.5 1432.5 c 128,-1,49
 1047 1414 1047 1414 1039.5 1405 c 128,-1,50
 1032 1396 1032 1396 1014.5 1376 c 128,-1,51
 997 1356 997 1356 987.5 1341 c 128,-1,52
 978 1326 978 1326 965.5 1306 c 128,-1,53
 953 1286 953 1286 945 1265 c 128,-1,54
 937 1244 937 1244 932 1223 c 0,55,56
 924 1189 924 1189 938 1170 c 128,-1,57
 952 1151 952 1151 967 1149 c 0,58,59
 968 1149 968 1149 976.5 1143 c 128,-1,60
 985 1137 985 1137 990 1132.5 c 128,-1,61
 995 1128 995 1128 1004 1118.5 c 128,-1,62
 1013 1109 1013 1109 1018 1098 c 128,-1,63
 1023 1087 1023 1087 1027 1072 c 128,-1,64
 1031 1057 1031 1057 1030.5 1037.5 c 128,-1,65
 1030 1018 1030 1018 1025 995 c 0,66,67
 1009 927 1009 927 952.5 879 c 128,-1,68
 896 831 896 831 825 831 c 0,69,70
 758 831 758 831 721.5 893.5 c 128,-1,71
 685 956 685 956 708 1057 c 0,36,37
EndSplineSet
Validated: 33
EndChar

StartChar: quotedblright
Encoding: 8221 8221 166
Width: 887
GlyphClass: 2
Flags: W
LayerCount: 2
Fore
SplineSet
395 1309 m 0,0,1
 411 1377 411 1377 467.5 1425 c 128,-1,2
 524 1473 524 1473 595 1473 c 0,3,4
 662 1473 662 1473 699 1410.5 c 128,-1,5
 736 1348 736 1348 713 1247 c 0,6,7
 697 1179 697 1179 660.5 1112.5 c 128,-1,8
 624 1046 624 1046 585 1000 c 128,-1,9
 546 954 546 954 499 912 c 128,-1,10
 452 870 452 870 423.5 849.5 c 128,-1,11
 395 829 395 829 371 815 c 0,12,13
 349 806 349 806 336 806.5 c 128,-1,14
 323 807 323 807 321 813 c 0,15,16
 317 831 317 831 336 850 c 0,17,18
 337 851 337 851 356 871.5 c 128,-1,19
 375 892 375 892 381.5 899.5 c 128,-1,20
 388 907 388 907 406 928 c 128,-1,21
 424 949 424 949 432.5 963 c 128,-1,22
 441 977 441 977 454 998 c 128,-1,23
 467 1019 467 1019 475 1039.5 c 128,-1,24
 483 1060 483 1060 487 1081 c 0,25,26
 495 1115 495 1115 482 1134 c 128,-1,27
 469 1153 469 1153 453 1155 c 0,28,29
 452 1156 452 1156 444 1161.5 c 128,-1,30
 436 1167 436 1167 430.5 1171.5 c 128,-1,31
 425 1176 425 1176 416 1185.5 c 128,-1,32
 407 1195 407 1195 402 1206 c 128,-1,33
 397 1217 397 1217 392.5 1232 c 128,-1,34
 388 1247 388 1247 389 1266.5 c 128,-1,35
 390 1286 390 1286 395 1309 c 0,0,1
803 1309 m 0,36,37
 819 1377 819 1377 875.5 1425 c 128,-1,38
 932 1473 932 1473 1003 1473 c 0,39,40
 1070 1473 1070 1473 1106.5 1410.5 c 128,-1,41
 1143 1348 1143 1348 1120 1247 c 0,42,43
 1104 1179 1104 1179 1068 1112.5 c 128,-1,44
 1032 1046 1032 1046 992.5 1000 c 128,-1,45
 953 954 953 954 906 912 c 128,-1,46
 859 870 859 870 830.5 849.5 c 128,-1,47
 802 829 802 829 779 815 c 0,48,49
 757 806 757 806 744 806.5 c 128,-1,50
 731 807 731 807 729 813 c 0,51,52
 725 832 725 832 743 850 c 0,53,54
 744 851 744 851 763 871.5 c 128,-1,55
 782 892 782 892 788.5 899.5 c 128,-1,56
 795 907 795 907 813 928 c 128,-1,57
 831 949 831 949 839.5 963 c 128,-1,58
 848 977 848 977 861 998 c 128,-1,59
 874 1019 874 1019 882 1039.5 c 128,-1,60
 890 1060 890 1060 895 1081 c 0,61,62
 903 1115 903 1115 889.5 1134 c 128,-1,63
 876 1153 876 1153 861 1155 c 0,64,65
 860 1155 860 1155 851.5 1161 c 128,-1,66
 843 1167 843 1167 838 1171.5 c 128,-1,67
 833 1176 833 1176 824 1185.5 c 128,-1,68
 815 1195 815 1195 810 1206 c 128,-1,69
 805 1217 805 1217 800.5 1232 c 128,-1,70
 796 1247 796 1247 797 1266.5 c 128,-1,71
 798 1286 798 1286 803 1309 c 0,36,37
EndSplineSet
Validated: 33
EndChar

StartChar: Euro
Encoding: 8364 8364 169
Width: 1277
GlyphClass: 2
Flags: W
LayerCount: 2
Fore
SplineSet
211 512 m 1,0,-1
 259 635 l 1,1,-1
 383 635 l 1,2,3
 385 653 385 653 393 690 c 0,4,5
 404 737 404 737 429 827 c 1,6,-1
 284 827 l 1,7,-1
 332 950 l 1,8,-1
 472 950 l 1,9,10
 577 1217 577 1217 746 1360 c 128,-1,11
 915 1503 915 1503 1128 1503 c 0,12,13
 1275 1503 1275 1503 1360 1386 c 1,14,-1
 1516 1522 l 1,15,-1
 1392 983 l 1,16,17
 1384 1017 1384 1017 1374 1064.5 c 128,-1,18
 1364 1112 1364 1112 1357 1139.5 c 128,-1,19
 1350 1167 1350 1167 1339 1198 c 0,20,21
 1268 1391 1268 1391 1146 1391 c 0,22,23
 1031 1391 1031 1391 925.5 1272.5 c 128,-1,24
 820 1154 820 1154 745 950 c 1,25,-1
 1246 950 l 1,26,-1
 1198 827 l 1,27,-1
 707 827 l 1,28,29
 699 802 699 802 688 754 c 0,30,31
 670 674 670 674 663 635 c 1,32,-1
 1115 635 l 1,33,-1
 1068 512 l 1,34,-1
 647 512 l 1,35,36
 627 312 627 312 670 194 c 128,-1,37
 713 76 713 76 826 76 c 0,38,39
 869 76 869 76 908.5 89 c 128,-1,40
 948 102 948 102 977 120 c 128,-1,41
 1006 138 1006 138 1039.5 170.5 c 128,-1,42
 1073 203 1073 203 1094.5 229 c 128,-1,43
 1116 255 1116 255 1148 297 c 0,44,45
 1175 332 1175 332 1219 396 c 128,-1,46
 1263 460 1263 460 1275 477 c 1,47,-1
 1151 -61 l 1,48,-1
 1051 82 l 1,49,50
 916 -37 916 -37 759 -37 c 0,51,52
 554 -37 554 -37 450.5 114 c 128,-1,53
 347 265 347 265 365 512 c 1,54,-1
 211 512 l 1,0,-1
EndSplineSet
Validated: 33
EndChar

StartChar: uni25FC
Encoding: 9724 9724 170
Width: 914
GlyphClass: 2
Flags: W
LayerCount: 2
Fore
SplineSet
0 0 m 1,0,-1
 227 983 l 1,1,-1
 1141 983 l 1,2,-1
 914 0 l 1,3,-1
 0 0 l 1,0,-1
EndSplineSet
Validated: 1
EndChar
